<?xml version="1.0" encoding="UTF-8" standalone="no"?>
<!-- Created with Inkscape (http://www.inkscape.org/) -->

<svg
   width="18.722145mm"
   height="18.511623mm"
   viewBox="0 0 18.722145 18.511624"
   version="1.1"
   id="svg1"
   xml:space="preserve"
   inkscape:export-filename="A.Sintesis.svg"
   inkscape:export-xdpi="137"
   inkscape:export-ydpi="137"
   xmlns:inkscape="http://www.inkscape.org/namespaces/inkscape"
   xmlns:sodipodi="http://sodipodi.sourceforge.net/DTD/sodipodi-0.dtd"
   xmlns="http://www.w3.org/2000/svg"
   xmlns:svg="http://www.w3.org/2000/svg"><sodipodi:namedview
     id="namedview1"
     pagecolor="#ffffff"
     bordercolor="#000000"
     borderopacity="0.25"
     inkscape:showpageshadow="2"
     inkscape:pageopacity="0.0"
     inkscape:pagecheckerboard="0"
     inkscape:deskcolor="#d1d1d1"
     inkscape:document-units="mm"><inkscape:page
       x="0"
       y="-1.4502547e-20"
       width="18.722145"
       height="18.511623"
       id="page2"
       margin="0"
       bleed="0" /></sodipodi:namedview><defs
     id="defs1" /><g
     inkscape:label="Layer 1"
     inkscape:groupmode="layer"
     id="layer1"
     transform="translate(-15.951117,-4.6668552)"><g
       id="g573"
       transform="translate(-46.009439,-76.052304)"
       inkscape:export-filename="C"
       inkscape:export-xdpi="137"
       inkscape:export-ydpi="137"><g
         id="g572"><path
           style="fill:#000000"
           d="m 61.960559,96.107458 c 0,-0.12216 0.29765,-0.35773 0.66146,-0.52349 0.8291,-0.37776 0.90013,-1.57826 0.13229,-2.23571 -0.97884,-0.8381 -0.52183,-2.05083 1.06041,-2.81396 0.48173,-0.23234 1.00285,-0.62716 1.15806,-0.87739 l 0.2822,-0.45497 -0.85346,-0.88055 c -0.46941,-0.4843 -0.85346,-1.13813 -0.85346,-1.452955 0,-0.597166 0.93464,-1.651357 1.46409,-1.651357 0.50193,0 1.25807,-1.006959 1.08832,-1.449325 -0.0867,-0.225885 -0.4777,-0.5324 -0.86893,-0.681145 -0.50296,-0.191225 -0.62882,-0.352948 -0.42966,-0.5521 0.19915,-0.199152 0.5024,-0.175852 1.03527,0.07954 l 0.75362,0.361199 v 1.04635 1.046351 l -1.03479,0.580447 c -1.49425,0.838177 -1.60897,1.206026 -0.67945,2.178682 1.22279,1.27953 1.04005,2.40744 -0.51891,3.20276 -0.53749,0.27421 -1.12164,0.67254 -1.29811,0.88517 l -0.32086,0.38661 0.66929,0.7954 c 0.81276,0.96591 0.84378,1.61644 0.12091,2.53542 -0.51232,0.65131 -1.56829,0.97115 -1.56829,0.47502 z"
           id="path565" /><path
           style="fill:#000000"
           d="m 75.998039,97.478628 c -0.82074,-1.04341 -0.39877,-2.13903 1.0559,-2.74158 1.03404,-0.42831 1.33222,-1.48802 0.58584,-2.08196 -0.29482,-0.2346 -0.68118,-0.70931 -0.85858,-1.05491 l -0.32254,-0.62835 0.50461,-0.67587 c 0.27754,-0.37173 0.90679,-0.81129 1.39835,-0.97679 1.29879,-0.4373 1.53968,-0.96888 0.84136,-1.856651 -0.95636,-1.215816 -0.73203,-2.542309 0.54131,-3.200778 1.11195,-0.575012 1.27977,-0.20177 0.26601,0.591618 -0.97901,0.766189 -1.07726,1.40061 -0.32266,2.083511 1.04976,0.95002 0.50514,2.4483 -1.05833,2.9115 -1.42599,0.42248 -1.73026,1.26806 -0.76925,2.13776 1.29616,1.17301 1.16282,2.40499 -0.34387,3.17707 -1.45458,0.74538 -1.72615,1.76279 -0.60668,2.27285 0.78677,0.35848 0.86543,0.74561 0.1515,0.74561 -0.28048,0 -0.75882,-0.31636 -1.06297,-0.70303 z"
           id="path564" /><path
           style="fill:#000000"
           d="m 67.016759,98.870768 c -0.66043,-0.36605 -1.32659,-1.35102 -1.34266,-1.98521 -0.005,-0.20354 1.30788,-3.65635 2.91787,-7.67292 3.15033,-7.859411 3.53686,-8.493479 5.17765,-8.493479 1.07833,0 2.47844,1.186536 2.47844,2.100374 0,0.536268 -1.65867,4.840173 -4.49283,11.657955 -0.75616,1.81902 -1.43826,3.46053 -1.51578,3.64781 -0.179,0.43249 -1.48949,1.11762 -2.11419,1.10532 -0.26189,-0.005 -0.76071,-0.16709 -1.1085,-0.35985 z m 2.47412,-0.9423 c 0.63076,-0.69699 5.96343,-13.988636 5.96343,-14.863818 0,-0.819203 -0.80609,-1.816324 -1.46835,-1.816324 -0.22551,0 -0.73657,0.168867 -1.13569,0.375261 l -0.72567,0.375261 -1.28548,3.26276 c -0.70701,1.794518 -1.98189,4.96104 -2.83306,7.03671 -1.63689,3.99174 -1.83391,5.02273 -1.08457,5.67552 0.91198,0.79445 1.82393,0.77835 2.56939,-0.0454 z"
           id="path563" /></g></g></g></svg>
