<?xml version="1.0" encoding="UTF-8" standalone="no"?>
<!-- Created with Inkscape (http://www.inkscape.org/) -->

<svg
   width="19.97604mm"
   height="14.622492mm"
   viewBox="0 0 19.97604 14.622492"
   version="1.1"
   id="svg1"
   xml:space="preserve"
   inkscape:export-filename="A.Sintesis.svg"
   inkscape:export-xdpi="137"
   inkscape:export-ydpi="137"
   xmlns:inkscape="http://www.inkscape.org/namespaces/inkscape"
   xmlns:sodipodi="http://sodipodi.sourceforge.net/DTD/sodipodi-0.dtd"
   xmlns="http://www.w3.org/2000/svg"
   xmlns:svg="http://www.w3.org/2000/svg"><sodipodi:namedview
     id="namedview1"
     pagecolor="#ffffff"
     bordercolor="#000000"
     borderopacity="0.25"
     inkscape:showpageshadow="2"
     inkscape:pageopacity="0.0"
     inkscape:pagecheckerboard="0"
     inkscape:deskcolor="#d1d1d1"
     inkscape:document-units="mm"><inkscape:page
       x="0"
       y="3.3321216e-23"
       width="19.97604"
       height="14.622493"
       id="page2"
       margin="0"
       bleed="0" /></sodipodi:namedview><defs
     id="defs1"><marker
       style="overflow:visible"
       id="ArrowWide"
       refX="0"
       refY="0"
       orient="auto-start-reverse"
       inkscape:stockid="Wide arrow"
       markerWidth="1"
       markerHeight="1"
       viewBox="0 0 1 1"
       inkscape:isstock="true"
       inkscape:collect="always"
       preserveAspectRatio="xMidYMid"><path
         style="fill:none;stroke:context-stroke;stroke-width:1;stroke-linecap:butt"
         d="M 3,-3 0,0 3,3"
         transform="rotate(180,0.125,0)"
         sodipodi:nodetypes="ccc"
         id="path1" /></marker></defs><g
     inkscape:label="Layer 1"
     inkscape:groupmode="layer"
     id="layer1"
     transform="translate(-61.034519,-107.32319)"><path
       style="fill:#000000"
       d="m 64.474099,117.87 c -1.8675,-1.04084 -2.13909,-1.16433 -2.56407,-1.16587 -0.24608,-9e-4 -0.52099,-0.1207 -0.61093,-0.26622 -0.32994,-0.53385 1.6102,-0.24789 2.64583,0.38997 1.35356,0.83368 2.48818,0.83562 4.04491,0.007 1.57158,-0.83662 2.80673,-0.83867 4.15717,-0.007 0.66196,0.40771 1.45472,0.65185 2.11667,0.65185 0.66196,0 1.45471,-0.24414 2.11667,-0.65185 0.5952,-0.36659 1.46357,-0.652 1.98437,-0.65221 0.95456,-3.7e-4 2.64584,0.84128 2.64584,1.31669 0,0.37313 -0.12946,0.34306 -1.11809,-0.25971 -1.16047,-0.70754 -1.66503,-0.66975 -3.37983,0.25316 -1.83927,0.98989 -2.71091,0.99198 -4.36563,0.0104 -1.61603,-0.9586 -2.27539,-0.9836 -3.71355,-0.14078 -1.51626,0.88859 -2.95318,1.07532 -3.95936,0.51453 z"
       id="path559" /><path
       style="fill:#000000"
       d="m 63.665169,121.21734 c -0.86478,-0.42725 -1.81045,-0.86792 -2.10149,-0.97927 l -0.52916,-0.20246 0.88487,-0.0977 c 0.63982,-0.0706 1.18938,0.10585 1.98438,0.63724 1.40224,0.93729 2.65333,0.93688 4.03402,-10e-4 1.37765,-0.93614 3.0525,-0.94943 4.39835,-0.0349 1.2608,0.85674 2.64585,0.85438 4.04421,-0.007 0.64134,-0.39501 1.45924,-0.65238 2.07584,-0.6532 1.10847,-0.001 2.55437,0.704 2.55437,1.24632 0,0.44971 -0.0989,0.43305 -1.11809,-0.18835 -1.17856,-0.71857 -1.95454,-0.66033 -3.51212,0.26359 -1.66677,0.98869 -2.33833,0.98869 -4.19109,0 -0.8181,-0.43656 -1.73008,-0.79375 -2.02662,-0.79375 -0.29654,0 -1.20852,0.35719 -2.02662,0.79375 -1.85402,0.98936 -2.49768,0.9918 -4.47085,0.0169 z"
       id="path558" /><g
       id="g575"
       transform="translate(20.938006,4.932333)"
       style="stroke:#000000"><path
         style="fill:none;stroke:#000000;stroke-width:0.5;stroke-linecap:round;stroke-linejoin:round;stroke-dasharray:none;marker-end:url(#ArrowWide)"
         d="m 44.950148,109.93871 v -4.40165"
         id="path573"
         sodipodi:nodetypes="cc" /><path
         style="fill:none;stroke:#000000;stroke-width:0.5;stroke-linecap:round;stroke-linejoin:round;stroke-dasharray:none;marker-end:url(#ArrowWide)"
         d="M 51.352548,109.89425 V 102.8694"
         id="path574"
         sodipodi:nodetypes="cc" /><path
         style="fill:none;stroke:#000000;stroke-width:0.5;stroke-linecap:round;stroke-linejoin:round;stroke-dasharray:none;marker-end:url(#ArrowWide)"
         d="m 56.554498,109.98317 v -3.2012"
         id="path575"
         sodipodi:nodetypes="cc" /></g></g></svg>
