<?xml version="1.0" encoding="UTF-8" standalone="no"?>
<!-- Created with Inkscape (http://www.inkscape.org/) -->

<svg
   width="20.206028mm"
   height="14.816667mm"
   viewBox="0 0 20.206028 14.816667"
   version="1.1"
   id="svg1"
   xml:space="preserve"
   inkscape:export-filename="A.Sintesis.svg"
   inkscape:export-xdpi="137"
   inkscape:export-ydpi="137"
   xmlns:inkscape="http://www.inkscape.org/namespaces/inkscape"
   xmlns:sodipodi="http://sodipodi.sourceforge.net/DTD/sodipodi-0.dtd"
   xmlns="http://www.w3.org/2000/svg"
   xmlns:svg="http://www.w3.org/2000/svg"><sodipodi:namedview
     id="namedview1"
     pagecolor="#ffffff"
     bordercolor="#000000"
     borderopacity="0.25"
     inkscape:showpageshadow="2"
     inkscape:pageopacity="0.0"
     inkscape:pagecheckerboard="0"
     inkscape:deskcolor="#d1d1d1"
     inkscape:document-units="mm"><inkscape:page
       x="0"
       y="0"
       width="20.206028"
       height="14.816667"
       id="page2"
       margin="0"
       bleed="0" /></sodipodi:namedview><defs
     id="defs1" /><g
     inkscape:label="Layer 1"
     inkscape:groupmode="layer"
     id="layer1"
     transform="translate(-59.994512,-131.65145)"><path
       style="fill:#000000"
       d="m 75.203599,146.00586 c -0.008,-0.25424 0.42159,-0.94427 0.95384,-1.5334 l 0.96771,-1.07114 -0.57235,-0.40089 c -1.80729,-1.26588 -1.78069,-4.13695 0.0569,-6.14478 l 0.56437,-0.61663 -0.42953,-0.31409 c -0.81873,-0.59868 -1.55319,-2.13497 -1.53709,-3.21514 l 0.0158,-1.05834 0.23928,0.59532 0.23929,0.59531 h 1.96204 1.96204 l 0.19674,-0.59531 0.19674,-0.59532 0.12159,0.62952 c 0.16529,0.85581 -0.62358,2.82973 -1.3635,3.41175 l -0.60396,0.47508 0.76432,0.91554 c 1.5011,1.79807 1.57978,4.09334 0.19127,5.57975 l -0.76256,0.81632 0.7557,0.70592 c 0.73841,0.68979 1.2772,1.79146 1.00785,2.06081 -0.0743,0.0743 -0.26791,-0.11331 -0.43034,-0.41682 l -0.29533,-0.55182 h -1.67821 -1.67821 l -0.41527,0.59531 -0.41527,0.59531 z m 3.33006,-1.67545 -0.7571,-0.66578 -0.55132,0.36605 c -1.03726,0.68872 -0.8397,0.98272 0.65441,0.97387 l 1.41111,-0.008 z m -0.22185,-1.48708 c 0.54697,-0.54698 0.35312,-0.74083 -0.74084,-0.74083 -1.11796,0 -1.36695,0.32312 -0.59531,0.77255 0.61587,0.35871 0.95374,0.35069 1.33615,-0.0317 z m 1.21523,-1.42393 c 0.40482,-1.05494 0.22688,-1.16899 -1.82378,-1.16899 h -1.98437 v 0.61736 c 0,0.88821 0.16893,0.97014 2.00016,0.97014 1.25813,0 1.68534,-0.0989 1.80799,-0.41851 z m 0.15655,-1.89659 c -0.008,-0.9659 -0.38451,-1.15458 -2.13671,-1.07205 l -1.6957,0.0799 -0.0837,0.7276 -0.0837,0.72761 h 2.00195 2.00195 z m -1.38099,-2.3652 -0.71155,-0.71155 -0.5392,0.48797 c -0.81372,0.73641 -0.66251,0.93513 0.71155,0.93513 h 1.25075 z m -0.20246,-1.53741 0.32938,-0.39687 h -0.85855 -0.85854 l 0.32938,0.39687 c 0.18115,0.21829 0.41928,0.39688 0.52916,0.39688 0.10989,0 0.34801,-0.17859 0.52917,-0.39688 z m 1.31361,-1.43781 c 0.51429,-0.96096 0.3318,-1.07573 -1.71049,-1.07573 -2.05066,0 -2.22859,0.11405 -1.82377,1.16899 0.12115,0.31572 0.54127,0.41851 1.71048,0.41851 h 1.54988 z"
       id="path556"
       inkscape:export-filename="G.svg"
       inkscape:export-xdpi="137"
       inkscape:export-ydpi="137" /><g
       id="g584"
       transform="translate(-31.745209,-0.08892217)"><circle
         style="fill:none;stroke:#000000;stroke-width:0.499999;stroke-linecap:round;stroke-linejoin:round;stroke-dasharray:none"
         id="path576"
         cx="99.472137"
         cy="139.83946"
         r="1.7605689" /><circle
         style="fill:none;stroke:#000000;stroke-width:0.499999;stroke-linecap:round;stroke-linejoin:round;stroke-dasharray:none"
         id="path577"
         cx="103.68494"
         cy="137.70164"
         r="1.0060393" /><circle
         style="fill:none;stroke:#000000;stroke-width:0.499999;stroke-linecap:round;stroke-linejoin:round;stroke-dasharray:none"
         id="path578"
         cx="98.717606"
         cy="134.05473"
         r="1.1946716" /><circle
         style="fill:none;stroke:#000000;stroke-width:0.499999;stroke-linecap:round;stroke-linejoin:round;stroke-dasharray:none"
         id="path579"
         cx="93.373024"
         cy="139.4622"
         r="1.3833041" /><circle
         style="fill:none;stroke:#000000;stroke-width:0.499999;stroke-linecap:round;stroke-linejoin:round;stroke-dasharray:none"
         id="path580"
         cx="102.05012"
         cy="144.42952"
         r="1.2575492" /><path
         style="fill:none;stroke:#000000;stroke-width:0.499999;stroke-linecap:round;stroke-linejoin:round;stroke-dasharray:none"
         d="m 95.070717,139.52508 h 2.515098"
         id="path581" /><path
         style="fill:none;stroke:#000000;stroke-width:0.499999;stroke-linecap:round;stroke-linejoin:round;stroke-dasharray:none"
         d="m 99.094873,138.14178 v -2.89237"
         id="path582" /><path
         style="fill:none;stroke:#000000;stroke-width:0.499999;stroke-linecap:round;stroke-linejoin:round;stroke-dasharray:none"
         d="m 101.23271,138.70767 1.63481,-0.44014"
         id="path583" /><path
         style="fill:none;stroke:#000000;stroke-width:0.499999;stroke-linecap:round;stroke-linejoin:round;stroke-dasharray:none"
         d="m 100.60393,141.41141 0.88029,2.01207"
         id="path584" /></g></g></svg>
