<?xml version="1.0" encoding="UTF-8" standalone="no"?>
<!-- Created with Inkscape (http://www.inkscape.org/) -->

<svg
   width="16.455507mm"
   height="16.647297mm"
   viewBox="0 0 16.455508 16.647297"
   version="1.1"
   id="svg1"
   xml:space="preserve"
   inkscape:export-filename="A.Sintesis.svg"
   inkscape:export-xdpi="137"
   inkscape:export-ydpi="137"
   xmlns:inkscape="http://www.inkscape.org/namespaces/inkscape"
   xmlns:sodipodi="http://sodipodi.sourceforge.net/DTD/sodipodi-0.dtd"
   xmlns="http://www.w3.org/2000/svg"
   xmlns:svg="http://www.w3.org/2000/svg"><sodipodi:namedview
     id="namedview1"
     pagecolor="#ffffff"
     bordercolor="#000000"
     borderopacity="0.25"
     inkscape:showpageshadow="2"
     inkscape:pageopacity="0.0"
     inkscape:pagecheckerboard="0"
     inkscape:deskcolor="#d1d1d1"
     inkscape:document-units="mm"><inkscape:page
       x="2.2700525e-23"
       y="0"
       width="16.455509"
       height="16.647297"
       id="page2"
       margin="0"
       bleed="0" /></sodipodi:namedview><defs
     id="defs1" /><g
     inkscape:label="Layer 1"
     inkscape:groupmode="layer"
     id="layer1"
     transform="translate(-63.238321,-154.98531)"><path
       style="fill:#000000"
       d="m 66.061599,171.25024 c -2.3674,-1.12504 -3.40731,-3.64468 -2.49516,-6.04563 0.33793,-0.88951 8.51103,-9.20997 9.61866,-9.79208 1.61938,-0.85107 4.04968,-0.38932 5.36044,1.01846 1.12405,1.20726 1.48801,3.49986 0.79944,5.03567 -0.42603,0.95024 -8.25456,9.12793 -9.21233,9.62321 -1.27649,0.6601 -2.88605,0.7235 -4.07105,0.16037 z m 2.79993,-0.21993 c 0.61715,-0.12343 1.57969,-0.84921 3.20807,-2.41897 1.2795,-1.23345 2.32637,-2.37661 2.32637,-2.54036 0,-0.16376 -1.24982,-1.54331 -2.77738,-3.06567 l -2.77738,-2.76793 -2.13664,2.1112 c -2.45764,2.42837 -2.89193,3.12289 -2.89193,4.62474 0,1.70084 1.08388,3.3132 2.64597,3.93609 0.81342,0.32435 1.27065,0.34736 2.40292,0.1209 z m 8.16717,-7.39237 c 1.82285,-1.94863 2.13022,-2.54876 2.12878,-4.15631 -0.002,-2.5588 -2.47923,-4.47153 -4.97137,-3.83896 -0.75906,0.19267 -1.56509,0.79308 -2.98876,2.22632 l -1.9494,1.96249 2.76772,2.77718 c 1.52225,1.52744 2.90503,2.77717 3.07284,2.77717 0.16782,0 1.04091,-0.78655 1.94019,-1.74789 z"
       id="path555"
       inkscape:export-filename="H.svg"
       inkscape:export-xdpi="137"
       inkscape:export-ydpi="137" /><path
       style="fill:#000000"
       d="m 67.870249,163.64824 c -0.24078,-0.62744 0.32353,-1.06996 0.82923,-0.65027 0.31338,0.26008 0.33984,0.42756 0.11111,0.70316 -0.39621,0.4774 -0.74437,0.45782 -0.94034,-0.0529 z"
       id="path554" /><path
       style="fill:#000000"
       d="m 70.074449,164.68026 c -0.30444,-0.30443 -0.19268,-0.61736 0.22048,-0.61736 0.21828,0 0.39688,0.1786 0.39688,0.39688 0,0.41316 -0.31293,0.52492 -0.61736,0.22048 z"
       id="path553" /><path
       style="fill:#000000"
       d="m 65.946239,166.33226 c -0.41072,-0.49489 -0.15011,-0.94644 0.54625,-0.94644 0.39554,0 0.51027,0.14735 0.44741,0.57459 -0.10566,0.71801 -0.56402,0.88954 -0.99366,0.37185 z"
       id="path552" /><path
       style="fill:#000000"
       d="m 69.104309,166.68669 c 0,-0.6448 0.61827,-0.55366 0.747,0.11012 0.0506,0.26108 -0.0843,0.44109 -0.33073,0.44109 -0.24543,0 -0.41627,-0.22621 -0.41627,-0.55121 z"
       id="path551" /><path
       style="fill:#000000"
       d="m 71.017019,167.18829 c 0.16354,-0.49059 0.73312,-0.57196 0.73312,-0.10473 0,0.23041 -0.18852,0.41893 -0.41892,0.41893 -0.23041,0 -0.3718,-0.14139 -0.3142,-0.3142 z"
       id="path550" /><path
       style="fill:#000000"
       d="m 67.187209,169.28842 c -0.19701,-0.53574 0.0735,-0.99218 0.58792,-0.99218 0.58662,0 0.86637,0.62155 0.46183,1.02609 -0.39328,0.39328 -0.89865,0.37696 -1.04975,-0.0339 z"
       id="path549" /></g></svg>
