<svg width="1200" height="630" viewBox="0 0 1200 630" fill="none" xmlns="http://www.w3.org/2000/svg">
  <defs>
    <linearGradient id="bg" x1="80" y1="40" x2="1080" y2="590" gradientUnits="userSpaceOnUse">
      <stop stop-color="#071A26"/>
      <stop offset="0.45" stop-color="#0B3950"/>
      <stop offset="1" stop-color="#0E6B63"/>
    </linearGradient>
    <radialGradient id="glowA" cx="0" cy="0" r="1" gradientUnits="userSpaceOnUse" gradientTransform="translate(180 560) rotate(-18) scale(360 190)">
      <stop stop-color="#0DAA80" stop-opacity="0.65"/>
      <stop offset="1" stop-color="#0DAA80" stop-opacity="0"/>
    </radialGradient>
    <radialGradient id="glowB" cx="0" cy="0" r="1" gradientUnits="userSpaceOnUse" gradientTransform="translate(1030 120) rotate(180) scale(280 170)">
      <stop stop-color="#24C0D7" stop-opacity="0.35"/>
      <stop offset="1" stop-color="#24C0D7" stop-opacity="0"/>
    </radialGradient>
    <filter id="noise" x="-20%" y="-20%" width="140%" height="140%">
      <feTurbulence type="fractalNoise" baseFrequency="0.95" numOctaves="2" stitchTiles="stitch" result="turbulence"/>
      <feColorMatrix in="turbulence" type="matrix" values="1 0 0 0 0  0 1 0 0 0  0 0 1 0 0  0 0 0 0.13 0"/>
    </filter>
    <filter id="softShadow" x="-20%" y="-20%" width="140%" height="140%">
      <feDropShadow dx="0" dy="8" stdDeviation="18" flood-color="#031117" flood-opacity="0.35"/>
    </filter>
  </defs>

  <rect width="1200" height="630" fill="url(#bg)"/>
  <rect width="1200" height="630" fill="url(#glowA)"/>
  <rect width="1200" height="630" fill="url(#glowB)"/>
  <rect width="1200" height="630" filter="url(#noise)" opacity="0.85"/>

  <g opacity="0.22">
    <circle cx="109" cy="78" r="6" fill="#79F0FF"/>
    <circle cx="1044" cy="493" r="5" fill="#5CCBFF"/>
    <circle cx="955" cy="141" r="4" fill="#A9FFF3"/>
    <circle cx="239" cy="542" r="4" fill="#A9FFF3"/>
    <circle cx="988" cy="94" r="6" fill="#7F80FF"/>
  </g>

  <g filter="url(#softShadow)" transform="translate(164 133)">
    <text x="0" y="148" fill="#F4F7FA" font-size="152" font-weight="900" font-family="Arial, Helvetica, sans-serif" letter-spacing="-5">Nano</text>
    <text x="0" y="310" fill="#F4F7FA" font-size="152" font-weight="900" font-family="Arial, Helvetica, sans-serif" letter-spacing="-5">2026</text>

    <g transform="translate(546 44)">
      <g fill="#F4F7FA">
        <circle cx="34" cy="54" r="23"/>
        <circle cx="94" cy="54" r="23"/>
        <circle cx="154" cy="54" r="23"/>

        <circle cx="34" cy="114" r="23"/>
        <circle cx="34" cy="174" r="23"/>
        <circle cx="34" cy="234" r="23"/>
        <circle cx="34" cy="294" r="23"/>

        <circle cx="94" cy="114" r="23"/>
        <circle cx="94" cy="174" r="23"/>
        <circle cx="94" cy="234" r="23"/>
        <circle cx="94" cy="294" r="23"/>

        <circle cx="154" cy="114" r="23"/>
        <circle cx="154" cy="174" r="23"/>
        <circle cx="154" cy="234" r="23"/>
        <circle cx="154" cy="294" r="23"/>
      </g>

      <g fill="#5658FF" stroke="#F4F7FA" stroke-width="7">
        <circle cx="17" cy="37" r="18"/>
        <circle cx="77" cy="157" r="18"/>
        <circle cx="137" cy="217" r="18"/>
      </g>
    </g>
  </g>

  <text x="168" y="550" fill="#CDE6EA" opacity="0.9" font-size="34" font-weight="600" font-family="Arial, Helvetica, sans-serif" letter-spacing="0.2">
    XXIV Encuentro de Superficies y Materiales Nanoestructurados · 3-5 junio 2026 · UNSAM
  </text>
</svg>
