<?xml version="1.0" encoding="UTF-8" standalone="no"?>
<!-- Created with Inkscape (http://www.inkscape.org/) -->

<svg
   width="92.70108mm"
   height="40.414276mm"
   viewBox="0 0 92.701084 40.414277"
   version="1.1"
   id="svg1"
   xml:space="preserve"
   inkscape:export-filename="organizadores.png"
   inkscape:export-xdpi="300"
   inkscape:export-ydpi="300"
   inkscape:version="1.4.3 (fcd0343856, 2026-01-01)"
   sodipodi:docname="organizadores.svg"
   xmlns:inkscape="http://www.inkscape.org/namespaces/inkscape"
   xmlns:sodipodi="http://sodipodi.sourceforge.net/DTD/sodipodi-0.dtd"
   xmlns="http://www.w3.org/2000/svg"
   xmlns:svg="http://www.w3.org/2000/svg"><sodipodi:namedview
     id="namedview1"
     pagecolor="#ffffff"
     bordercolor="#000000"
     borderopacity="0.25"
     inkscape:showpageshadow="2"
     inkscape:pageopacity="0.0"
     inkscape:pagecheckerboard="0"
     inkscape:deskcolor="#d1d1d1"
     inkscape:document-units="mm"
     inkscape:zoom="2.6478692"
     inkscape:cx="2241.8026"
     inkscape:cy="141.05682"
     inkscape:window-width="1920"
     inkscape:window-height="1043"
     inkscape:window-x="0"
     inkscape:window-y="0"
     inkscape:window-maximized="1"
     inkscape:current-layer="layer1"><inkscape:page
       x="0"
       y="0"
       width="92.70108"
       height="40.414276"
       id="page70"
       margin="0 445.67545 0 0"
       bleed="0"
       inkscape:export-filename="uba.png"
       inkscape:export-xdpi="137"
       inkscape:export-ydpi="137" /></sodipodi:namedview><defs
     id="defs1" /><g
     inkscape:label="Layer 1"
     inkscape:groupmode="layer"
     id="layer1"
     transform="translate(-366.12992,-106.94507)"><g
       id="g5"
       transform="matrix(1.8998308,0,0,1.8998308,-151.40697,-107.30255)"><path
         id="path98-7"
         d="m 286.02601,118.36015 v -0.002 h -8.79686 l 4.39946,4.39964 z"
         style="fill:#0065a4;fill-opacity:1;fill-rule:nonzero;stroke:none;stroke-width:0.0895237" /><path
         id="path99-3"
         d="m 277.22726,118.35953 v 8.79946 l 4.40008,-4.39928 z"
         style="fill:#00aeef;fill-opacity:1;fill-rule:nonzero;stroke:none;stroke-width:0.0895237" /><path
         id="path100-6"
         d="m 281.62721,122.75975 4.39901,4.39928 v -8.79937 z"
         style="fill:#00aeef;fill-opacity:1;fill-rule:nonzero;stroke:none;stroke-width:0.0895237" /><path
         id="path101-5"
         d="m 277.22726,128.45831 h 8.799 l -4.39892,-4.39892 z"
         style="fill:#a7a9ac;fill-opacity:1;fill-rule:nonzero;stroke:none;stroke-width:0.0895237" /><path
         id="path102-6"
         d="m 288.63094,126.24715 -0.0731,-0.20742 h -0.35379 l -0.073,0.20742 h -0.12023 l 0.3042,-0.82863 h 0.141 l 0.30402,0.82863 z m -0.24923,-0.71645 -0.14619,0.41234 h 0.29086 z"
         style="fill:#717073;fill-opacity:1;fill-rule:nonzero;stroke:none;stroke-width:0.0895237" /><path
         id="path103-3"
         d="m 289.37642,126.19119 c -0.0482,0.0403 -0.11468,0.0678 -0.21271,0.0678 -0.14217,0 -0.24521,-0.0835 -0.28702,-0.12918 l 0.0679,-0.0835 c 0.0209,0.0221 0.10573,0.11091 0.21916,0.11091 0.11486,0 0.17493,-0.0536 0.17493,-0.1307 0,-0.0769 -0.0718,-0.10564 -0.10833,-0.1213 -0.0364,-0.0156 -0.13554,-0.0534 -0.16051,-0.0638 -0.0248,-0.0106 -0.0612,-0.0287 -0.0925,-0.0575 -0.034,-0.0301 -0.0629,-0.0797 -0.0629,-0.15129 0,-0.0757 0.0354,-0.13447 0.0835,-0.17099 0.047,-0.0352 0.10841,-0.0561 0.19194,-0.0561 0.14082,0 0.23213,0.0809 0.26105,0.11342 l -0.0589,0.0824 c -0.0286,-0.0327 -0.10958,-0.098 -0.20349,-0.098 -0.0952,0 -0.15667,0.0417 -0.15667,0.11763 0,0.0768 0.0588,0.10027 0.10573,0.11996 0.0353,0.0142 0.13975,0.0548 0.16186,0.0639 0.0312,0.013 0.0654,0.0299 0.0953,0.0587 0.0404,0.0391 0.0626,0.0861 0.0626,0.15022 0,0.0744 -0.0315,0.13572 -0.081,0.17752"
         style="fill:#717073;fill-opacity:1;fill-rule:nonzero;stroke:none;stroke-width:0.0895237" /><path
         id="path104-9"
         d="m 290.0197,126.25895 c -0.24154,0 -0.39794,-0.17636 -0.39794,-0.42694 0,-0.24896 0.1564,-0.42533 0.39794,-0.42533 0.24126,0 0.39659,0.17637 0.39659,0.42533 0,0.25058 -0.15533,0.42694 -0.39659,0.42694 m 0,-0.75048 c -0.16974,0 -0.27269,0.13581 -0.27269,0.32229 0,0.18791 0.10295,0.32371 0.27269,0.32371 0.16821,0 0.27134,-0.1358 0.27134,-0.32246 0,-0.18773 -0.10313,-0.32354 -0.27134,-0.32354"
         style="fill:#717073;fill-opacity:1;fill-rule:nonzero;stroke:none;stroke-width:0.0895237" /><path
         id="path105-4"
         d="m 291.21042,125.63762 c 0,0 -0.0628,-0.12525 -0.22327,-0.12525 -0.15917,0 -0.26884,0.12928 -0.26884,0.31844 0,0.18925 0.10457,0.31861 0.2649,0.31861 0.16052,0 0.23375,-0.1281 0.23375,-0.1281 l 0.0703,0.0783 c 0,0 -0.086,0.15917 -0.30922,0.15917 -0.22336,0 -0.38495,-0.15917 -0.38495,-0.42658 0,-0.26758 0.18012,-0.4255 0.39015,-0.4255 0.2102,0 0.29507,0.1435 0.30026,0.15398 z"
         style="fill:#717073;fill-opacity:1;fill-rule:nonzero;stroke:none;stroke-width:0.0895237" /><path
         id="path106-8"
         d="m 291.48206,125.41856 h 0.1214 v 0.82864 h -0.1214 z"
         style="fill:#717073;fill-opacity:1;fill-rule:nonzero;stroke:none;stroke-width:0.0895237" /><path
         id="path107-1"
         d="m 292.39329,126.24715 -0.0731,-0.20742 h -0.35353 l -0.0731,0.20742 h -0.12014 l 0.3042,-0.82863 h 0.14091 l 0.30403,0.82863 z m -0.24923,-0.71645 -0.1462,0.41234 h 0.29113 z"
         style="fill:#717073;fill-opacity:1;fill-rule:nonzero;stroke:none;stroke-width:0.0895237" /><path
         id="path108-2"
         d="m 293.23406,125.63762 c 0,0 -0.0627,-0.12525 -0.22309,-0.12525 -0.15936,0 -0.26902,0.12928 -0.26902,0.31844 0,0.18925 0.10447,0.31861 0.26508,0.31861 0.16042,0 0.23348,-0.1281 0.23348,-0.1281 l 0.0704,0.0783 c 0,0 -0.0861,0.15917 -0.30913,0.15917 -0.22309,0 -0.38504,-0.15917 -0.38504,-0.42658 0,-0.26758 0.18021,-0.4255 0.39032,-0.4255 0.21003,0 0.2948,0.1435 0.30018,0.15398 z"
         style="fill:#717073;fill-opacity:1;fill-rule:nonzero;stroke:none;stroke-width:0.0895237" /><path
         id="path109-9"
         d="m 293.50574,125.41856 h 0.1214 v 0.82864 h -0.1214 z"
         style="fill:#717073;fill-opacity:1;fill-rule:nonzero;stroke:none;stroke-width:0.0895237" /><path
         id="path110-3"
         d="m 294.2489,126.25895 c -0.24136,0 -0.39811,-0.17636 -0.39811,-0.42694 0,-0.24896 0.15675,-0.42533 0.39811,-0.42533 0.24126,0 0.39677,0.17637 0.39677,0.42533 0,0.25058 -0.15551,0.42694 -0.39677,0.42694 m 0,-0.75048 c -0.16956,0 -0.27269,0.13581 -0.27269,0.32229 0,0.18791 0.10313,0.32371 0.27269,0.32371 0.16839,0 0.27143,-0.1358 0.27143,-0.32246 0,-0.18773 -0.10304,-0.32354 -0.27143,-0.32354 m 0.0417,-0.16042 h -0.0861 l 0.0876,-0.16571 h 0.12247 z"
         style="fill:#717073;fill-opacity:1;fill-rule:nonzero;stroke:none;stroke-width:0.0895237" /><path
         id="path111-9"
         d="m 295.41104,126.24715 -0.42792,-0.66552 v 0.66552 h -0.11227 v -0.82863 h 0.13447 l 0.40715,0.63401 v -0.63401 h 0.11352 v 0.82863 z"
         style="fill:#717073;fill-opacity:1;fill-rule:nonzero;stroke:none;stroke-width:0.0895237" /><path
         id="path112-0"
         d="m 296.72312,126.14521 c -0.0679,0.0653 -0.15801,0.10197 -0.28576,0.10197 h -0.27278 v -0.82863 h 0.27278 c 0.12775,0 0.21674,0.0364 0.28576,0.10178 0.0679,0.0652 0.12265,0.16956 0.12265,0.31191 0,0.14332 -0.0535,0.24771 -0.12265,0.31297 m -0.0873,-0.55317 c -0.0525,-0.0522 -0.11746,-0.077 -0.19991,-0.077 h -0.1513 v 0.63294 h 0.1513 c 0.0808,0 0.14744,-0.0236 0.19991,-0.0757 0.052,-0.0522 0.0846,-0.13823 0.0846,-0.24001 0,-0.10188 -0.0326,-0.188 -0.0846,-0.2402"
         style="fill:#717073;fill-opacity:1;fill-rule:nonzero;stroke:none;stroke-width:0.0895237" /><path
         id="path113-8"
         d="m 297.06836,126.24715 v -0.82863 h 0.50375 v 0.0965 h -0.38361 v 0.24413 h 0.35765 v 0.0978 h -0.35765 v 0.28961 h 0.39668 v 0.10053 z"
         style="fill:#717073;fill-opacity:1;fill-rule:nonzero;stroke:none;stroke-width:0.0895237" /><path
         id="path114-8"
         d="m 298.17028,125.41856 h 0.12121 v 0.82864 h -0.12121 z"
         style="fill:#717073;fill-opacity:1;fill-rule:nonzero;stroke:none;stroke-width:0.0895237" /><path
         id="path115-5"
         d="m 299.10065,126.24715 -0.4281,-0.66552 v 0.66552 h -0.11208 v -0.82863 h 0.13437 l 0.40707,0.63401 v -0.63401 h 0.11351 v 0.82863 z"
         style="fill:#717073;fill-opacity:1;fill-rule:nonzero;stroke:none;stroke-width:0.0895237" /><path
         id="path116-0"
         d="m 300.04555,126.14521 c -0.0677,0.0653 -0.15774,0.10197 -0.28558,0.10197 h -0.27287 v -0.82863 h 0.27287 c 0.12784,0 0.21647,0.0364 0.28558,0.10178 0.0679,0.0652 0.12274,0.16956 0.12274,0.31191 0,0.14332 -0.0534,0.24771 -0.12274,0.31297 m -0.0874,-0.55317 c -0.0522,-0.0522 -0.11755,-0.077 -0.19946,-0.077 h -0.15139 v 0.63294 h 0.15139 c 0.0807,0 0.14726,-0.0236 0.19946,-0.0757 0.0523,-0.0522 0.0849,-0.13823 0.0849,-0.24001 0,-0.10188 -0.0327,-0.188 -0.0849,-0.2402"
         style="fill:#717073;fill-opacity:1;fill-rule:nonzero;stroke:none;stroke-width:0.0895237" /><path
         id="path117-9"
         d="m 300.88623,125.41853 h 0.12139 v 0.50115 c 0,0.10439 -0.0117,0.18138 -0.0653,0.2453 -0.0549,0.0637 -0.13169,0.094 -0.24798,0.094 -0.11611,0 -0.19445,-0.0303 -0.24789,-0.094 -0.0533,-0.0639 -0.0666,-0.14091 -0.0666,-0.2453 v -0.50115 h 0.1214 v 0.50885 c 0,0.0849 0.008,0.12014 0.0365,0.15927 0.0302,0.0391 0.0784,0.0639 0.1555,0.0639 0.0782,0 0.12632,-0.0248 0.1564,-0.0639 0.0301,-0.0391 0.0366,-0.0744 0.0366,-0.15927 z"
         style="fill:#717073;fill-opacity:1;fill-rule:nonzero;stroke:none;stroke-width:0.0895237" /><path
         id="path118-6"
         d="m 301.68897,126.19119 c -0.0483,0.0403 -0.11477,0.0678 -0.21262,0.0678 -0.14225,0 -0.24529,-0.0835 -0.2871,-0.12918 l 0.068,-0.0835 c 0.0207,0.0221 0.10546,0.11091 0.21906,0.11091 0.11477,0 0.17476,-0.0536 0.17476,-0.1307 0,-0.0769 -0.0719,-0.10564 -0.10815,-0.1213 -0.0364,-0.0156 -0.13563,-0.0534 -0.1606,-0.0638 -0.0246,-0.0106 -0.0613,-0.0287 -0.0925,-0.0575 -0.034,-0.0301 -0.0628,-0.0797 -0.0628,-0.15129 0,-0.0757 0.0354,-0.13447 0.0834,-0.17099 0.0473,-0.0352 0.1085,-0.0561 0.19212,-0.0561 0.14064,0 0.23213,0.0809 0.26078,0.11342 l -0.0587,0.0824 c -0.0286,-0.0327 -0.10949,-0.098 -0.20349,-0.098 -0.0953,0 -0.15658,0.0417 -0.15658,0.11763 0,0.0768 0.0588,0.10027 0.10555,0.11996 0.0355,0.0142 0.13993,0.0548 0.16204,0.0639 0.0311,0.013 0.0654,0.0299 0.0951,0.0587 0.0405,0.0391 0.0629,0.0861 0.0629,0.15022 0,0.0744 -0.0315,0.13572 -0.0812,0.17752"
         style="fill:#717073;fill-opacity:1;fill-rule:nonzero;stroke:none;stroke-width:0.0895237" /><path
         id="path119-3"
         d="m 302.28539,125.51504 v 0.73203 h -0.12131 v -0.73203 h -0.24789 v -0.0965 h 0.61834 v 0.0965 z"
         style="fill:#717073;fill-opacity:1;fill-rule:nonzero;stroke:none;stroke-width:0.0895237" /><path
         id="path120-8"
         d="m 303.17232,126.24715 -0.21513,-0.34063 h -0.12273 v 0.34063 h -0.1214 v -0.82863 h 0.27027 c 0.0781,0 0.14727,0.0197 0.19561,0.0587 0.0523,0.0404 0.0863,0.10438 0.0863,0.18272 0,0.12775 -0.089,0.20465 -0.18289,0.23079 l 0.23231,0.35639 z m -0.0873,-0.70338 c -0.0339,-0.0234 -0.0694,-0.0299 -0.12524,-0.0299 h -0.12533 v 0.29874 h 0.12533 c 0.0559,0 0.0913,-0.007 0.12524,-0.0301 0.0337,-0.0234 0.0587,-0.0677 0.0587,-0.12005 0,-0.0509 -0.0251,-0.0952 -0.0587,-0.1187"
         style="fill:#717073;fill-opacity:1;fill-rule:nonzero;stroke:none;stroke-width:0.0895237" /><path
         id="path121-5"
         d="m 303.50445,125.41856 h 0.1214 v 0.82864 h -0.1214 z"
         style="fill:#717073;fill-opacity:1;fill-rule:nonzero;stroke:none;stroke-width:0.0895237" /><path
         id="path122-6"
         d="m 304.41559,126.24715 -0.0731,-0.20742 h -0.35371 l -0.0731,0.20742 h -0.11987 l 0.30411,-0.82863 h 0.14082 l 0.30402,0.82863 z m -0.24941,-0.71645 -0.14602,0.41234 h 0.29105 z"
         style="fill:#717073;fill-opacity:1;fill-rule:nonzero;stroke:none;stroke-width:0.0895237" /><path
         id="path123-1"
         d="m 304.71757,126.24715 v -0.82863 h 0.12121 v 0.7281 h 0.3367 v 0.10053 z"
         style="fill:#717073;fill-opacity:1;fill-rule:nonzero;stroke:none;stroke-width:0.0895237" /><path
         id="path124-1"
         d="m 305.35568,126.24715 v -0.82863 h 0.50393 v 0.0965 h -0.3837 v 0.24413 h 0.35764 v 0.0978 h -0.35764 v 0.28961 h 0.39659 v 0.10053 z"
         style="fill:#717073;fill-opacity:1;fill-rule:nonzero;stroke:none;stroke-width:0.0895237" /><path
         id="path125"
         d="m 306.5333,126.19119 c -0.0482,0.0403 -0.11477,0.0678 -0.21271,0.0678 -0.14216,0 -0.2452,-0.0835 -0.28701,-0.12918 l 0.0679,-0.0835 c 0.0209,0.0221 0.10564,0.11091 0.21915,0.11091 0.11495,0 0.17493,-0.0536 0.17493,-0.1307 0,-0.0769 -0.0719,-0.10564 -0.10832,-0.1213 -0.0366,-0.0156 -0.13563,-0.0534 -0.16043,-0.0638 -0.025,-0.0106 -0.0614,-0.0287 -0.0927,-0.0575 -0.034,-0.0301 -0.0626,-0.0797 -0.0626,-0.15129 0,-0.0757 0.0353,-0.13447 0.0834,-0.17099 0.0469,-0.0352 0.10833,-0.0561 0.19185,-0.0561 0.14082,0 0.23232,0.0809 0.26114,0.11342 l -0.0589,0.0824 c -0.0286,-0.0327 -0.10967,-0.098 -0.20349,-0.098 -0.0951,0 -0.15667,0.0417 -0.15667,0.11763 0,0.0768 0.0586,0.10027 0.10564,0.11996 0.0354,0.0142 0.13993,0.0548 0.16186,0.0639 0.0312,0.013 0.0653,0.0299 0.0953,0.0587 0.0405,0.0391 0.0628,0.0861 0.0628,0.15022 0,0.0744 -0.0313,0.13572 -0.081,0.17752"
         style="fill:#717073;fill-opacity:1;fill-rule:nonzero;stroke:none;stroke-width:0.0895237" /><path
         id="path126-5"
         d="m 307.91445,126.24715 -0.0167,-0.68253 -0.24413,0.68253 h -0.10421 l -0.24288,-0.68253 -0.0169,0.68253 h -0.11513 l 0.0302,-0.82863 h 0.16195 l 0.23858,0.67725 0.23894,-0.67725 h 0.16168 l 0.03,0.82863 z"
         style="fill:#717073;fill-opacity:1;fill-rule:nonzero;stroke:none;stroke-width:0.0895237" /><path
         id="path127-9"
         d="m 308.29247,126.24715 v -0.82863 h 0.50384 v 0.0965 h -0.38388 v 0.24413 h 0.35774 v 0.0978 h -0.35774 v 0.28961 h 0.39677 v 0.10053 z"
         style="fill:#717073;fill-opacity:1;fill-rule:nonzero;stroke:none;stroke-width:0.0895237" /><path
         id="path128-8"
         d="m 309.32453,125.51504 v 0.73203 h -0.1214 v -0.73203 h -0.24797 v -0.0965 h 0.61851 v 0.0965 z"
         style="fill:#717073;fill-opacity:1;fill-rule:nonzero;stroke:none;stroke-width:0.0895237" /><path
         id="path129"
         d="m 310.19179,126.24715 -0.0731,-0.20742 h -0.3538 l -0.0731,0.20742 h -0.11996 l 0.30411,-0.82863 h 0.14082 l 0.30402,0.82863 z m -0.2495,-0.71645 -0.1461,0.41234 h 0.29113 z"
         style="fill:#717073;fill-opacity:1;fill-rule:nonzero;stroke:none;stroke-width:0.0895237" /><path
         id="path130"
         d="m 310.49349,126.24715 v -0.82863 h 0.12148 v 0.7281 h 0.33661 v 0.10053 z"
         style="fill:#717073;fill-opacity:1;fill-rule:nonzero;stroke:none;stroke-width:0.0895237" /><path
         id="path131"
         d="m 311.61079,125.41853 h 0.1214 v 0.50115 c 0,0.10439 -0.0115,0.18138 -0.0651,0.2453 -0.055,0.0637 -0.13213,0.094 -0.24807,0.094 -0.11602,0 -0.19453,-0.0303 -0.24789,-0.094 -0.0536,-0.0639 -0.0665,-0.14091 -0.0665,-0.2453 v -0.50115 h 0.12131 v 0.50885 c 0,0.0849 0.008,0.12014 0.0365,0.15927 0.03,0.0391 0.0783,0.0639 0.15524,0.0639 0.0783,0 0.12659,-0.0248 0.15667,-0.0639 0.0301,-0.0391 0.0364,-0.0744 0.0364,-0.15927 z m -0.1658,-0.0705 h -0.086 l 0.0876,-0.16588 h 0.12237 z"
         style="fill:#717073;fill-opacity:1;fill-rule:nonzero;stroke:none;stroke-width:0.0895237" /><path
         id="path132"
         d="m 312.45506,126.24715 -0.2153,-0.34063 h -0.12265 v 0.34063 h -0.1213 v -0.82863 h 0.27009 c 0.0782,0 0.14736,0.0197 0.1957,0.0587 0.0522,0.0404 0.0861,0.10438 0.0861,0.18272 0,0.12775 -0.0887,0.20465 -0.18281,0.23079 l 0.2325,0.35639 z m -0.0875,-0.70338 c -0.034,-0.0234 -0.0691,-0.0299 -0.12533,-0.0299 h -0.12516 v 0.29874 h 0.12516 c 0.0562,0 0.0913,-0.007 0.12533,-0.0301 0.0338,-0.0234 0.0589,-0.0677 0.0589,-0.12005 0,-0.0509 -0.0251,-0.0952 -0.0589,-0.1187"
         style="fill:#717073;fill-opacity:1;fill-rule:nonzero;stroke:none;stroke-width:0.0895237" /><path
         id="path133"
         d="m 313.3669,126.24715 -0.0131,-0.0954 c 0,0 -0.0755,0.10725 -0.25827,0.10725 -0.20761,0 -0.36785,-0.16061 -0.36785,-0.42819 0,-0.26741 0.18119,-0.42408 0.38996,-0.42408 0.20877,0 0.29758,0.14351 0.30295,0.15023 l -0.0774,0.0716 c -0.009,-0.009 -0.069,-0.11737 -0.223,-0.11737 -0.15273,0 -0.26759,0.12247 -0.26759,0.3196 0,0.19713 0.10582,0.32094 0.26248,0.32094 0.15774,0 0.21772,-0.0992 0.21772,-0.0992 v -0.14073 h -0.20089 v -0.0941 h 0.31737 v 0.42944 z"
         style="fill:#717073;fill-opacity:1;fill-rule:nonzero;stroke:none;stroke-width:0.0895237" /><path
         id="path134"
         d="m 313.70433,125.41856 h 0.12112 v 0.82864 h -0.12112 z"
         style="fill:#717073;fill-opacity:1;fill-rule:nonzero;stroke:none;stroke-width:0.0895237" /><path
         id="path135"
         d="m 314.66648,125.63762 c 0,0 -0.0625,-0.12525 -0.22318,-0.12525 -0.15899,0 -0.26875,0.12928 -0.26875,0.31844 0,0.18925 0.10439,0.31861 0.26499,0.31861 0.16043,0 0.23357,-0.1281 0.23357,-0.1281 l 0.0704,0.0783 c 0,0 -0.0861,0.15917 -0.30931,0.15917 -0.223,0 -0.38486,-0.15917 -0.38486,-0.42658 0,-0.26758 0.17994,-0.4255 0.39023,-0.4255 0.2102,0 0.2948,0.1435 0.30009,0.15398 z"
         style="fill:#717073;fill-opacity:1;fill-rule:nonzero;stroke:none;stroke-width:0.0895237" /><path
         id="path136"
         d="m 315.27365,126.25895 c -0.24136,0 -0.39784,-0.17636 -0.39784,-0.42694 0,-0.24896 0.15648,-0.42533 0.39784,-0.42533 0.24127,0 0.39668,0.17637 0.39668,0.42533 0,0.25058 -0.15541,0.42694 -0.39668,0.42694 m 0,-0.75048 c -0.16965,0 -0.27269,0.13581 -0.27269,0.32229 0,0.18791 0.10304,0.32371 0.27269,0.32371 0.16839,0 0.27143,-0.1358 0.27143,-0.32246 0,-0.18773 -0.10304,-0.32354 -0.27143,-0.32354"
         style="fill:#717073;fill-opacity:1;fill-rule:nonzero;stroke:none;stroke-width:0.0895237" /><path
         id="path137"
         d="m 316.31035,126.19119 c -0.0483,0.0403 -0.11495,0.0678 -0.2128,0.0678 -0.14208,0 -0.24539,-0.0835 -0.28701,-0.12918 l 0.0679,-0.0835 c 0.0207,0.0221 0.10554,0.11091 0.21915,0.11091 0.11477,0 0.17484,-0.0536 0.17484,-0.1307 0,-0.0769 -0.0717,-0.10564 -0.10824,-0.1213 -0.0366,-0.0156 -0.1358,-0.0534 -0.1606,-0.0638 -0.0247,-0.0106 -0.0613,-0.0287 -0.0924,-0.0575 -0.034,-0.0301 -0.063,-0.0797 -0.063,-0.15129 0,-0.0757 0.0355,-0.13447 0.0836,-0.17099 0.0471,-0.0352 0.10841,-0.0561 0.19194,-0.0561 0.14082,0 0.23213,0.0809 0.26105,0.11342 l -0.0589,0.0824 c -0.0286,-0.0327 -0.10948,-0.098 -0.20331,-0.098 -0.0953,0 -0.15675,0.0417 -0.15675,0.11763 0,0.0768 0.0587,0.10027 0.10564,0.11996 0.0354,0.0142 0.13965,0.0548 0.16195,0.0639 0.0311,0.013 0.0652,0.0299 0.0951,0.0587 0.0405,0.0391 0.0628,0.0861 0.0628,0.15022 0,0.0744 -0.0314,0.13572 -0.0809,0.17752"
         style="fill:#717073;fill-opacity:1;fill-rule:nonzero;stroke:none;stroke-width:0.0895237" /><path
         id="path138"
         d="m 288.68059,127.3932 c -0.0679,0.0652 -0.1581,0.10188 -0.28593,0.10188 h -0.27269 v -0.82872 h 0.27269 c 0.12783,0 0.21673,0.0366 0.28593,0.10179 0.0677,0.0654 0.12256,0.16965 0.12256,0.3119 0,0.1436 -0.0534,0.24789 -0.12256,0.31315 m -0.0875,-0.55334 c -0.0522,-0.0523 -0.11754,-0.0769 -0.19981,-0.0769 h -0.1513 v 0.63293 h 0.1513 c 0.0809,0 0.14762,-0.0236 0.19981,-0.0758 0.0522,-0.052 0.0849,-0.13822 0.0849,-0.24001 0,-0.10179 -0.0327,-0.18791 -0.0849,-0.24019"
         style="fill:#717073;fill-opacity:1;fill-rule:nonzero;stroke:none;stroke-width:0.0895237" /><path
         id="path139"
         d="m 289.0258,127.49505 v -0.82863 h 0.50375 v 0.0965 h -0.38379 v 0.24395 h 0.35756 v 0.0981 h -0.35756 v 0.28952 h 0.39686 v 0.10053 z"
         style="fill:#717073;fill-opacity:1;fill-rule:nonzero;stroke:none;stroke-width:0.0895237" /><path
         id="path140"
         d="m 290.06227,127.49505 v -0.82863 h 0.12139 v 0.7281 h 0.33679 v 0.10053 z"
         style="fill:#717073;fill-opacity:1;fill-rule:nonzero;stroke:none;stroke-width:0.0895237" /><path
         id="path141"
         d="m 291.26612,127.49505 -0.0731,-0.20742 h -0.3538 l -0.0731,0.20742 h -0.11996 l 0.30402,-0.82863 h 0.141 l 0.30402,0.82863 z m -0.24933,-0.71654 -0.1461,0.41243 h 0.29104 z"
         style="fill:#717073;fill-opacity:1;fill-rule:nonzero;stroke:none;stroke-width:0.0895237" /><path
         id="path142"
         d="m 292.3835,127.49505 -0.21521,-0.34063 h -0.12274 v 0.34063 h -0.1213 v -0.82863 h 0.27018 c 0.0782,0 0.14736,0.0196 0.1957,0.0587 0.0522,0.0405 0.0862,0.10438 0.0862,0.18263 0,0.12793 -0.0889,0.20483 -0.18281,0.23106 l 0.23232,0.35621 z m -0.0875,-0.70329 c -0.0339,-0.0236 -0.0692,-0.03 -0.12515,-0.03 h -0.12533 v 0.29874 h 0.12533 c 0.0559,0 0.0912,-0.007 0.12515,-0.03 0.034,-0.0236 0.0588,-0.0679 0.0588,-0.12014 0,-0.0509 -0.0248,-0.0953 -0.0588,-0.11862"
         style="fill:#717073;fill-opacity:1;fill-rule:nonzero;stroke:none;stroke-width:0.0895237" /><path
         id="path143"
         d="m 292.71633,127.49505 v -0.82863 h 0.50357 v 0.0965 h -0.3837 v 0.24395 h 0.35765 v 0.0981 h -0.35765 v 0.28952 h 0.39677 v 0.10053 z"
         style="fill:#717073;fill-opacity:1;fill-rule:nonzero;stroke:none;stroke-width:0.0895237" /><path
         id="path144"
         d="m 293.90462,127.12437 c -0.0549,0.0431 -0.13196,0.0628 -0.20761,0.0628 h -0.13312 v 0.30796 h -0.1213 v -0.82872 h 0.25442 c 0.0784,0 0.15273,0.0183 0.20761,0.0627 0.0547,0.0431 0.0835,0.10823 0.0835,0.19704 0,0.0886 -0.0288,0.15532 -0.0835,0.19829 m -0.0954,-0.32891 c -0.0312,-0.022 -0.0665,-0.0339 -0.13545,-0.0339 h -0.10985 v 0.33017 h 0.10985 c 0.0638,0 0.10018,-0.009 0.1342,-0.0337 0.0353,-0.0263 0.0588,-0.0656 0.0588,-0.13195 0,-0.0652 -0.0236,-0.10582 -0.0576,-0.13062"
         style="fill:#717073;fill-opacity:1;fill-rule:nonzero;stroke:none;stroke-width:0.0895237" /><path
         id="path145"
         d="m 294.68724,126.66635 h 0.1214 v 0.50116 c 0,0.10447 -0.0117,0.18137 -0.0653,0.24538 -0.055,0.0639 -0.13187,0.0939 -0.24798,0.0939 -0.11611,0 -0.19453,-0.03 -0.2478,-0.0939 -0.0536,-0.064 -0.0667,-0.14091 -0.0667,-0.24538 v -0.50116 h 0.1214 v 0.50894 c 0,0.0849 0.008,0.12006 0.0364,0.15927 0.0301,0.0391 0.0783,0.0639 0.15532,0.0639 0.0783,0 0.12658,-0.0248 0.15649,-0.0639 0.0301,-0.0392 0.0367,-0.0744 0.0367,-0.15927 z m -0.1658,-0.0704 h -0.086 l 0.0874,-0.16589 h 0.12273 z"
         style="fill:#717073;fill-opacity:1;fill-rule:nonzero;stroke:none;stroke-width:0.0895237" /><path
         id="path146"
         d="m 295.56539,127.44278 c -0.0564,0.0379 -0.13313,0.0523 -0.22193,0.0523 h -0.27153 v -0.82872 h 0.25317 c 0.0693,0 0.14897,0.005 0.19705,0.0379 0.047,0.0326 0.085,0.0822 0.085,0.1632 0,0.0794 -0.0497,0.15398 -0.14494,0.17878 v 0.004 c 0.11997,0.0169 0.19704,0.0954 0.19704,0.20752 0,0.0848 -0.0393,0.14745 -0.0939,0.18522 m -0.13447,-0.66292 c -0.0287,-0.0155 -0.0718,-0.0181 -0.11611,-0.0181 h -0.12283 v 0.25433 h 0.12283 c 0.0443,0 0.0886,-0.005 0.11611,-0.0248 0.0275,-0.0183 0.0548,-0.0508 0.0548,-0.10581 0,-0.0532 -0.0261,-0.0887 -0.0548,-0.10564 m 0.0416,0.3538 c -0.0273,-0.0184 -0.0691,-0.0277 -0.12515,-0.0277 h -0.15542 v 0.29516 h 0.15542 c 0.056,0 0.0978,-0.0105 0.12515,-0.0288 0.03,-0.0183 0.0614,-0.0574 0.0614,-0.1187 0,-0.0627 -0.0314,-0.10036 -0.0614,-0.11996"
         style="fill:#717073;fill-opacity:1;fill-rule:nonzero;stroke:none;stroke-width:0.0895237" /><path
         id="path147"
         d="m 295.87797,127.49505 v -0.82863 h 0.12131 v 0.7281 h 0.33661 v 0.10053 z"
         style="fill:#717073;fill-opacity:1;fill-rule:nonzero;stroke:none;stroke-width:0.0895237" /><path
         id="path148"
         d="m 296.51624,126.66634 h 0.1214 v 0.82855 h -0.1214 z"
         style="fill:#717073;fill-opacity:1;fill-rule:nonzero;stroke:none;stroke-width:0.0895237" /><path
         id="path149"
         d="m 297.47848,126.88561 c 0,0 -0.0624,-0.12524 -0.22292,-0.12524 -0.15926,0 -0.26875,0.129 -0.26875,0.31834 0,0.18935 0.10421,0.31844 0.26482,0.31844 0.16051,0 0.23348,-0.12802 0.23348,-0.12802 l 0.0705,0.0783 c 0,0 -0.0859,0.15936 -0.30931,0.15936 -0.22309,0 -0.38486,-0.15936 -0.38486,-0.42676 0,-0.2675 0.17986,-0.42551 0.39024,-0.42551 0.21011,0 0.2948,0.1436 0.29999,0.15407 z"
         style="fill:#717073;fill-opacity:1;fill-rule:nonzero;stroke:none;stroke-width:0.0895237" /><path
         id="path150"
         d="m 298.28559,127.49505 -0.0731,-0.20742 h -0.3538 l -0.0731,0.20742 h -0.11996 l 0.30411,-0.82863 h 0.14091 l 0.30393,0.82863 z m -0.24942,-0.71654 -0.14601,0.41243 h 0.29095 z"
         style="fill:#717073;fill-opacity:1;fill-rule:nonzero;stroke:none;stroke-width:0.0895237" /><path
         id="path151"
         d="m 299.45262,127.49505 -0.0729,-0.20742 h -0.35379 l -0.073,0.20742 h -0.12023 l 0.30429,-0.82863 h 0.14074 l 0.30402,0.82863 z m -0.24914,-0.71654 -0.14601,0.41243 h 0.29077 z"
         style="fill:#717073;fill-opacity:1;fill-rule:nonzero;stroke:none;stroke-width:0.0895237" /><path
         id="path152"
         d="m 300.21402,127.49505 -0.21549,-0.34063 h -0.12247 v 0.34063 h -0.12139 v -0.82863 h 0.27009 c 0.0784,0 0.14745,0.0196 0.1957,0.0587 0.0523,0.0405 0.0861,0.10438 0.0861,0.18263 0,0.12793 -0.0886,0.20483 -0.18262,0.23106 l 0.23231,0.35621 z m -0.0874,-0.70329 c -0.034,-0.0236 -0.0693,-0.03 -0.12524,-0.03 h -0.12534 v 0.29874 h 0.12534 c 0.056,0 0.0912,-0.007 0.12524,-0.03 0.0337,-0.0236 0.0586,-0.0679 0.0586,-0.12014 0,-0.0509 -0.025,-0.0953 -0.0586,-0.11862"
         style="fill:#717073;fill-opacity:1;fill-rule:nonzero;stroke:none;stroke-width:0.0895237" /><path
         id="path153"
         d="m 301.12578,127.49505 -0.013,-0.0953 c 0,0 -0.0756,0.10707 -0.25846,0.10707 -0.20743,0 -0.36785,-0.16052 -0.36785,-0.4281 0,-0.2675 0.18119,-0.42416 0.38996,-0.42416 0.20886,0 0.29776,0.14359 0.30304,0.15022 l -0.0772,0.0717 c -0.009,-0.009 -0.0692,-0.11746 -0.22309,-0.11746 -0.15273,0 -0.26759,0.12265 -0.26759,0.31969 0,0.19713 0.10573,0.32103 0.26231,0.32103 0.15783,0 0.21799,-0.0993 0.21799,-0.0993 v -0.14082 h -0.20099 v -0.0939 h 0.3171 v 0.42935 z"
         style="fill:#717073;fill-opacity:1;fill-rule:nonzero;stroke:none;stroke-width:0.0895237" /><path
         id="path154"
         d="m 301.46131,127.49505 v -0.82863 h 0.50384 v 0.0965 h -0.38361 v 0.24395 h 0.3572 v 0.0981 h -0.3572 v 0.28952 h 0.3965 v 0.10053 z"
         style="fill:#717073;fill-opacity:1;fill-rule:nonzero;stroke:none;stroke-width:0.0895237" /><path
         id="path155"
         d="m 302.72802,127.49505 -0.4281,-0.66552 v 0.66552 h -0.112 v -0.82863 h 0.13447 l 0.40688,0.63401 v -0.63401 h 0.11343 v 0.82863 z"
         style="fill:#717073;fill-opacity:1;fill-rule:nonzero;stroke:none;stroke-width:0.0895237" /><path
         id="path156"
         d="m 303.39175,126.76296 v 0.73194 h -0.12121 v -0.73194 h -0.24762 v -0.0966 h 0.61833 v 0.0966 z"
         style="fill:#717073;fill-opacity:1;fill-rule:nonzero;stroke:none;stroke-width:0.0895237" /><path
         id="path157"
         d="m 303.81958,126.66634 h 0.12139 v 0.82855 h -0.12139 z"
         style="fill:#717073;fill-opacity:1;fill-rule:nonzero;stroke:none;stroke-width:0.0895237" /><path
         id="path158"
         d="m 304.74991,127.49505 -0.42792,-0.66552 v 0.66552 h -0.11218 v -0.82863 h 0.13447 l 0.40715,0.63401 v -0.63401 h 0.11343 v 0.82863 z"
         style="fill:#717073;fill-opacity:1;fill-rule:nonzero;stroke:none;stroke-width:0.0895237" /><path
         id="path159"
         d="m 305.65747,127.49505 -0.0731,-0.20742 h -0.35353 l -0.073,0.20742 h -0.12023 l 0.30411,-0.82863 h 0.14091 l 0.30402,0.82863 z m -0.24915,-0.71654 -0.14645,0.41243 h 0.29121 z"
         style="fill:#717073;fill-opacity:1;fill-rule:nonzero;stroke:none;stroke-width:0.0895237" /><path
         id="path160"
         d="m 290.18248,119.38565 h 1.01412 l 2.14042,5.03311 h -1.14859 l -0.45639,-1.12066 h -2.11338 l -0.45639,1.12066 h -1.12182 z m 1.15619,2.9405 -0.66363,-1.62011 -0.66355,1.62011 z"
         style="fill:#0065a4;fill-opacity:1;fill-rule:nonzero;stroke:none;stroke-width:0.0895237" /><path
         id="path161"
         d="m 293.7087,119.38706 h 1.96244 c 1.58117,0 2.67344,1.08547 2.67344,2.50128 v 0.0142 c 0,1.41582 -1.09227,2.51597 -2.67344,2.51597 h -1.96244 z m 1.96244,4.03223 c 0.90544,0 1.51653,-0.61199 1.51653,-1.50212 v -0.0146 c 0,-0.89112 -0.61109,-1.51626 -1.51653,-1.51626 h -0.85504 v 3.03297 z"
         style="fill:#0065a4;fill-opacity:1;fill-rule:nonzero;stroke:none;stroke-width:0.0895237" /><path
         id="path162"
         d="m 298.91852,119.38691 h 1.10714 v 5.03168 h -1.10714 z"
         style="fill:#0065a4;fill-opacity:1;fill-rule:nonzero;stroke:none;stroke-width:0.0895237" /><path
         id="path163"
         d="m 300.73341,119.38706 h 1.19407 l 1.32226,2.12726 1.32244,-2.12726 h 1.19264 v 5.03149 h -1.09873 v -3.28471 l -1.41635,2.14857 h -0.0286 l -1.40203,-2.12753 v 3.26367 h -1.08574 z"
         style="fill:#0065a4;fill-opacity:1;fill-rule:nonzero;stroke:none;stroke-width:0.0895237" /><path
         id="path164"
         d="m 306.48041,119.38706 h 2.30049 c 0.63991,0 1.13543,0.17994 1.46747,0.50983 0.2794,0.28066 0.43097,0.67653 0.43097,1.15092 v 0.0135 c 0,0.81306 -0.43948,1.32307 -1.0793,1.56013 l 1.22943,1.7971 h -1.2938 l -1.07795,-1.61125 h -0.0143 -0.85522 v 1.61125 h -1.10776 z m 2.22869,2.44372 c 0.53938,0 0.84797,-0.28755 0.84797,-0.71153 v -0.0148 c 0,-0.47421 -0.33061,-0.71816 -0.86928,-0.71816 h -1.09962 v 1.44446 z"
         style="fill:#0065a4;fill-opacity:1;fill-rule:nonzero;stroke:none;stroke-width:0.0895237" /><path
         id="path165"
         d="m 313.15673,119.38748 h 1.01332 l 2.14078,5.03105 h -1.14921 l -0.45604,-1.12003 H 312.593 l -0.45674,1.12003 h -1.12021 z m 1.15575,2.93951 -0.66355,-1.61966 -0.66336,1.61966 z"
         style="fill:#0065a4;fill-opacity:1;fill-rule:nonzero;stroke:none;stroke-width:0.0895237" /></g></g></svg>
