<?xml version="1.0" encoding="UTF-8" standalone="no"?>
<!-- Created with Inkscape (http://www.inkscape.org/) -->

<svg
   width="82.063591mm"
   height="19.53565mm"
   viewBox="0 0 82.063594 19.535651"
   version="1.1"
   id="svg1"
   xml:space="preserve"
   inkscape:export-filename="organizadores.png"
   inkscape:export-xdpi="300"
   inkscape:export-ydpi="300"
   inkscape:version="1.4.3 (fcd0343856, 2026-01-01)"
   sodipodi:docname="organizadores.svg"
   xmlns:inkscape="http://www.inkscape.org/namespaces/inkscape"
   xmlns:sodipodi="http://sodipodi.sourceforge.net/DTD/sodipodi-0.dtd"
   xmlns="http://www.w3.org/2000/svg"
   xmlns:svg="http://www.w3.org/2000/svg"><sodipodi:namedview
     id="namedview1"
     pagecolor="#ffffff"
     bordercolor="#000000"
     borderopacity="0.25"
     inkscape:showpageshadow="2"
     inkscape:pageopacity="0.0"
     inkscape:pagecheckerboard="0"
     inkscape:deskcolor="#d1d1d1"
     inkscape:document-units="mm"
     inkscape:zoom="2.6478692"
     inkscape:cx="2241.8026"
     inkscape:cy="141.05682"
     inkscape:window-width="1920"
     inkscape:window-height="1043"
     inkscape:window-x="0"
     inkscape:window-y="0"
     inkscape:window-maximized="1"
     inkscape:current-layer="layer1"><inkscape:page
       x="3.8783166e-16"
       y="6.6112399e-16"
       width="82.063599"
       height="19.535652"
       id="page1"
       margin="0"
       bleed="0" /></sodipodi:namedview><defs
     id="defs1" /><g
     inkscape:label="Layer 1"
     inkscape:groupmode="layer"
     id="layer1"
     transform="translate(-371.44865,-117.38438)"><g
       id="g4"
       transform="matrix(0.84160307,0,0,0.84160307,109.77702,58.820186)"><path
         id="path207"
         d="M 337.76033,92.798911 H 310.921 v -23.21243 h 26.83933 z"
         style="fill:#ffffff;fill-opacity:1;fill-rule:nonzero;stroke:none;stroke-width:0.352778" /><path
         id="path208"
         d="m 317.24193,69.586511 h -6.32143 v 22.38304 z"
         style="fill:#ec2e35;fill-opacity:1;fill-rule:nonzero;stroke:none;stroke-width:0.352778" /><path
         id="path209"
         d="m 324.80683,69.586511 h 5.69947 l -2.79788,10.15506 z"
         style="fill:#4fa8e2;fill-opacity:1;fill-rule:nonzero;stroke:none;stroke-width:0.352778" /><path
         id="path210"
         d="m 323.87408,92.798901 h -5.69948 l 2.79788,-10.15577 z"
         style="fill:#4fa8e2;fill-opacity:1;fill-rule:nonzero;stroke:none;stroke-width:0.352778" /><path
         id="path211"
         d="m 331.33547,92.798901 h 6.42479 v -22.69455 z"
         style="fill:#ec2e35;fill-opacity:1;fill-rule:nonzero;stroke:none;stroke-width:0.352778" /><path
         id="path212"
         d="m 343.43448,76.376461 c 0,-0.0487 0.0317,-0.0801 0.0801,-0.0801 h 0.29598 c 0.048,0 0.0801,0.0314 0.0801,0.0801 v 5.28496 c 0,0.0483 -0.0321,0.0801 -0.0801,0.0801 h -0.29598 c -0.0483,0 -0.0801,-0.0317 -0.0801,-0.0801 z"
         style="fill:#050606;fill-opacity:1;fill-rule:nonzero;stroke:none;stroke-width:0.352778" /><path
         id="path213"
         d="m 345.39628,76.376461 c 0,-0.0487 0.0317,-0.0801 0.0801,-0.0801 h 0.29633 c 0.0561,0 0.10407,0.0162 0.13617,0.0801 l 2.71463,4.4764 h 0.024 v -4.4764 c 0,-0.0487 0.0321,-0.0801 0.0801,-0.0801 h 0.29633 c 0.0476,0 0.0797,0.0314 0.0797,0.0801 v 5.28496 c 0,0.0483 -0.0321,0.0801 -0.0797,0.0801 h -0.31256 c -0.048,0 -0.096,-0.0155 -0.13582,-0.0801 l -2.69099,-4.48415 h -0.0317 v 4.48415 c 0,0.0483 -0.0321,0.0801 -0.0801,0.0801 h -0.29633 c -0.0483,0 -0.0801,-0.0317 -0.0801,-0.0801 z"
         style="fill:#050606;fill-opacity:1;fill-rule:nonzero;stroke:none;stroke-width:0.352778" /><path
         id="path214"
         d="m 350.6092,76.376461 c 0,-0.0487 0.0317,-0.0801 0.0801,-0.0801 h 0.29598 c 0.0568,0 0.10478,0.0162 0.13688,0.0801 l 2.71427,4.4764 h 0.024 v -4.4764 c 0,-0.0487 0.0321,-0.0801 0.0801,-0.0801 h 0.29634 c 0.048,0 0.0797,0.0314 0.0797,0.0801 v 5.28496 c 0,0.0483 -0.0317,0.0801 -0.0797,0.0801 h -0.31221 c -0.048,0 -0.096,-0.0155 -0.13617,-0.0801 l -2.69064,-4.48415 h -0.0321 v 4.48415 c 0,0.0483 -0.0317,0.0801 -0.0804,0.0801 h -0.29598 c -0.0483,0 -0.0801,-0.0317 -0.0801,-0.0801 z"
         style="fill:#050606;fill-opacity:1;fill-rule:nonzero;stroke:none;stroke-width:0.352778" /><path
         id="path215"
         d="m 357.56005,79.019191 c 0,-0.95321 0.0561,-1.31374 0.14429,-1.58538 0.27234,-0.81704 0.86466,-1.21779 1.72156,-1.21779 0.74471,0 1.32926,0.34466 1.64147,1.00965 0.0162,0.0395 0.0162,0.0797 -0.024,0.10371 l -0.26388,0.12771 c -0.0402,0.0243 -0.0804,0.008 -0.10442,-0.0314 -0.24836,-0.46461 -0.63253,-0.77752 -1.24919,-0.77752 -0.66463,0 -1.07315,0.31291 -1.28129,0.90558 -0.0716,0.21625 -0.11994,0.5521 -0.11994,1.46544 0,0.91299 0.0483,1.24919 0.11994,1.46544 0.20814,0.59231 0.61666,0.90452 1.28129,0.90452 0.61666,0 1.00083,-0.31221 1.24919,-0.77646 0.024,-0.0402 0.0642,-0.0565 0.10442,-0.0321 l 0.26388,0.12771 c 0.0402,0.0243 0.0402,0.0646 0.024,0.10407 -0.31221,0.66499 -0.89676,1.00965 -1.64147,1.00965 -0.8569,0 -1.44922,-0.40005 -1.72156,-1.21708 -0.0882,-0.2727 -0.14429,-0.63289 -0.14429,-1.58574"
         style="fill:#050606;fill-opacity:1;fill-rule:nonzero;stroke:none;stroke-width:0.352778" /><path
         id="path216"
         d="m 362.24469,76.376461 c 0,-0.0487 0.0317,-0.0801 0.0801,-0.0801 h 0.29634 c 0.0557,0 0.10407,0.0162 0.13652,0.0801 l 2.71427,4.4764 h 0.024 v -4.4764 c 0,-0.0487 0.0321,-0.0801 0.0801,-0.0801 h 0.29634 c 0.0476,0 0.0801,0.0314 0.0801,0.0801 v 5.28496 c 0,0.0483 -0.0324,0.0801 -0.0801,0.0801 h -0.31256 c -0.048,0 -0.096,-0.0155 -0.13582,-0.0801 l -2.69064,-4.48415 h -0.0321 v 4.48415 c 0,0.0483 -0.0321,0.0801 -0.0801,0.0801 h -0.29633 c -0.0483,0 -0.0801,-0.0317 -0.0801,-0.0801 z"
         style="fill:#050606;fill-opacity:1;fill-rule:nonzero;stroke:none;stroke-width:0.352778" /><path
         id="path217"
         d="m 367.4578,76.376461 c 0,-0.0487 0.0317,-0.0801 0.0801,-0.0801 h 3.11503 c 0.0483,0 0.0804,0.0314 0.0804,0.0801 v 0.27199 c 0,0.0483 -0.0321,0.0808 -0.0804,0.0808 h -2.69064 c -0.0321,0 -0.048,0.0155 -0.048,0.0476 v 1.93816 c 0,0.0317 0.0159,0.048 0.048,0.048 h 2.31457 c 0.0476,0 0.0797,0.0317 0.0797,0.0801 v 0.27199 c 0,0.048 -0.0321,0.0801 -0.0797,0.0801 h -2.31457 c -0.0321,0 -0.048,0.0166 -0.048,0.0483 v 2.01789 c 0,0.0321 0.0159,0.0476 0.048,0.0476 h 2.69064 c 0.0483,0 0.0804,0.0321 0.0804,0.0801 v 0.27234 c 0,0.0483 -0.0321,0.0801 -0.0804,0.0801 h -3.11503 c -0.0483,0 -0.0801,-0.0317 -0.0801,-0.0801 z"
         style="fill:#050606;fill-opacity:1;fill-rule:nonzero;stroke:none;stroke-width:0.352778" /><path
         id="path218"
         d="m 374.57675,79.883921 -1.01671,-2.85115 h -0.0243 l -1.02482,2.85115 z m -1.26506,-3.50732 c 0.0159,-0.0487 0.048,-0.0804 0.096,-0.0804 h 0.28822 c 0.0561,0 0.0801,0.0317 0.0963,0.0804 l 1.88983,5.28497 c 0.0159,0.0483 -0.008,0.0801 -0.0561,0.0801 h -0.31221 c -0.0561,0 -0.0882,-0.0155 -0.10407,-0.0801 l -0.48084,-1.33774 h -2.37031 l -0.48048,1.33774 c -0.024,0.0646 -0.0561,0.0801 -0.10407,0.0801 h -0.31221 c -0.048,0 -0.072,-0.0317 -0.0557,-0.0801 z"
         style="fill:#050606;fill-opacity:1;fill-rule:nonzero;stroke:none;stroke-width:0.352778" /><path
         id="path219"
         d="m 376.22644,79.731301 v -0.2473 c 0,-0.0483 0.0317,-0.0808 0.0801,-0.0808 h 2.04999 c 0.048,0 0.0801,0.0325 0.0801,0.0808 v 0.2473 c 0,0.0487 -0.0321,0.0808 -0.0801,0.0808 h -2.04999 c -0.0483,0 -0.0801,-0.0321 -0.0801,-0.0808"
         style="fill:#050606;fill-opacity:1;fill-rule:nonzero;stroke:none;stroke-width:0.352778" /><path
         id="path220"
         d="m 379.34958,79.019191 c 0,-0.95321 0.0561,-1.31374 0.14394,-1.58538 0.27269,-0.81704 0.865,-1.21779 1.7219,-1.21779 0.74471,0 1.32927,0.34466 1.64148,1.00965 0.0162,0.0395 0.0162,0.0797 -0.024,0.10371 l -0.26423,0.12771 c -0.0399,0.0243 -0.0801,0.008 -0.10407,-0.0314 -0.24836,-0.46461 -0.63253,-0.77752 -1.24919,-0.77752 -0.66463,0 -1.07314,0.31291 -1.28128,0.90558 -0.072,0.21625 -0.11995,0.5521 -0.11995,1.46544 0,0.91299 0.048,1.24919 0.11995,1.46544 0.20814,0.59231 0.61665,0.90452 1.28128,0.90452 0.61666,0 1.00083,-0.31221 1.24919,-0.77646 0.024,-0.0402 0.0642,-0.0565 0.10407,-0.0321 l 0.26423,0.12771 c 0.0402,0.0243 0.0402,0.0646 0.024,0.10407 -0.31221,0.66499 -0.89677,1.00965 -1.64148,1.00965 -0.8569,0 -1.44921,-0.40005 -1.7219,-1.21708 -0.0878,-0.2727 -0.14394,-0.63289 -0.14394,-1.58574"
         style="fill:#050606;fill-opacity:1;fill-rule:nonzero;stroke:none;stroke-width:0.352778" /><path
         id="path221"
         d="m 387.03714,77.569481 c -0.20002,-0.60007 -0.64064,-0.9211 -1.31304,-0.9211 -0.68086,0 -1.12113,0.32103 -1.3215,0.9211 -0.0723,0.21625 -0.13618,0.56868 -0.13618,1.44956 0,0.88054 0.0639,1.23331 0.13618,1.44957 0.20037,0.60043 0.64064,0.92039 1.3215,0.92039 0.6724,0 1.11302,-0.31996 1.31304,-0.92039 0.0723,-0.21626 0.13617,-0.56903 0.13617,-1.44957 0,-0.88088 -0.0639,-1.23331 -0.13617,-1.44956 m -3.07481,3.02754 c -0.096,-0.28857 -0.16016,-0.641 -0.16016,-1.57798 0,-0.93662 0.0642,-1.28905 0.16016,-1.57797 0.26388,-0.80045 0.87277,-1.2252 1.76177,-1.2252 0.88089,0 1.48908,0.42475 1.75366,1.2252 0.0959,0.28892 0.15945,0.64135 0.15945,1.57797 0,0.93698 -0.0635,1.28941 -0.15945,1.57798 -0.26458,0.8008 -0.87277,1.2252 -1.75366,1.2252 -0.889,0 -1.49789,-0.4244 -1.76177,-1.2252"
         style="fill:#050606;fill-opacity:1;fill-rule:nonzero;stroke:none;stroke-width:0.352778" /><path
         id="path222"
         d="m 388.91109,76.376461 c 0,-0.0487 0.0318,-0.0801 0.0801,-0.0801 h 0.29598 c 0.0564,0 0.10442,0.0162 0.13653,0.0801 l 2.71462,4.4764 h 0.0236 v -4.4764 c 0,-0.0487 0.0324,-0.0801 0.0804,-0.0801 h 0.29598 c 0.0483,0 0.0801,0.0314 0.0801,0.0801 v 5.28496 c 0,0.0483 -0.0318,0.0801 -0.0801,0.0801 h -0.31221 c -0.048,0 -0.0963,-0.0155 -0.13582,-0.0801 l -2.69063,-4.48415 h -0.0321 v 4.48415 c 0,0.0483 -0.0325,0.0801 -0.0804,0.0801 h -0.29598 c -0.0483,0 -0.0801,-0.0317 -0.0801,-0.0801 z"
         style="fill:#050606;fill-opacity:1;fill-rule:nonzero;stroke:none;stroke-width:0.352778" /><path
         id="path223"
         d="m 394.12423,76.376461 c 0,-0.0487 0.0318,-0.0801 0.0797,-0.0801 h 0.29668 c 0.048,0 0.0801,0.0314 0.0801,0.0801 v 5.28496 c 0,0.0483 -0.0321,0.0801 -0.0801,0.0801 h -0.29668 c -0.048,0 -0.0797,-0.0317 -0.0797,-0.0801 z"
         style="fill:#050606;fill-opacity:1;fill-rule:nonzero;stroke:none;stroke-width:0.352778" /><path
         id="path224"
         d="m 395.85383,79.019191 c 0,-0.95321 0.0561,-1.31374 0.14393,-1.58538 0.2727,-0.81704 0.86501,-1.21779 1.72191,-1.21779 0.74472,0 1.32962,0.34466 1.64148,1.00965 0.0162,0.0395 0.0162,0.0797 -0.024,0.10371 l -0.26423,0.12771 c -0.0399,0.0243 -0.0804,0.008 -0.10372,-0.0314 -0.24871,-0.46461 -0.63253,-0.77752 -1.24954,-0.77752 -0.66428,0 -1.07315,0.31291 -1.28129,0.90558 -0.072,0.21625 -0.12029,0.5521 -0.12029,1.46544 0,0.91299 0.0483,1.24919 0.12029,1.46544 0.20814,0.59231 0.61701,0.90452 1.28129,0.90452 0.61701,0 1.00083,-0.31221 1.24954,-0.77646 0.0233,-0.0402 0.0638,-0.0565 0.10372,-0.0321 l 0.26423,0.12771 c 0.0402,0.0243 0.0402,0.0646 0.024,0.10407 -0.31186,0.66499 -0.89676,1.00965 -1.64148,1.00965 -0.8569,0 -1.44921,-0.40005 -1.72191,-1.21708 -0.0878,-0.2727 -0.14393,-0.63289 -0.14393,-1.58574"
         style="fill:#050606;fill-opacity:1;fill-rule:nonzero;stroke:none;stroke-width:0.352778" /><path
         id="path225"
         d="m 400.53812,76.376461 c 0,-0.0487 0.0325,-0.0801 0.0804,-0.0801 h 3.11538 c 0.048,0 0.0797,0.0314 0.0797,0.0801 v 0.27199 c 0,0.0483 -0.0318,0.0808 -0.0797,0.0808 h -2.69063 c -0.0321,0 -0.048,0.0155 -0.048,0.0476 v 1.93816 c 0,0.0317 0.0159,0.048 0.048,0.048 h 2.31387 c 0.048,0 0.0801,0.0317 0.0801,0.0801 v 0.27199 c 0,0.048 -0.0321,0.0801 -0.0801,0.0801 h -2.31387 c -0.0321,0 -0.048,0.0166 -0.048,0.0483 v 2.01789 c 0,0.0321 0.0159,0.0476 0.048,0.0476 h 2.69063 c 0.048,0 0.0797,0.0321 0.0797,0.0801 v 0.27234 c 0,0.0483 -0.0318,0.0801 -0.0797,0.0801 h -3.11538 c -0.048,0 -0.0804,-0.0317 -0.0804,-0.0801 z"
         style="fill:#050606;fill-opacity:1;fill-rule:nonzero;stroke:none;stroke-width:0.352778" /><path
         id="path226"
         d="m 406.19188,81.741501 c -0.048,0 -0.0797,-0.0317 -0.0797,-0.0801 v -4.88456 c 0,-0.0321 -0.0166,-0.0476 -0.0483,-0.0476 h -1.56915 c -0.048,0 -0.0804,-0.0324 -0.0804,-0.0811 v -0.27163 c 0,-0.0487 0.0325,-0.0801 0.0804,-0.0801 h 3.69146 c 0.0487,0 0.0801,0.0314 0.0801,0.0801 v 0.27163 c 0,0.0487 -0.0314,0.0811 -0.0801,0.0811 h -1.56951 c -0.0321,0 -0.0487,0.0155 -0.0487,0.0476 v 4.88456 c 0,0.0483 -0.0314,0.0801 -0.0797,0.0801 z"
         style="fill:#050606;fill-opacity:1;fill-rule:nonzero;stroke:none;stroke-width:0.352778" /><path
         id="path227"
         d="m 343.60759,83.968411 c 0,-0.0233 0.0155,-0.0395 0.0388,-0.0395 h 0.14499 c 0.0236,0 0.0395,0.0162 0.0395,0.0395 v 2.58339 c 0,0.024 -0.0159,0.0392 -0.0395,0.0392 h -0.14499 c -0.0233,0 -0.0388,-0.0152 -0.0388,-0.0392 z"
         style="fill:#50aae3;fill-opacity:1;fill-rule:nonzero;stroke:none;stroke-width:0.352778" /><path
         id="path228"
         d="m 345.70944,86.590821 c -0.0236,0 -0.0392,-0.0152 -0.0392,-0.0388 v -1.10384 c 0,-0.37253 -0.1644,-0.55986 -0.48931,-0.55986 -0.28575,0 -0.5087,0.19544 -0.5087,0.52 v 1.1437 c 0,0.0236 -0.0155,0.0388 -0.0392,0.0388 h -0.133 c -0.0236,0 -0.0395,-0.0152 -0.0395,-0.0388 v -1.78928 c 0,-0.0229 0.0159,-0.0392 0.0395,-0.0392 h 0.133 c 0.0236,0 0.0392,0.0162 0.0392,0.0392 v 0.2233 h 0.004 c 0.0938,-0.18379 0.28998,-0.30162 0.55174,-0.30162 0.41558,0 0.65405,0.25859 0.65405,0.71226 v 1.15534 c 0,0.0236 -0.0159,0.0388 -0.0392,0.0388 z"
         style="fill:#50aae3;fill-opacity:1;fill-rule:nonzero;stroke:none;stroke-width:0.352778" /><path
         id="path229"
         d="m 346.33558,86.367581 c -0.0159,-0.0152 -0.0159,-0.0392 0,-0.0543 l 0.0857,-0.0981 c 0.0162,-0.0162 0.0395,-0.012 0.0547,0 0.14535,0.11712 0.35278,0.21837 0.60748,0.21837 0.32421,0 0.48507,-0.14429 0.48507,-0.35913 0,-0.18768 -0.0826,-0.28998 -0.42686,-0.32949 l -0.18803,-0.0187 c -0.34819,-0.036 -0.54398,-0.20461 -0.54398,-0.49777 0,-0.34008 0.24659,-0.54434 0.65758,-0.54434 0.25435,0 0.47378,0.0825 0.6223,0.18063 0.0198,0.0159 0.0198,0.0392 0.008,0.0547 l -0.0702,0.0938 c -0.012,0.0197 -0.0353,0.0236 -0.055,0.0116 -0.12136,-0.0702 -0.32103,-0.14429 -0.51718,-0.14429 -0.28575,0 -0.43391,0.12524 -0.43391,0.33232 0,0.1838 0.11324,0.28152 0.43074,0.31291 l 0.18768,0.0201 c 0.36371,0.0353 0.5401,0.21096 0.5401,0.50095 0,0.3563 -0.25047,0.58278 -0.71649,0.58278 -0.33655,0 -0.58314,-0.14005 -0.72778,-0.26211"
         style="fill:#50aae3;fill-opacity:1;fill-rule:nonzero;stroke:none;stroke-width:0.352778" /><path
         id="path230"
         d="m 348.8009,86.602881 c -0.35207,0 -0.48542,-0.13723 -0.48542,-0.50518 v -1.16275 c 0,-0.0155 -0.008,-0.0229 -0.0229,-0.0229 h -0.19615 c -0.0233,0 -0.0392,-0.0162 -0.0392,-0.0392 v -0.11007 c 0,-0.0229 0.0159,-0.0392 0.0392,-0.0392 h 0.19615 c 0.0152,0 0.0229,-0.007 0.0229,-0.0236 v -0.53587 c 0,-0.0233 0.0159,-0.0395 0.0392,-0.0395 h 0.13335 c 0.0233,0 0.0392,0.0162 0.0392,0.0395 v 0.53587 c 0,0.0162 0.008,0.0236 0.0233,0.0236 h 0.35242 c 0.0233,0 0.0392,0.0162 0.0392,0.0392 v 0.11007 c 0,0.0229 -0.0159,0.0392 -0.0392,0.0392 h -0.35242 c -0.0155,0 -0.0233,0.007 -0.0233,0.0229 v 1.15076 c 0,0.25047 0.0861,0.31362 0.30127,0.31362 h 0.0744 c 0.0233,0 0.0392,0.0152 0.0392,0.0388 v 0.12559 c 0,0.0229 -0.0159,0.0392 -0.0392,0.0392 z"
         style="fill:#50aae3;fill-opacity:1;fill-rule:nonzero;stroke:none;stroke-width:0.352778" /><path
         id="path231"
         d="m 349.42306,86.590821 c -0.0233,0 -0.0392,-0.0152 -0.0392,-0.0388 v -1.78928 c 0,-0.0229 0.0159,-0.0392 0.0392,-0.0392 h 0.13335 c 0.0236,0 0.0392,0.0162 0.0392,0.0392 v 1.78928 c 0,0.0236 -0.0155,0.0388 -0.0392,0.0388 z m -0.0194,-2.36396 c -0.0233,0 -0.0388,-0.0159 -0.0388,-0.0395 v -0.21908 c 0,-0.0233 0.0155,-0.0395 0.0388,-0.0395 h 0.17215 c 0.0236,0 0.0395,0.0162 0.0395,0.0395 v 0.21908 c 0,0.0236 -0.0159,0.0395 -0.0395,0.0395 z"
         style="fill:#50aae3;fill-opacity:1;fill-rule:nonzero;stroke:none;stroke-width:0.352778" /><path
         id="path232"
         d="m 350.75373,86.602881 c -0.35207,0 -0.48542,-0.13723 -0.48542,-0.50518 v -1.16275 c 0,-0.0155 -0.008,-0.0229 -0.0233,-0.0229 h -0.19579 c -0.0233,0 -0.0392,-0.0162 -0.0392,-0.0392 v -0.11007 c 0,-0.0229 0.0159,-0.0392 0.0392,-0.0392 h 0.19579 c 0.0155,0 0.0233,-0.007 0.0233,-0.0236 v -0.53587 c 0,-0.0233 0.0159,-0.0395 0.0392,-0.0395 h 0.13335 c 0.0233,0 0.0392,0.0162 0.0392,0.0395 v 0.53587 c 0,0.0162 0.008,0.0236 0.0236,0.0236 h 0.35207 c 0.024,0 0.0392,0.0162 0.0392,0.0392 v 0.11007 c 0,0.0229 -0.0152,0.0392 -0.0392,0.0392 h -0.35207 c -0.0155,0 -0.0236,0.007 -0.0236,0.0229 v 1.15076 c 0,0.25047 0.0861,0.31362 0.30163,0.31362 h 0.0741 c 0.024,0 0.0392,0.0152 0.0392,0.0388 v 0.12559 c 0,0.0229 -0.0152,0.0392 -0.0392,0.0392 z"
         style="fill:#50aae3;fill-opacity:1;fill-rule:nonzero;stroke:none;stroke-width:0.352778" /><path
         id="path233"
         d="m 352.53883,86.590821 c -0.0236,0 -0.0395,-0.0152 -0.0395,-0.0388 v -0.21942 h -0.004 c -0.0942,0.18379 -0.28963,0.29704 -0.54399,0.29704 -0.41557,0 -0.64629,-0.25824 -0.64629,-0.70803 v -1.15887 c 0,-0.0229 0.0159,-0.0392 0.0392,-0.0392 h 0.13335 c 0.0233,0 0.0392,0.0162 0.0392,0.0392 v 1.10384 c 0,0.37571 0.15664,0.5595 0.48154,0.5595 0.28187,0 0.5006,-0.19508 0.5006,-0.51999 v -1.14335 c 0,-0.0229 0.0159,-0.0392 0.0395,-0.0392 h 0.13299 c 0.0236,0 0.0395,0.0162 0.0395,0.0392 v 1.78928 c 0,0.0236 -0.0159,0.0388 -0.0395,0.0388 z"
         style="fill:#50aae3;fill-opacity:1;fill-rule:nonzero;stroke:none;stroke-width:0.352778" /><path
         id="path234"
         d="m 353.86898,86.602881 c -0.35208,0 -0.48507,-0.13723 -0.48507,-0.50518 v -1.16275 c 0,-0.0155 -0.008,-0.0229 -0.0236,-0.0229 h -0.19579 c -0.0233,0 -0.0388,-0.0162 -0.0388,-0.0392 v -0.11007 c 0,-0.0229 0.0155,-0.0392 0.0388,-0.0392 h 0.19579 c 0.0155,0 0.0236,-0.007 0.0236,-0.0236 v -0.53587 c 0,-0.0233 0.0155,-0.0395 0.0388,-0.0395 h 0.13335 c 0.0233,0 0.0392,0.0162 0.0392,0.0395 v 0.53587 c 0,0.0162 0.008,0.0236 0.0233,0.0236 h 0.35242 c 0.0236,0 0.0392,0.0162 0.0392,0.0392 v 0.11007 c 0,0.0229 -0.0155,0.0392 -0.0392,0.0392 h -0.35242 c -0.0152,0 -0.0233,0.007 -0.0233,0.0229 v 1.15076 c 0,0.25047 0.0861,0.31362 0.30162,0.31362 h 0.0741 c 0.0236,0 0.0392,0.0152 0.0392,0.0388 v 0.12559 c 0,0.0229 -0.0155,0.0392 -0.0392,0.0392 z"
         style="fill:#50aae3;fill-opacity:1;fill-rule:nonzero;stroke:none;stroke-width:0.352778" /><path
         id="path235"
         d="m 355.5834,86.078201 c 0.0356,-0.10548 0.0512,-0.21907 0.0512,-0.42298 0,-0.19932 -0.0155,-0.31291 -0.0512,-0.41875 -0.0744,-0.22331 -0.2547,-0.34819 -0.49706,-0.34819 -0.23883,0 -0.4191,0.12488 -0.49318,0.34819 -0.0353,0.10584 -0.0508,0.21943 -0.0508,0.41875 0,0.20391 0.0155,0.3175 0.0508,0.42298 0.0741,0.22296 0.25435,0.34784 0.49318,0.34784 0.24236,0 0.42263,-0.12488 0.49706,-0.34784 m -1.19415,0.0663 c -0.0392,-0.12488 -0.0628,-0.26211 -0.0628,-0.4893 0,-0.2226 0.0236,-0.35983 0.0628,-0.48507 0.10195,-0.30939 0.35631,-0.48577 0.69709,-0.48577 0.34431,0 0.59902,0.17638 0.70097,0.48577 0.0385,0.12524 0.0621,0.26247 0.0621,0.48507 0,0.22719 -0.0236,0.36442 -0.0621,0.4893 -0.10195,0.30939 -0.35666,0.48507 -0.70097,0.48507 -0.34078,0 -0.59514,-0.17568 -0.69709,-0.48507"
         style="fill:#50aae3;fill-opacity:1;fill-rule:nonzero;stroke:none;stroke-width:0.352778" /><path
         id="path236"
         d="m 358.30745,86.097811 c 0.0353,-0.10231 0.0508,-0.2353 0.0508,-0.4385 0,-0.2032 -0.0155,-0.34043 -0.0508,-0.44203 -0.0709,-0.21908 -0.24271,-0.32914 -0.47766,-0.32914 -0.24271,0 -0.40711,0.11747 -0.47731,0.32914 -0.0395,0.11677 -0.0512,0.27375 -0.0512,0.44203 0,0.16474 0.0116,0.32103 0.0512,0.4385 0.0702,0.21131 0.2346,0.32844 0.47731,0.32844 0.23495,0 0.40675,-0.10901 0.47766,-0.32844 m 0.09,0.49283 c -0.0236,0 -0.0392,-0.0152 -0.0392,-0.0388 v -0.22754 h -0.004 c -0.09,0.17639 -0.25859,0.30551 -0.56762,0.30551 -0.32879,0 -0.54046,-0.14817 -0.63394,-0.44627 -0.0512,-0.15169 -0.0667,-0.31679 -0.0667,-0.52422 0,-0.21132 0.0155,-0.37606 0.0667,-0.52811 0.0935,-0.2981 0.30515,-0.44697 0.63394,-0.44697 0.30903,0 0.47766,0.12912 0.56762,0.30586 h 0.004 v -1.02165 c 0,-0.0236 0.0155,-0.0395 0.0392,-0.0395 h 0.133 c 0.0236,0 0.0388,0.0159 0.0388,0.0395 v 2.58339 c 0,0.0236 -0.0152,0.0388 -0.0388,0.0388 z"
         style="fill:#50aae3;fill-opacity:1;fill-rule:nonzero;stroke:none;stroke-width:0.352778" /><path
         id="path237"
         d="m 360.32678,85.525921 c 0.0155,0 0.0236,-0.007 0.0236,-0.0229 0,-0.11359 -0.0116,-0.19544 -0.0353,-0.27023 -0.0748,-0.23036 -0.25435,-0.35207 -0.50129,-0.35207 -0.24272,0 -0.42298,0.12171 -0.49672,0.35207 -0.024,0.0748 -0.0356,0.15664 -0.0356,0.27023 0,0.0155 0.008,0.0229 0.0236,0.0229 z m -1.20544,0.61101 c -0.0353,-0.11395 -0.0547,-0.24236 -0.0547,-0.48189 0,-0.2346 0.0194,-0.37148 0.0547,-0.48507 0.1016,-0.31292 0.35631,-0.48578 0.6925,-0.48578 0.33691,0 0.59514,0.17286 0.69674,0.48578 0.0395,0.11747 0.055,0.23848 0.055,0.49706 0,0.0233 -0.0155,0.0395 -0.043,0.0395 h -1.21744 c -0.0155,0 -0.0236,0.012 -0.0236,0.0275 0,0.15628 0.0116,0.24271 0.0392,0.32843 0.0864,0.2466 0.27411,0.36513 0.52846,0.36513 0.24272,0 0.41134,-0.10336 0.5207,-0.23989 0.0159,-0.0198 0.0353,-0.024 0.0547,-0.008 l 0.09,0.0822 c 0.0198,0.0159 0.0198,0.0356 0.004,0.055 -0.13723,0.18344 -0.37218,0.31256 -0.68121,0.31256 -0.36407,0 -0.61066,-0.1718 -0.71614,-0.49283"
         style="fill:#50aae3;fill-opacity:1;fill-rule:nonzero;stroke:none;stroke-width:0.352778" /><path
         id="path238"
         d="m 361.931,83.968411 c 0,-0.0233 0.0155,-0.0395 0.0392,-0.0395 h 0.14464 c 0.0279,0 0.0512,0.008 0.067,0.0395 l 1.3268,2.18863 h 0.012 v -2.18863 c 0,-0.0233 0.0155,-0.0395 0.0385,-0.0395 h 0.14499 c 0.0236,0 0.0395,0.0162 0.0395,0.0395 v 2.58339 c 0,0.024 -0.0159,0.0392 -0.0395,0.0392 h -0.1524 c -0.0236,0 -0.0469,-0.008 -0.0667,-0.0392 l -1.31515,-2.19216 h -0.0155 v 2.19216 c 0,0.024 -0.0159,0.0392 -0.0395,0.0392 h -0.14464 c -0.0236,0 -0.0392,-0.0152 -0.0392,-0.0392 z"
         style="fill:#50aae3;fill-opacity:1;fill-rule:nonzero;stroke:none;stroke-width:0.352778" /><path
         id="path239"
         d="m 365.47706,86.015481 v -0.28575 c 0,-0.0152 -0.007,-0.0233 -0.0233,-0.0233 h -0.44627 c -0.37218,0 -0.52846,0.121 -0.52846,0.36794 0,0.2346 0.16404,0.35984 0.46179,0.35984 0.32103,0 0.53622,-0.16404 0.53622,-0.41875 m -0.95533,-0.99446 c -0.019,0.0162 -0.0427,0.0162 -0.0586,-0.004 l -0.0667,-0.0974 c -0.012,-0.0197 -0.007,-0.0392 0.012,-0.055 0.133,-0.11289 0.33232,-0.18027 0.59514,-0.18027 0.48542,0 0.68121,0.16051 0.68121,0.61912 v 1.24848 c 0,0.0236 -0.0159,0.0388 -0.0395,0.0388 h -0.12523 c -0.0233,0 -0.0392,-0.0152 -0.0392,-0.0388 v -0.19579 h -0.004 c -0.0744,0.15628 -0.27376,0.27341 -0.57962,0.27341 -0.3757,0 -0.62582,-0.18733 -0.62582,-0.5514 0,-0.37182 0.25435,-0.55245 0.70837,-0.55245 h 0.47379 c 0.0159,0 0.0233,-0.007 0.0233,-0.0229 v -0.19155 c 0,-0.30551 -0.10549,-0.43075 -0.48543,-0.43075 -0.22719,0 -0.35983,0.0504 -0.4699,0.14041"
         style="fill:#50aae3;fill-opacity:1;fill-rule:nonzero;stroke:none;stroke-width:0.352778" /><path
         id="path240"
         d="m 367.5317,86.590821 c -0.0233,0 -0.0392,-0.0152 -0.0392,-0.0388 v -1.10384 c 0,-0.37253 -0.16439,-0.55986 -0.48895,-0.55986 -0.28645,0 -0.50905,0.19544 -0.50905,0.52 v 1.1437 c 0,0.0236 -0.0159,0.0388 -0.0392,0.0388 h -0.13335 c -0.0233,0 -0.0392,-0.0152 -0.0392,-0.0388 v -1.78928 c 0,-0.0229 0.0159,-0.0392 0.0392,-0.0392 h 0.13335 c 0.0233,0 0.0392,0.0162 0.0392,0.0392 v 0.2233 h 0.004 c 0.0945,-0.18379 0.28998,-0.30162 0.55209,-0.30162 0.41522,0 0.6537,0.25859 0.6537,0.71226 v 1.15534 c 0,0.0236 -0.0155,0.0388 -0.0392,0.0388 z"
         style="fill:#50aae3;fill-opacity:1;fill-rule:nonzero;stroke:none;stroke-width:0.352778" /><path
         id="path241"
         d="m 369.43374,86.078201 c 0.0353,-0.10548 0.0505,-0.21907 0.0505,-0.42298 0,-0.19932 -0.0152,-0.31291 -0.0505,-0.41875 -0.0741,-0.22331 -0.25435,-0.34819 -0.49706,-0.34819 -0.23883,0 -0.4191,0.12488 -0.49354,0.34819 -0.0349,0.10584 -0.0508,0.21943 -0.0508,0.41875 0,0.20391 0.0159,0.3175 0.0508,0.42298 0.0744,0.22296 0.25471,0.34784 0.49354,0.34784 0.24271,0 0.42298,-0.12488 0.49706,-0.34784 m -1.1938,0.0663 c -0.0395,-0.12488 -0.0628,-0.26211 -0.0628,-0.4893 0,-0.2226 0.0233,-0.35983 0.0628,-0.48507 0.1016,-0.30939 0.3556,-0.48577 0.69674,-0.48577 0.34466,0 0.59901,0.17638 0.70097,0.48577 0.0385,0.12524 0.0621,0.26247 0.0621,0.48507 0,0.22719 -0.0236,0.36442 -0.0621,0.4893 -0.10196,0.30939 -0.35631,0.48507 -0.70097,0.48507 -0.34114,0 -0.59514,-0.17568 -0.69674,-0.48507"
         style="fill:#50aae3;fill-opacity:1;fill-rule:nonzero;stroke:none;stroke-width:0.352778" /><path
         id="path242"
         d="m 370.12981,85.170081 c 0.0977,-0.30515 0.35242,-0.48577 0.69709,-0.48577 0.29386,0 0.49318,0.12558 0.63006,0.35277 0.0116,0.0194 0.008,0.0385 -0.0116,0.0508 l -0.11007,0.0706 c -0.0194,0.0116 -0.0384,0.004 -0.0504,-0.0159 -0.10936,-0.17215 -0.23883,-0.25435 -0.4579,-0.25435 -0.24272,0 -0.41558,0.12171 -0.48966,0.35243 -0.0349,0.1016 -0.0505,0.22718 -0.0505,0.41874 0,0.19227 0.0155,0.31327 0.0505,0.41487 0.0741,0.23107 0.24694,0.35172 0.48966,0.35172 0.21907,0 0.34854,-0.0819 0.4579,-0.254 0.012,-0.0191 0.031,-0.0268 0.0504,-0.0148 l 0.11007,0.0702 c 0.0198,0.0113 0.0233,0.0307 0.0116,0.0508 -0.13688,0.22614 -0.3362,0.35172 -0.63006,0.35172 -0.34467,0 -0.59937,-0.17956 -0.69709,-0.48471 -0.0353,-0.11748 -0.0582,-0.26247 -0.0582,-0.48578 0,-0.22295 0.0229,-0.37183 0.0582,-0.4893"
         style="fill:#50aae3;fill-opacity:1;fill-rule:nonzero;stroke:none;stroke-width:0.352778" /><path
         id="path243"
         d="m 371.97741,86.590821 c -0.0233,0 -0.0392,-0.0152 -0.0392,-0.0388 v -1.78928 c 0,-0.0229 0.0159,-0.0392 0.0392,-0.0392 h 0.133 c 0.0236,0 0.0388,0.0162 0.0388,0.0392 v 1.78928 c 0,0.0236 -0.0152,0.0388 -0.0388,0.0388 z m -0.0201,-2.36396 c -0.0229,0 -0.0384,-0.0159 -0.0384,-0.0395 v -0.21908 c 0,-0.0233 0.0155,-0.0395 0.0384,-0.0395 h 0.17251 c 0.0236,0 0.0392,0.0162 0.0392,0.0395 v 0.21908 c 0,0.0236 -0.0155,0.0395 -0.0392,0.0395 z"
         style="fill:#50aae3;fill-opacity:1;fill-rule:nonzero;stroke:none;stroke-width:0.352778" /><path
         id="path244"
         d="m 373.90704,85.525921 c 0.0155,0 0.0233,-0.007 0.0233,-0.0229 0,-0.11359 -0.0113,-0.19544 -0.0353,-0.27023 -0.0741,-0.23036 -0.254,-0.35207 -0.50095,-0.35207 -0.24271,0 -0.42298,0.12171 -0.49706,0.35207 -0.0236,0.0748 -0.0353,0.15664 -0.0353,0.27023 0,0.0155 0.008,0.0229 0.0236,0.0229 z m -1.20545,0.61101 c -0.0353,-0.11395 -0.055,-0.24236 -0.055,-0.48189 0,-0.2346 0.0198,-0.37148 0.055,-0.48507 0.10125,-0.31292 0.35596,-0.48578 0.69251,-0.48578 0.33655,0 0.59513,0.17286 0.69673,0.48578 0.0392,0.11747 0.0547,0.23848 0.0547,0.49706 0,0.0233 -0.0155,0.0395 -0.043,0.0395 h -1.21708 c -0.0155,0 -0.0236,0.012 -0.0236,0.0275 0,0.15628 0.0116,0.24271 0.0392,0.32843 0.0864,0.2466 0.27411,0.36513 0.52846,0.36513 0.24271,0 0.41134,-0.10336 0.5207,-0.23989 0.0159,-0.0198 0.0353,-0.024 0.0547,-0.008 l 0.09,0.0822 c 0.0198,0.0159 0.0198,0.0356 0.004,0.055 -0.13688,0.18344 -0.37183,0.31256 -0.68086,0.31256 -0.36407,0 -0.61066,-0.1718 -0.71614,-0.49283"
         style="fill:#50aae3;fill-opacity:1;fill-rule:nonzero;stroke:none;stroke-width:0.352778" /><path
         id="path245"
         d="m 375.88725,86.590821 c -0.0233,0 -0.0392,-0.0152 -0.0392,-0.0388 v -1.10384 c 0,-0.37253 -0.1644,-0.55986 -0.48895,-0.55986 -0.28611,0 -0.50906,0.19544 -0.50906,0.52 v 1.1437 c 0,0.0236 -0.0159,0.0388 -0.0392,0.0388 h -0.13335 c -0.0236,0 -0.0392,-0.0152 -0.0392,-0.0388 v -1.78928 c 0,-0.0229 0.0155,-0.0392 0.0392,-0.0392 h 0.13335 c 0.0233,0 0.0392,0.0162 0.0392,0.0392 v 0.2233 h 0.004 c 0.0942,-0.18379 0.28998,-0.30162 0.55209,-0.30162 0.41522,0 0.65405,0.25859 0.65405,0.71226 v 1.15534 c 0,0.0236 -0.0159,0.0388 -0.0395,0.0388 z"
         style="fill:#50aae3;fill-opacity:1;fill-rule:nonzero;stroke:none;stroke-width:0.352778" /><path
         id="path246"
         d="m 376.59143,85.170081 c 0.0977,-0.30515 0.35242,-0.48577 0.69673,-0.48577 0.29387,0 0.49354,0.12558 0.63006,0.35277 0.012,0.0194 0.008,0.0385 -0.0113,0.0508 l -0.10971,0.0706 c -0.0197,0.0116 -0.0392,0.004 -0.0512,-0.0159 -0.10936,-0.17215 -0.23848,-0.25435 -0.45791,-0.25435 -0.24271,0 -0.41451,0.12171 -0.4893,0.35243 -0.0349,0.1016 -0.0508,0.22718 -0.0508,0.41874 0,0.19227 0.0159,0.31327 0.0508,0.41487 0.0748,0.23107 0.24659,0.35172 0.4893,0.35172 0.21943,0 0.34855,-0.0819 0.45791,-0.254 0.012,-0.0191 0.0314,-0.0268 0.0512,-0.0148 l 0.10971,0.0702 c 0.0194,0.0113 0.0233,0.0307 0.0113,0.0508 -0.13652,0.22614 -0.33619,0.35172 -0.63006,0.35172 -0.34431,0 -0.59901,-0.17956 -0.69673,-0.48471 -0.0353,-0.11748 -0.0589,-0.26247 -0.0589,-0.48578 0,-0.22295 0.0236,-0.37183 0.0589,-0.4893"
         style="fill:#50aae3;fill-opacity:1;fill-rule:nonzero;stroke:none;stroke-width:0.352778" /><path
         id="path247"
         d="m 378.43871,86.590821 c -0.0233,0 -0.0392,-0.0152 -0.0392,-0.0388 v -1.78928 c 0,-0.0229 0.0159,-0.0392 0.0392,-0.0392 h 0.133 c 0.0236,0 0.0395,0.0162 0.0395,0.0392 v 1.78928 c 0,0.0236 -0.0159,0.0388 -0.0395,0.0388 z m -0.0194,-2.36396 c -0.0236,0 -0.0395,-0.0159 -0.0395,-0.0395 v -0.21908 c 0,-0.0233 0.0159,-0.0395 0.0395,-0.0395 h 0.17216 c 0.0233,0 0.0392,0.0162 0.0392,0.0395 v 0.21908 c 0,0.0236 -0.0159,0.0395 -0.0392,0.0395 z"
         style="fill:#50aae3;fill-opacity:1;fill-rule:nonzero;stroke:none;stroke-width:0.352778" /><path
         id="path248"
         d="m 380.33711,86.015481 v -0.28575 c 0,-0.0152 -0.008,-0.0233 -0.0233,-0.0233 h -0.44697 c -0.37147,0 -0.52811,0.121 -0.52811,0.36794 0,0.2346 0.1644,0.35984 0.46214,0.35984 0.32103,0 0.53622,-0.16404 0.53622,-0.41875 m -0.95532,-0.99448 c -0.0194,0.0162 -0.043,0.0162 -0.0586,-0.004 l -0.067,-0.0974 c -0.0113,-0.0197 -0.007,-0.0392 0.0124,-0.055 0.133,-0.11289 0.33267,-0.18027 0.59514,-0.18027 0.48541,0 0.6805,0.16051 0.6805,0.61912 v 1.24848 c 0,0.0236 -0.0152,0.0388 -0.0388,0.0388 h -0.12558 c -0.0229,0 -0.0388,-0.0152 -0.0388,-0.0388 v -0.19579 h -0.004 c -0.0744,0.15628 -0.2741,0.27341 -0.57961,0.27341 -0.37571,0 -0.62583,-0.18733 -0.62583,-0.5514 0,-0.37182 0.25436,-0.55245 0.70838,-0.55245 h 0.47378 c 0.0152,0 0.0233,-0.007 0.0233,-0.0229 v -0.19155 c 0,-0.30551 -0.10547,-0.43075 -0.48542,-0.43075 -0.22718,0 -0.36053,0.0504 -0.4699,0.14041"
         style="fill:#50aae3;fill-opacity:1;fill-rule:nonzero;stroke:none;stroke-width:0.352778" /><path
         id="path249"
         d="m 381.96871,87.295671 c -0.0233,0 -0.0392,-0.0159 -0.0392,-0.0395 v -0.12524 c 0,-0.0233 0.0159,-0.0392 0.0392,-0.0392 h 0.0706 c 0.16051,0 0.24623,-0.0667 0.35242,-0.34783 l 0.0741,-0.19192 -0.68897,-1.78928 c -0.008,-0.0229 0,-0.0392 0.0279,-0.0392 h 0.14817 c 0.0279,0 0.0392,0.012 0.0515,0.0392 l 0.56727,1.4986 h 0.004 l 0.55209,-1.4986 c 0.008,-0.0272 0.0236,-0.0392 0.0466,-0.0392 h 0.14887 c 0.0236,0 0.0356,0.0162 0.0275,0.0392 l -0.76341,2.00836 c -0.16016,0.43074 -0.29351,0.52458 -0.53622,0.52458 z"
         style="fill:#50aae3;fill-opacity:1;fill-rule:nonzero;stroke:none;stroke-width:0.352778" /><path
         id="path250"
         d="m 384.61041,83.968411 c 0,-0.0233 0.0155,-0.0395 0.0392,-0.0395 h 0.14464 c 0.0279,0 0.0512,0.008 0.0667,0.0395 l 1.32715,2.18863 h 0.012 v -2.18863 c 0,-0.0233 0.0152,-0.0395 0.0388,-0.0395 h 0.14464 c 0.0236,0 0.0395,0.0162 0.0395,0.0395 v 2.58339 c 0,0.024 -0.0159,0.0392 -0.0395,0.0392 h -0.15275 c -0.0233,0 -0.0469,-0.008 -0.0667,-0.0392 l -1.3148,-2.19216 h -0.0155 v 2.19216 c 0,0.024 -0.0159,0.0392 -0.0395,0.0392 h -0.14464 c -0.0236,0 -0.0392,-0.0152 -0.0392,-0.0392 z"
         style="fill:#50aae3;fill-opacity:1;fill-rule:nonzero;stroke:none;stroke-width:0.352778" /><path
         id="path251"
         d="m 388.15629,86.015481 v -0.28575 c 0,-0.0152 -0.008,-0.0233 -0.0233,-0.0233 h -0.44662 c -0.37183,0 -0.52846,0.121 -0.52846,0.36794 0,0.2346 0.16439,0.35984 0.46214,0.35984 0.32103,0 0.53622,-0.16404 0.53622,-0.41875 m -0.95532,-0.99448 c -0.0191,0.0162 -0.043,0.0162 -0.0586,-0.004 l -0.0667,-0.0974 c -0.0116,-0.0197 -0.008,-0.0392 0.012,-0.055 0.13264,-0.11289 0.33267,-0.18027 0.59513,-0.18027 0.48542,0 0.68086,0.16051 0.68086,0.61912 v 1.24848 c 0,0.0236 -0.0159,0.0388 -0.0388,0.0388 h -0.12559 c -0.0233,0 -0.0392,-0.0152 -0.0392,-0.0388 v -0.19579 h -0.004 c -0.0741,0.15628 -0.27376,0.27341 -0.57961,0.27341 -0.37571,0 -0.62583,-0.18733 -0.62583,-0.5514 0,-0.37182 0.25435,-0.55245 0.70838,-0.55245 h 0.47378 c 0.0155,0 0.0233,-0.007 0.0233,-0.0229 v -0.19155 c 0,-0.30551 -0.10548,-0.43075 -0.48542,-0.43075 -0.22684,0 -0.35984,0.0504 -0.4699,0.14041"
         style="fill:#50aae3;fill-opacity:1;fill-rule:nonzero;stroke:none;stroke-width:0.352778" /><path
         id="path252"
         d="m 390.21129,86.590821 c -0.024,0 -0.0392,-0.0152 -0.0392,-0.0388 v -1.10384 c 0,-0.37253 -0.16439,-0.55986 -0.48965,-0.55986 -0.2854,0 -0.50871,0.19544 -0.50871,0.52 v 1.1437 c 0,0.0236 -0.0155,0.0388 -0.0388,0.0388 h -0.13335 c -0.0236,0 -0.0392,-0.0152 -0.0392,-0.0388 v -1.78928 c 0,-0.0229 0.0155,-0.0392 0.0392,-0.0392 h 0.13335 c 0.0233,0 0.0388,0.0162 0.0388,0.0392 v 0.2233 h 0.004 c 0.0938,-0.18379 0.28963,-0.30162 0.5514,-0.30162 0.41557,0 0.6544,0.25859 0.6544,0.71226 v 1.15534 c 0,0.0236 -0.0159,0.0388 -0.0399,0.0388 z"
         style="fill:#50aae3;fill-opacity:1;fill-rule:nonzero;stroke:none;stroke-width:0.352778" /><path
         id="path253"
         d="m 392.11315,86.078201 c 0.0353,-0.10548 0.0508,-0.21907 0.0508,-0.42298 0,-0.19932 -0.0155,-0.31291 -0.0508,-0.41875 -0.0744,-0.22331 -0.25471,-0.34819 -0.49706,-0.34819 -0.23883,0 -0.4191,0.12488 -0.49319,0.34819 -0.0353,0.10584 -0.0512,0.21943 -0.0512,0.41875 0,0.20391 0.0159,0.3175 0.0512,0.42298 0.0741,0.22296 0.25436,0.34784 0.49319,0.34784 0.24235,0 0.42262,-0.12488 0.49706,-0.34784 m -1.19415,0.0663 c -0.0388,-0.12488 -0.0628,-0.26211 -0.0628,-0.4893 0,-0.2226 0.024,-0.35983 0.0628,-0.48507 0.10195,-0.30939 0.3563,-0.48577 0.69709,-0.48577 0.34431,0 0.59901,0.17638 0.70061,0.48577 0.0388,0.12524 0.0628,0.26247 0.0628,0.48507 0,0.22719 -0.024,0.36442 -0.0628,0.4893 -0.1016,0.30939 -0.3563,0.48507 -0.70061,0.48507 -0.34079,0 -0.59514,-0.17568 -0.69709,-0.48507"
         style="fill:#50aae3;fill-opacity:1;fill-rule:nonzero;stroke:none;stroke-width:0.352778" /><path
         id="path254"
         d="m 393.41211,86.602881 c -0.35207,0 -0.48542,-0.13723 -0.48542,-0.50518 v -1.16275 c 0,-0.0155 -0.007,-0.0229 -0.0229,-0.0229 h -0.19615 c -0.0233,0 -0.0392,-0.0162 -0.0392,-0.0392 v -0.11007 c 0,-0.0229 0.0159,-0.0392 0.0392,-0.0392 h 0.19615 c 0.0155,0 0.0229,-0.007 0.0229,-0.0236 v -0.53587 c 0,-0.0233 0.0155,-0.0395 0.0388,-0.0395 h 0.13371 c 0.0233,0 0.0392,0.0162 0.0392,0.0395 v 0.53587 c 0,0.0162 0.008,0.0236 0.0233,0.0236 h 0.35242 c 0.0233,0 0.0388,0.0162 0.0388,0.0392 v 0.11007 c 0,0.0229 -0.0155,0.0392 -0.0388,0.0392 h -0.35242 c -0.0155,0 -0.0233,0.007 -0.0233,0.0229 v 1.15076 c 0,0.25047 0.0861,0.31362 0.30128,0.31362 h 0.0744 c 0.0233,0 0.0388,0.0152 0.0388,0.0388 v 0.12559 c 0,0.0229 -0.0155,0.0392 -0.0388,0.0392 z"
         style="fill:#50aae3;fill-opacity:1;fill-rule:nonzero;stroke:none;stroke-width:0.352778" /><path
         id="path255"
         d="m 395.1307,85.525921 c 0.0152,0 0.0233,-0.007 0.0233,-0.0229 0,-0.11359 -0.0113,-0.19544 -0.0353,-0.27023 -0.0741,-0.23036 -0.25436,-0.35207 -0.50095,-0.35207 -0.24306,0 -0.42298,0.12171 -0.49706,0.35207 -0.024,0.0748 -0.0356,0.15664 -0.0356,0.27023 0,0.0155 0.008,0.0229 0.024,0.0229 z m -1.20579,0.61101 c -0.0353,-0.11395 -0.0547,-0.24236 -0.0547,-0.48189 0,-0.2346 0.0194,-0.37148 0.0547,-0.48507 0.1016,-0.31292 0.35595,-0.48578 0.69285,-0.48578 0.33655,0 0.59478,0.17286 0.69674,0.48578 0.0392,0.11747 0.055,0.23848 0.055,0.49706 0,0.0233 -0.0159,0.0395 -0.0434,0.0395 h -1.21708 c -0.0159,0 -0.024,0.012 -0.024,0.0275 0,0.15628 0.0116,0.24271 0.0392,0.32843 0.0861,0.2466 0.2741,0.36513 0.52881,0.36513 0.24271,0 0.41099,-0.10336 0.52035,-0.23989 0.0159,-0.0198 0.0356,-0.024 0.055,-0.008 l 0.09,0.0822 c 0.0198,0.0159 0.0198,0.0356 0.004,0.055 -0.13723,0.18344 -0.37218,0.31256 -0.68122,0.31256 -0.36406,0 -0.6103,-0.1718 -0.71613,-0.49283"
         style="fill:#50aae3;fill-opacity:1;fill-rule:nonzero;stroke:none;stroke-width:0.352778" /><path
         id="path256"
         d="m 395.79544,85.170081 c 0.0977,-0.30515 0.35242,-0.48577 0.69638,-0.48577 0.29387,0 0.49389,0.12558 0.63077,0.35277 0.0116,0.0194 0.008,0.0385 -0.0116,0.0508 l -0.11007,0.0706 c -0.0194,0.0116 -0.0388,0.004 -0.0504,-0.0159 -0.10971,-0.17215 -0.23883,-0.25435 -0.45861,-0.25435 -0.242,0 -0.41381,0.12171 -0.48895,0.35243 -0.0349,0.1016 -0.0504,0.22718 -0.0504,0.41874 0,0.19227 0.0155,0.31327 0.0504,0.41487 0.0751,0.23107 0.24695,0.35172 0.48895,0.35172 0.21978,0 0.3489,-0.0819 0.45861,-0.254 0.0117,-0.0191 0.031,-0.0268 0.0504,-0.0148 l 0.11007,0.0702 c 0.0194,0.0113 0.0233,0.0307 0.0116,0.0508 -0.13688,0.22614 -0.3369,0.35172 -0.63077,0.35172 -0.34396,0 -0.59866,-0.17956 -0.69638,-0.48471 -0.0353,-0.11748 -0.0586,-0.26247 -0.0586,-0.48578 0,-0.22295 0.0233,-0.37183 0.0586,-0.4893"
         style="fill:#50aae3;fill-opacity:1;fill-rule:nonzero;stroke:none;stroke-width:0.352778" /><path
         id="path257"
         d="m 398.85209,86.590821 c -0.0233,0 -0.0388,-0.0152 -0.0388,-0.0388 v -1.10384 c 0,-0.37253 -0.16474,-0.55986 -0.48965,-0.55986 -0.28575,0 -0.50871,0.19544 -0.50871,0.52 v 1.1437 c 0,0.0236 -0.0155,0.0388 -0.0388,0.0388 h -0.133 c -0.0243,0 -0.0392,-0.0152 -0.0392,-0.0388 v -1.78928 c 0,-0.0229 0.0148,-0.0392 0.0392,-0.0392 h 0.133 c 0.0233,0 0.0388,0.0162 0.0388,0.0392 v 0.2233 h 0.004 c 0.0938,-0.18379 0.28999,-0.30162 0.55175,-0.30162 0.41557,0 0.65405,0.25859 0.65405,0.71226 v 1.15534 c 0,0.0236 -0.0159,0.0388 -0.0392,0.0388 z"
         style="fill:#50aae3;fill-opacity:1;fill-rule:nonzero;stroke:none;stroke-width:0.352778" /><path
         id="path258"
         d="m 400.75448,86.078201 c 0.0353,-0.10548 0.0504,-0.21907 0.0504,-0.42298 0,-0.19932 -0.0152,-0.31291 -0.0504,-0.41875 -0.0744,-0.22331 -0.25471,-0.34819 -0.49742,-0.34819 -0.23883,0 -0.41874,0.12488 -0.49318,0.34819 -0.0353,0.10584 -0.0504,0.21943 -0.0504,0.41875 0,0.20391 0.0152,0.3175 0.0504,0.42298 0.0744,0.22296 0.25435,0.34784 0.49318,0.34784 0.24271,0 0.42298,-0.12488 0.49742,-0.34784 m -1.19415,0.0663 c -0.0392,-0.12488 -0.0628,-0.26211 -0.0628,-0.4893 0,-0.2226 0.0236,-0.35983 0.0628,-0.48507 0.1016,-0.30939 0.35595,-0.48577 0.69673,-0.48577 0.34467,0 0.59902,0.17638 0.70097,0.48577 0.0385,0.12524 0.0624,0.26247 0.0624,0.48507 0,0.22719 -0.024,0.36442 -0.0624,0.4893 -0.10195,0.30939 -0.3563,0.48507 -0.70097,0.48507 -0.34078,0 -0.59513,-0.17568 -0.69673,-0.48507"
         style="fill:#50aae3;fill-opacity:1;fill-rule:nonzero;stroke:none;stroke-width:0.352778" /><path
         id="path259"
         d="m 401.90065,86.602881 c -0.28187,0 -0.38735,-0.12912 -0.38735,-0.43921 v -2.19533 c 0,-0.0233 0.0155,-0.0395 0.0392,-0.0395 h 0.13335 c 0.0233,0 0.0388,0.0162 0.0388,0.0395 v 2.18863 c 0,0.18344 0.0586,0.24236 0.19968,0.24236 h 0.067 c 0.0233,0 0.0388,0.0152 0.0388,0.0388 v 0.12559 c 0,0.0229 -0.0155,0.0392 -0.0388,0.0392 z"
         style="fill:#50aae3;fill-opacity:1;fill-rule:nonzero;stroke:none;stroke-width:0.352778" /><path
         id="path260"
         d="m 403.57599,86.078201 c 0.036,-0.10548 0.0504,-0.21907 0.0504,-0.42298 0,-0.19932 -0.0145,-0.31291 -0.0504,-0.41875 -0.0741,-0.22331 -0.25471,-0.34819 -0.49671,-0.34819 -0.23954,0 -0.4191,0.12488 -0.49354,0.34819 -0.0356,0.10584 -0.0508,0.21943 -0.0508,0.41875 0,0.20391 0.0152,0.3175 0.0508,0.42298 0.0744,0.22296 0.254,0.34784 0.49354,0.34784 0.242,0 0.42263,-0.12488 0.49671,-0.34784 m -1.19415,0.0663 c -0.0392,-0.12488 -0.0624,-0.26211 -0.0624,-0.4893 0,-0.2226 0.0233,-0.35983 0.0624,-0.48507 0.10195,-0.30939 0.3563,-0.48577 0.69744,-0.48577 0.34396,0 0.59866,0.17638 0.70026,0.48577 0.0388,0.12524 0.0628,0.26247 0.0628,0.48507 0,0.22719 -0.024,0.36442 -0.0628,0.4893 -0.1016,0.30939 -0.3563,0.48507 -0.70026,0.48507 -0.34114,0 -0.59549,-0.17568 -0.69744,-0.48507"
         style="fill:#50aae3;fill-opacity:1;fill-rule:nonzero;stroke:none;stroke-width:0.352778" /><path
         id="path261"
         d="m 405.40363,86.070261 c 0.0353,-0.10548 0.0473,-0.23072 0.0473,-0.42616 0,-0.19614 -0.012,-0.32102 -0.0473,-0.42686 -0.0783,-0.23495 -0.25047,-0.32914 -0.46567,-0.32914 -0.23071,0 -0.38805,0.1143 -0.45825,0.32491 -0.0388,0.11007 -0.0543,0.24306 -0.0543,0.43109 0,0.1831 0.0155,0.32068 0.0543,0.42616 0.0702,0.21519 0.22754,0.32914 0.45825,0.32914 0.2152,0 0.38735,-0.0984 0.46567,-0.32914 m -1.10807,0.99448 c -0.0113,-0.0198 -0.0113,-0.0395 0.008,-0.0554 l 0.0974,-0.0857 c 0.0201,-0.0152 0.0399,-0.0113 0.0554,0.008 0.1136,0.12947 0.26988,0.19967 0.46179,0.19967 0.33267,0 0.53269,-0.16439 0.53269,-0.56762 v -0.26952 h -0.004 c -0.0861,0.1838 -0.25047,0.3048 -0.5521,0.3048 -0.31326,0 -0.52846,-0.16051 -0.62265,-0.44591 -0.043,-0.133 -0.0631,-0.2861 -0.0631,-0.50871 0,-0.22366 0.0201,-0.37641 0.0631,-0.5087 0.0942,-0.28681 0.30939,-0.4512 0.62265,-0.4512 0.30163,0 0.46602,0.1217 0.5521,0.30621 h 0.004 v -0.22754 c 0,-0.0233 0.0152,-0.0392 0.0392,-0.0392 h 0.13229 c 0.0236,0 0.0395,0.0159 0.0395,0.0392 v 1.79316 c 0,0.5207 -0.28187,0.77894 -0.74824,0.77894 -0.26917,0 -0.51576,-0.11783 -0.61806,-0.27023"
         style="fill:#50aae3;fill-opacity:1;fill-rule:nonzero;stroke:none;stroke-width:0.352778" /><path
         id="path262"
         d="m 406.34276,84.406981 c -0.0233,0 -0.0356,-0.0159 -0.0233,-0.0395 l 0.30162,-0.47731 c 0.0152,-0.0275 0.0346,-0.0395 0.0663,-0.0395 h 0.14852 c 0.0236,0 0.0346,0.0201 0.0198,0.0395 l -0.34467,0.47731 c -0.0236,0.0275 -0.0391,0.0395 -0.0702,0.0395 z m -0.0194,2.18369 c -0.024,0 -0.0399,-0.0152 -0.0399,-0.0388 v -1.78894 c 0,-0.0233 0.0159,-0.0395 0.0399,-0.0395 h 0.13229 c 0.024,0 0.0399,0.0162 0.0399,0.0395 v 1.78894 c 0,0.0236 -0.0159,0.0388 -0.0399,0.0388 z"
         style="fill:#50aae3;fill-opacity:1;fill-rule:nonzero;stroke:none;stroke-width:0.352778" /><path
         id="path263"
         d="m 408.22137,86.015481 v -0.28575 c 0,-0.0152 -0.008,-0.0233 -0.0229,-0.0233 h -0.44697 c -0.37183,0 -0.52776,0.121 -0.52776,0.36794 0,0.2346 0.16405,0.35984 0.46109,0.35984 0.32102,0 0.53657,-0.16404 0.53657,-0.41875 m -0.95462,-0.99448 c -0.0201,0.0162 -0.043,0.0162 -0.0593,-0.004 l -0.0667,-0.0974 c -0.0116,-0.0197 -0.007,-0.0392 0.012,-0.055 0.1337,-0.11289 0.33267,-0.18027 0.59478,-0.18027 0.48542,0 0.68157,0.16051 0.68157,0.61912 v 1.24848 c 0,0.0236 -0.0159,0.0388 -0.0395,0.0388 h -0.12523 c -0.0229,0 -0.0388,-0.0152 -0.0388,-0.0388 v -0.19579 h -0.004 c -0.0744,0.15628 -0.2734,0.27341 -0.57961,0.27341 -0.37501,0 -0.62548,-0.18733 -0.62548,-0.5514 0,-0.37182 0.25435,-0.55245 0.70838,-0.55245 h 0.47378 c 0.0148,0 0.0229,-0.007 0.0229,-0.0229 v -0.19155 c 0,-0.30551 -0.10548,-0.43075 -0.48507,-0.43075 -0.22754,0 -0.36089,0.0504 -0.46955,0.14041"
         style="fill:#50aae3;fill-opacity:1;fill-rule:nonzero;stroke:none;stroke-width:0.352778" /></g></g></svg>
