<?xml version="1.0" encoding="UTF-8" standalone="no"?>
<!-- Created with Inkscape (http://www.inkscape.org/) -->

<svg
   width="78.178169mm"
   height="21.10413mm"
   viewBox="0 0 78.178172 21.10413"
   version="1.1"
   id="svg1"
   xml:space="preserve"
   inkscape:export-filename="organizadores.png"
   inkscape:export-xdpi="300"
   inkscape:export-ydpi="300"
   inkscape:version="1.4.3 (fcd0343856, 2026-01-01)"
   sodipodi:docname="organizadores.svg"
   xmlns:inkscape="http://www.inkscape.org/namespaces/inkscape"
   xmlns:sodipodi="http://sodipodi.sourceforge.net/DTD/sodipodi-0.dtd"
   xmlns="http://www.w3.org/2000/svg"
   xmlns:svg="http://www.w3.org/2000/svg"><sodipodi:namedview
     id="namedview1"
     pagecolor="#ffffff"
     bordercolor="#000000"
     borderopacity="0.25"
     inkscape:showpageshadow="2"
     inkscape:pageopacity="0.0"
     inkscape:pagecheckerboard="0"
     inkscape:deskcolor="#d1d1d1"
     inkscape:document-units="mm"
     inkscape:zoom="2.6478692"
     inkscape:cx="2241.8026"
     inkscape:cy="141.05682"
     inkscape:window-width="1920"
     inkscape:window-height="1043"
     inkscape:window-x="0"
     inkscape:window-y="0"
     inkscape:window-maximized="1"
     inkscape:current-layer="layer1"><inkscape:page
       x="5.6083206e-16"
       y="0"
       width="78.178177"
       height="21.10413"
       id="page1"
       margin="0"
       bleed="0" /></sodipodi:namedview><defs
     id="defs1" /><g
     inkscape:label="Layer 1"
     inkscape:groupmode="layer"
     id="layer1"
     transform="translate(-373.39133,-116.60014)"><g
       id="g3"
       transform="translate(476.36806,0.52721322)"><path
         id="path87"
         d="m -79.627758,116.07293 h -6.478058 c -0.114653,0 -0.29845,0.0282 -0.407811,0.0628 l -4.485922,1.40547 c -0.109714,0.0339 -0.289278,0.0342 -0.398992,0 l -4.483805,-1.40511 c -0.110067,-0.0346 -0.293864,-0.0624 -0.408869,-0.0624 h -6.476645 c -0.11501,0 -0.20885,0.0938 -0.20885,0.20884 V 135.468 c 0,0.115 0.0938,0.20919 0.20885,0.20919 l 6.476645,3.6e-4 c 0.115358,0 0.298802,0.0282 0.408869,0.0631 l 4.4831,1.41076 c 0.109714,0.0342 0.288925,0.0342 0.398639,0 l 4.48698,-1.41111 c 0.109361,-0.0346 0.293158,-0.0628 0.407811,-0.0628 l 6.477352,-3.6e-4 c 0.115006,0 0.209198,-0.0942 0.209198,-0.20919 v -19.18618 c 0,-0.115 -0.09419,-0.20884 -0.208492,-0.20884 m -2.003778,17.28752 c 0,0.0575 -0.04692,0.10442 -0.104775,0.10442 h -4.473574 c -0.0575,0 -0.149225,0.0141 -0.203906,0.0311 l -4.685241,1.46755 c -0.05503,0.0169 -0.144287,0.0169 -0.199673,0 l -4.683477,-1.46755 c -0.05468,-0.0169 -0.146756,-0.0311 -0.203906,-0.0311 h -4.473572 c -0.0575,0 -0.10442,-0.0469 -0.10442,-0.10442 v -14.97012 c 0,-0.0575 0.0469,-0.10443 0.10442,-0.10443 h 4.473572 c 0.05715,0 0.149225,0.0145 0.203553,0.0314 l 4.683125,1.47426 c 0.05468,0.0169 0.144286,0.0169 0.198966,0 l 4.686653,-1.47426 c 0.05468,-0.0169 0.146403,-0.0314 0.203906,-0.0314 l 4.473574,3.6e-4 c 0.05786,0 0.104775,0.0473 0.104775,0.10477 z"
         style="fill:#7ca0c5;fill-opacity:1;fill-rule:nonzero;stroke:none;stroke-width:0.352778" /><path
         id="path88"
         d="m -75.555125,121.65788 h -0.730955 v -4.45029 h 0.730955 z"
         style="fill:#282828;fill-opacity:1;fill-rule:nonzero;stroke:none;stroke-width:0.352778" /><path
         id="path89"
         d="m -73.82153,118.35893 0.0194,0.43991 h 0.05186 c 0.148872,-0.31714 0.459317,-0.49177 1.04775,-0.49177 0.931686,0 1.080206,0.43357 1.080206,1.28729 v 2.06339 h -0.685448 V 119.866 c 0,-0.86678 -0.07796,-0.94439 -0.698852,-0.94439 -0.6985,0 -0.763411,0.34925 -0.763411,1.03505 v 1.70109 h -0.685448 v -3.29882 z"
         style="fill:#282828;fill-opacity:1;fill-rule:nonzero;stroke:none;stroke-width:0.352778" /><path
         id="path90"
         d="m -70.677963,121.6191 v -0.54328 c 0.297392,0.0325 0.769761,0.0582 1.144764,0.0582 0.614891,0 0.672747,-0.11007 0.672747,-0.41416 0,-0.3362 -0.05786,-0.3556 -0.381706,-0.39441 l -0.801863,-0.097 c -0.614539,-0.0713 -0.737659,-0.37536 -0.737659,-0.93804 0,-0.87982 0.530578,-0.98319 1.313392,-0.98319 0.36195,0 0.814917,0.0452 1.080205,0.097 v 0.54327 c -0.317147,-0.0388 -0.711552,-0.0645 -1.0287,-0.0645 -0.491419,0 -0.704849,0.0258 -0.704849,0.4011 0,0.2974 0.04516,0.3429 0.34925,0.37501 l 0.873124,0.10371 c 0.47872,0.0582 0.69215,0.18098 0.69215,0.94439 0,0.86677 -0.446263,1.00259 -1.235427,1.00259 -0.381706,0 -0.899231,-0.0388 -1.235428,-0.0907"
         style="fill:#282828;fill-opacity:1;fill-rule:nonzero;stroke:none;stroke-width:0.352778" /><path
         id="path91"
         d="m -67.728626,118.93475 v -0.57573 h 0.659694 v -0.95744 h 0.6858 v 0.95744 h 0.769761 v 0.57573 h -0.769761 v 2.72309 h -0.6858 v -2.72309 z"
         style="fill:#282828;fill-opacity:1;fill-rule:nonzero;stroke:none;stroke-width:0.352778" /><path
         id="path92"
         d="m -64.254948,121.65788 h -0.6858 v -3.29883 h 0.6858 z m 0.0194,-4.1335 h -0.717903 v -0.67275 h 0.717903 z"
         style="fill:#282828;fill-opacity:1;fill-rule:nonzero;stroke:none;stroke-width:0.352778" /><path
         id="path93"
         d="m -63.588955,118.93475 v -0.57573 h 0.659694 v -0.95744 h 0.6858 v 0.95744 h 0.769761 v 0.57573 h -0.769761 v 2.72309 h -0.6858 v -2.72309 z"
         style="fill:#282828;fill-opacity:1;fill-rule:nonzero;stroke:none;stroke-width:0.352778" /><path
         id="path94"
         d="m -60.801067,120.42245 v -2.0634 h 0.6858 v 1.79176 c 0,0.86678 0.08396,0.94439 0.70485,0.94439 0.69215,0 0.757061,-0.34925 0.757061,-1.03505 v -1.7011 h 0.685447 v 3.29883 h -0.627239 l -0.02611,-0.43992 h -0.04516 c -0.155222,0.31715 -0.459316,0.49178 -1.048102,0.49178 -0.931334,0 -1.086556,-0.43357 -1.086556,-1.28729"
         style="fill:#282828;fill-opacity:1;fill-rule:nonzero;stroke:none;stroke-width:0.352778" /><path
         id="path95"
         d="m -57.3019,118.93475 v -0.57573 h 0.659694 v -0.95744 h 0.6858 v 0.95744 h 0.769761 v 0.57573 h -0.769761 v 2.72309 h -0.6858 v -2.72309 z"
         style="fill:#282828;fill-opacity:1;fill-rule:nonzero;stroke:none;stroke-width:0.352778" /><path
         id="path96"
         d="m -52.373003,120.002 c 0,-0.98954 0,-1.11901 -0.789164,-1.11901 -0.789164,0 -0.789164,0.12947 -0.789164,1.11901 0,0.99624 0,1.13206 0.789164,1.13206 0.789164,0 0.789164,-0.13582 0.789164,-1.13206 m -2.270478,0 c 0,-1.33879 0.08431,-1.69474 1.481314,-1.69474 1.397353,0 1.481314,0.35595 1.481314,1.69474 0,1.34549 -0.08396,1.7078 -1.481314,1.7078 -1.397,0 -1.481314,-0.36231 -1.481314,-1.7078"
         style="fill:#282828;fill-opacity:1;fill-rule:nonzero;stroke:none;stroke-width:0.352778" /><path
         id="path97"
         d="m -47.2308,120.79109 c 0.08431,-0.19403 0.09066,-0.44626 0.09066,-0.79551 0,-0.3235 -0.0064,-0.57574 -0.08431,-0.74401 -0.09666,-0.23284 -0.297392,-0.32985 -0.678744,-0.32985 -0.67945,0 -0.763411,0.11642 -0.763411,1.08656 0,0.98319 0.08396,1.09325 0.769761,1.09325 0.375002,0 0.575733,-0.097 0.666044,-0.31044 m -2.127955,-0.77611 c 0,-1.31974 0.291041,-1.7078 1.157816,-1.7078 0.47237,0 0.82797,0.0907 1.021997,0.43992 h 0.03881 v -1.89548 h 0.6858 v 4.80624 h -0.627592 l -0.02611,-0.43321 h -0.03845 c -0.200731,0.40746 -0.620889,0.48507 -1.03505,0.48507 -0.879828,0 -1.177219,-0.37535 -1.177219,-1.69474"
         style="fill:#282828;fill-opacity:1;fill-rule:nonzero;stroke:none;stroke-width:0.352778" /><path
         id="path98"
         d="m -44.863334,119.76271 h 1.500717 v -0.0194 c 0,-0.76976 -0.161573,-0.86678 -0.724253,-0.86678 -0.6858,0 -0.770114,0.14887 -0.776464,0.88618 m 0,0.47202 c 0,0.76341 0.05151,0.90593 1.002594,0.90593 0.291042,0 0.724606,-0.0261 1.021998,-0.0649 v 0.53693 c -0.284339,0.0582 -0.776112,0.097 -1.18357,0.097 -1.397353,0 -1.533172,-0.43991 -1.533172,-1.69474 0,-1.19663 0.135819,-1.7078 1.488017,-1.7078 1.306336,0 1.358194,0.51117 1.358194,1.7078 v 0.21978 z"
         style="fill:#282828;fill-opacity:1;fill-rule:nonzero;stroke:none;stroke-width:0.352778" /><path
         id="path99"
         d="m -75.529124,123.67473 2.043994,3.08539 h 0.02611 v -3.08539 h 0.6985 v 4.45029 h -0.6985 l -2.102556,-3.18241 h -0.02575 v 3.18241 h -0.6985 v -4.45029 z"
         style="fill:#282828;fill-opacity:1;fill-rule:nonzero;stroke:none;stroke-width:0.352778" /><path
         id="path100"
         d="m -69.817723,127.36831 c 0.07761,-0.14217 0.116417,-0.32985 0.116417,-0.58843 v -0.11677 h -0.944386 c -0.433211,0 -0.523875,0.0649 -0.523875,0.48542 0,0.40111 0.09701,0.47202 0.666044,0.47202 0.32385,0 0.569383,-0.0519 0.6858,-0.25224 m -2.024592,-0.15522 c 0,-0.75036 0.226484,-1.022 1.021998,-1.022 0.174625,0 0.743655,0.0127 1.119011,0.0258 v -0.15522 c 0,-0.67275 -0.13582,-0.71155 -0.944386,-0.71155 -0.284692,0 -0.782461,0.0324 -0.983192,0.0582 v -0.53693 c 0.362303,-0.0646 0.795514,-0.097 1.222728,-0.097 1.229077,0 1.39065,0.369 1.39065,1.30668 v 2.044 h -0.627239 l -0.02611,-0.42686 h -0.0388 c -0.213431,0.42686 -0.717903,0.47872 -1.106311,0.47872 -0.679098,0 -1.028348,-0.23284 -1.028348,-0.96379"
         style="fill:#282828;fill-opacity:1;fill-rule:nonzero;stroke:none;stroke-width:0.352778" /><path
         id="path101"
         d="m -67.353394,124.82617 0.0194,0.43991 h 0.05186 c 0.148872,-0.31714 0.459317,-0.49177 1.04775,-0.49177 0.931686,0 1.080206,0.43357 1.080206,1.28729 v 2.06339 h -0.685448 v -1.79175 c 0,-0.86678 -0.07796,-0.94439 -0.698852,-0.94439 -0.6985,0 -0.763411,0.34925 -0.763411,1.03505 v 1.70109 h -0.685448 v -3.29882 z"
         style="fill:#282828;fill-opacity:1;fill-rule:nonzero;stroke:none;stroke-width:0.352778" /><path
         id="path102"
         d="m -61.984707,126.46921 c 0,-0.98954 0,-1.11901 -0.789164,-1.11901 -0.789164,0 -0.789164,0.12947 -0.789164,1.11901 0,0.99624 0,1.13206 0.789164,1.13206 0.789164,0 0.789164,-0.13582 0.789164,-1.13206 m -2.270478,0 c 0,-1.33879 0.08396,-1.69474 1.481314,-1.69474 1.397,0 1.481314,0.35595 1.481314,1.69474 0,1.34549 -0.08431,1.7078 -1.481314,1.7078 -1.397353,0 -1.481314,-0.36231 -1.481314,-1.7078"
         style="fill:#282828;fill-opacity:1;fill-rule:nonzero;stroke:none;stroke-width:0.352778" /><path
         id="path103"
         d="m -60.484176,128.08629 v -0.54328 c 0.297392,0.0325 0.769761,0.0582 1.144764,0.0582 0.614891,0 0.672747,-0.11007 0.672747,-0.41416 0,-0.3362 -0.05786,-0.3556 -0.381706,-0.39441 l -0.801863,-0.097 c -0.614539,-0.0713 -0.737659,-0.37536 -0.737659,-0.93804 0,-0.87982 0.530578,-0.98319 1.313392,-0.98319 0.36195,0 0.814917,0.0452 1.080205,0.097 v 0.54327 c -0.317147,-0.0388 -0.711552,-0.0645 -1.0287,-0.0645 -0.491419,0 -0.704849,0.0258 -0.704849,0.4011 0,0.2974 0.04516,0.3429 0.34925,0.37501 l 0.873124,0.10371 c 0.47872,0.0582 0.69215,0.18098 0.69215,0.94439 0,0.86677 -0.446263,1.00259 -1.235427,1.00259 -0.381706,0 -0.899231,-0.0388 -1.235428,-0.0907"
         style="fill:#282828;fill-opacity:1;fill-rule:nonzero;stroke:none;stroke-width:0.352778" /><path
         id="path104"
         d="m -56.486781,128.125 h -0.6858 v -3.29883 h 0.6858 z m 0.0194,-4.13314 h -0.717902 v -0.67275 h 0.717902 z"
         style="fill:#282828;fill-opacity:1;fill-rule:nonzero;stroke:none;stroke-width:0.352778" /><path
         id="path105"
         d="m -55.542606,128.08629 v -0.54328 c 0.297744,0.0325 0.769761,0.0582 1.145117,0.0582 0.614538,0 0.672747,-0.11007 0.672747,-0.41416 0,-0.3362 -0.05821,-0.3556 -0.381706,-0.39441 l -0.802216,-0.097 c -0.614539,-0.0713 -0.737306,-0.37536 -0.737306,-0.93804 0,-0.87982 0.530225,-0.98319 1.313039,-0.98319 0.362303,0 0.814917,0.0452 1.080205,0.097 v 0.54327 c -0.316794,-0.0388 -0.711552,-0.0645 -1.0287,-0.0645 -0.491419,0 -0.704849,0.0258 -0.704849,0.4011 0,0.2974 0.04551,0.3429 0.34925,0.37501 l 0.873124,0.10371 c 0.479073,0.0582 0.69215,0.18098 0.69215,0.94439 0,0.86677 -0.446263,1.00259 -1.235427,1.00259 -0.381353,0 -0.898878,-0.0388 -1.235428,-0.0907"
         style="fill:#282828;fill-opacity:1;fill-rule:nonzero;stroke:none;stroke-width:0.352778" /><path
         id="path106"
         d="m -52.593057,125.40198 v -0.57573 h 0.659694 v -0.95744 h 0.6858 v 0.95744 h 0.769761 v 0.57573 h -0.769761 v 2.72309 h -0.6858 v -2.72309 z"
         style="fill:#282828;fill-opacity:1;fill-rule:nonzero;stroke:none;stroke-width:0.352778" /><path
         id="path107"
         d="m -49.242374,126.22992 h 1.500364 v -0.0194 c 0,-0.76976 -0.161572,-0.86678 -0.724253,-0.86678 -0.6858,0 -0.769761,0.14887 -0.776111,0.88618 m 0,0.47202 c 0,0.76341 0.05151,0.90593 1.002594,0.90593 0.291042,0 0.724253,-0.0261 1.021998,-0.0649 v 0.53693 c -0.284692,0.0582 -0.776112,0.097 -1.18357,0.097 -1.397353,0 -1.533172,-0.43991 -1.533172,-1.69474 0,-1.19663 0.135819,-1.7078 1.487664,-1.7078 1.306689,0 1.358547,0.51117 1.358547,1.7078 v 0.21978 z"
         style="fill:#282828;fill-opacity:1;fill-rule:nonzero;stroke:none;stroke-width:0.352778" /><path
         id="path108"
         d="m -45.555458,124.82617 0.0194,0.43991 h 0.04515 c 0.14217,-0.31044 0.433211,-0.49177 0.976842,-0.49177 0.549628,0 0.802217,0.15558 0.918633,0.49177 h 0.04516 c 0.148519,-0.31044 0.458964,-0.49177 1.008944,-0.49177 0.847725,0 0.996245,0.43357 0.996245,1.28729 v 2.06339 h -0.685448 v -1.79175 c 0,-0.86678 -0.06491,-0.94439 -0.614891,-0.94439 -0.614186,0 -0.679097,0.31715 -0.679097,1.03505 v 1.70109 h -0.6858 v -1.79175 c 0,-0.86678 -0.06456,-0.94439 -0.614186,-0.94439 -0.621242,0 -0.67945,0.33655 -0.67945,1.03505 v 1.70109 H -46.1894 v -3.29882 z"
         style="fill:#282828;fill-opacity:1;fill-rule:nonzero;stroke:none;stroke-width:0.352778" /><path
         id="path109"
         d="m -38.673328,127.36831 c 0.07761,-0.14217 0.116417,-0.32985 0.116417,-0.58843 v -0.11677 h -0.944386 c -0.433211,0 -0.523875,0.0649 -0.523875,0.48542 0,0.40111 0.09701,0.47202 0.666044,0.47202 0.32385,0 0.569383,-0.0519 0.6858,-0.25224 m -2.024592,-0.15522 c 0,-0.75036 0.226484,-1.022 1.021998,-1.022 0.174625,0 0.743655,0.0127 1.119011,0.0258 v -0.15522 c 0,-0.67275 -0.13582,-0.71155 -0.944386,-0.71155 -0.284692,0 -0.782461,0.0324 -0.983192,0.0582 v -0.53693 c 0.362303,-0.0646 0.795514,-0.097 1.222728,-0.097 1.228725,0 1.39065,0.369 1.39065,1.30668 v 2.044 h -0.627239 l -0.02611,-0.42686 h -0.0388 c -0.213431,0.42686 -0.717903,0.47872 -1.106311,0.47872 -0.679098,0 -1.028348,-0.23284 -1.028348,-0.96379"
         style="fill:#282828;fill-opacity:1;fill-rule:nonzero;stroke:none;stroke-width:0.352778" /><path
         id="path110"
         d="m -36.926972,128.08629 v -0.54328 c 0.297392,0.0325 0.769761,0.0582 1.144764,0.0582 0.614891,0 0.672747,-0.11007 0.672747,-0.41416 0,-0.3362 -0.05786,-0.3556 -0.381706,-0.39441 l -0.801863,-0.097 c -0.614539,-0.0713 -0.737659,-0.37536 -0.737659,-0.93804 0,-0.87982 0.530578,-0.98319 1.313392,-0.98319 0.36195,0 0.814917,0.0452 1.080205,0.097 v 0.54327 c -0.317147,-0.0388 -0.711552,-0.0645 -1.0287,-0.0645 -0.491419,0 -0.704849,0.0258 -0.704849,0.4011 0,0.2974 0.04516,0.3429 0.34925,0.37501 l 0.873477,0.10371 c 0.478367,0.0582 0.691797,0.18098 0.691797,0.94439 0,0.86677 -0.446263,1.00259 -1.235427,1.00259 -0.381706,0 -0.899231,-0.0388 -1.235428,-0.0907"
         style="fill:#282828;fill-opacity:1;fill-rule:nonzero;stroke:none;stroke-width:0.352778" /><path
         id="path111"
         d="m -76.137208,130.81493 h 0.407458 v 3.77754 h -0.407458 z"
         style="fill:#282828;fill-opacity:1;fill-rule:nonzero;stroke:none;stroke-width:0.352778" /><path
         id="path112"
         d="m -74.241979,130.80832 h 0.394758 l 2.354439,3.1309 h 0.0064 v -3.1309 h 0.375356 v 3.78425 h -0.369006 l -2.373841,-3.16336 h -0.0064 v 3.16336 h -0.381706 z"
         style="fill:#282828;fill-opacity:1;fill-rule:nonzero;stroke:none;stroke-width:0.352778" /><path
         id="path113"
         d="m -69.765812,134.56019 v -0.32985 c 0.588433,0.0582 0.892528,0.084 1.3843,0.084 0.672747,0 0.950736,-0.097 0.950736,-0.78916 0,-0.52387 -0.174625,-0.58208 -0.575733,-0.62759 l -1.0414,-0.10972 c -0.627592,-0.0649 -0.83432,-0.32349 -0.83432,-0.95108 0,-0.97649 0.601486,-1.07386 1.481314,-1.07386 0.36195,0 0.841022,0.0455 1.170517,0.0907 v 0.3235 c -0.420159,-0.0646 -0.789164,-0.097 -1.235428,-0.097 -0.588433,0 -1.008944,0.0325 -1.008944,0.71155 0,0.54328 0.155222,0.61454 0.569383,0.65334 l 1.060803,0.10337 c 0.56268,0.0519 0.834319,0.25223 0.834319,0.97049 0,0.97014 -0.517525,1.12536 -1.39065,1.12536 -0.407458,0 -0.989894,-0.0452 -1.364897,-0.084"
         style="fill:#282828;fill-opacity:1;fill-rule:nonzero;stroke:none;stroke-width:0.352778" /><path
         id="path114"
         d="m -66.881025,135.18126 h 2.490258 v 0.32985 h -2.490258 z"
         style="fill:#282828;fill-opacity:1;fill-rule:nonzero;stroke:none;stroke-width:0.352778" /><path
         id="path115"
         d="m -64.002737,130.81483 h 2.664883 v 0.33655 h -2.257425 v 1.3649 h 1.979436 v 0.33619 h -1.979436 v 1.40371 h 2.257425 v 0.33619 h -2.664883 z"
         style="fill:#282828;fill-opacity:1;fill-rule:nonzero;stroke:none;stroke-width:0.352778" /><path
         id="path116"
         d="m -58.362349,134.26904 c 0.601486,0 0.802217,-0.21978 0.802217,-0.71155 0,-0.49812 -0.232834,-0.71791 -0.802217,-0.71791 h -1.3843 v 1.42946 z m -0.02575,-1.75295 c 0.517525,0 0.776111,-0.23954 0.776111,-0.69215 0,-0.47872 -0.168275,-0.6858 -0.776111,-0.6858 h -1.358547 v 1.37795 z m -1.752952,-1.7011 h 1.863019 c 0.821267,0 1.067153,0.38171 1.067153,0.94439 0,0.47872 -0.194028,0.80222 -0.6858,0.88618 v 0.0127 c 0.614539,0.11677 0.737658,0.51752 0.737658,0.93803 0,0.50448 -0.181328,0.99625 -1.151819,0.99625 h -1.830211 z"
         style="fill:#282828;fill-opacity:1;fill-rule:nonzero;stroke:none;stroke-width:0.352778" /><path
         id="path117"
         d="m -55.820312,135.87329 v -0.32985 c 0.394406,0.0258 0.756708,0.0388 1.028347,0.0388 1.054453,0 1.138414,-0.3496 1.138414,-1.26788 v -0.18768 h -0.0321 c -0.103716,0.25894 -0.355953,0.50447 -1.099961,0.50447 -1.002241,0 -1.164166,-0.375 -1.164166,-1.27423 v -2.0634 h 0.394405 v 1.94063 c 0,0.92498 0.13582,1.04775 0.912283,1.04775 0.970139,0 0.989542,-0.53023 0.989542,-1.28729 v -1.70109 h 0.394758 v 2.87867 c 0,1.28728 -0.194027,1.7526 -1.455561,1.7526 -0.375002,0 -0.834672,-0.019 -1.105958,-0.0515"
         style="fill:#282828;fill-opacity:1;fill-rule:nonzero;stroke:none;stroke-width:0.352778" /><path
         id="path118"
         d="m -51.913581,130.80832 h 0.394758 l 2.354439,3.1309 h 0.0063 v -3.1309 h 0.375356 v 3.78425 h -0.369006 l -2.373841,-3.16336 h -0.0063 v 3.16336 h -0.381706 z"
         style="fill:#282828;fill-opacity:1;fill-rule:nonzero;stroke:none;stroke-width:0.352778" /><path
         id="path119"
         d="m -48.394765,135.18126 h 2.490258 v 0.32985 h -2.490258 z"
         style="fill:#282828;fill-opacity:1;fill-rule:nonzero;stroke:none;stroke-width:0.352778" /><path
         id="path120"
         d="m -45.516485,132.89766 v -2.0828 h 0.407458 v 2.25742 c 0,1.022 0.200731,1.25484 1.106311,1.25484 0.899231,0 1.093259,-0.21979 1.093259,-1.25484 v -2.25742 h 0.420158 v 2.0828 c 0,1.39735 -0.297392,1.7466 -1.513417,1.7466 -1.216377,0 -1.513769,-0.34925 -1.513769,-1.7466"
         style="fill:#282828;fill-opacity:1;fill-rule:nonzero;stroke:none;stroke-width:0.352778" /><path
         id="path121"
         d="m -41.001582,130.80832 h 0.394758 l 2.354439,3.1309 h 0.0063 v -3.1309 h 0.375356 v 3.78425 h -0.369006 l -2.373841,-3.16336 h -0.0063 v 3.16336 h -0.381706 z"
         style="fill:#282828;fill-opacity:1;fill-rule:nonzero;stroke:none;stroke-width:0.352778" /><path
         id="path122"
         d="m -36.525441,134.56019 v -0.32985 c 0.588433,0.0582 0.892528,0.084 1.3843,0.084 0.672747,0 0.950736,-0.097 0.950736,-0.78916 0,-0.52387 -0.174625,-0.58208 -0.575733,-0.62759 l -1.0414,-0.10972 c -0.627592,-0.0649 -0.83432,-0.32349 -0.83432,-0.95108 0,-0.97649 0.601486,-1.07386 1.481314,-1.07386 0.36195,0 0.841022,0.0455 1.17087,0.0907 v 0.3235 c -0.420512,-0.0646 -0.789517,-0.097 -1.235781,-0.097 -0.588433,0 -1.008944,0.0325 -1.008944,0.71155 0,0.54328 0.155222,0.61454 0.569383,0.65334 l 1.060803,0.10337 c 0.56268,0.0519 0.834319,0.25223 0.834319,0.97049 0,0.97014 -0.517525,1.12536 -1.39065,1.12536 -0.407458,0 -0.989894,-0.0452 -1.364897,-0.084"
         style="fill:#282828;fill-opacity:1;fill-rule:nonzero;stroke:none;stroke-width:0.352778" /><path
         id="path123"
         d="m -30.529427,133.14999 -0.814917,-1.92758 h -0.0067 l -0.814917,1.92758 z m -1.0541,-2.33504 h 0.472017 l 1.617133,3.77755 h -0.433211 l -0.46602,-1.09961 h -1.908174 l -0.465667,1.09961 h -0.420511 z"
         style="fill:#282828;fill-opacity:1;fill-rule:nonzero;stroke:none;stroke-width:0.352778" /><path
         id="path124"
         d="m -28.653663,130.81483 h 0.556331 l 1.358547,3.27977 h 0.0127 l 1.37795,-3.27977 h 0.549627 v 3.77754 h -0.401108 v -3.1824 h -0.0127 l -1.358547,3.1824 h -0.368653 l -1.293636,-3.1824 h -0.0067 v 3.1824 h -0.413808 z"
         style="fill:#282828;fill-opacity:1;fill-rule:nonzero;stroke:none;stroke-width:0.352778" /></g></g></svg>
