<?xml version="1.0" encoding="UTF-8" standalone="no"?>
<!-- Created with Inkscape (http://www.inkscape.org/) -->

<svg
   width="92.70108mm"
   height="40.414276mm"
   viewBox="0 0 92.701084 40.414277"
   version="1.1"
   id="svg1"
   xml:space="preserve"
   inkscape:export-filename="organizadores.png"
   inkscape:export-xdpi="300"
   inkscape:export-ydpi="300"
   inkscape:version="1.4.3 (fcd0343856, 2026-01-01)"
   sodipodi:docname="organizadores.svg"
   xmlns:inkscape="http://www.inkscape.org/namespaces/inkscape"
   xmlns:sodipodi="http://sodipodi.sourceforge.net/DTD/sodipodi-0.dtd"
   xmlns="http://www.w3.org/2000/svg"
   xmlns:svg="http://www.w3.org/2000/svg"><sodipodi:namedview
     id="namedview1"
     pagecolor="#ffffff"
     bordercolor="#000000"
     borderopacity="0.25"
     inkscape:showpageshadow="2"
     inkscape:pageopacity="0.0"
     inkscape:pagecheckerboard="0"
     inkscape:deskcolor="#d1d1d1"
     inkscape:document-units="mm"
     inkscape:zoom="2.6478692"
     inkscape:cx="2241.8026"
     inkscape:cy="141.05682"
     inkscape:window-width="1920"
     inkscape:window-height="1043"
     inkscape:window-x="0"
     inkscape:window-y="0"
     inkscape:window-maximized="1"
     inkscape:current-layer="layer1"><inkscape:page
       x="0"
       y="0"
       width="92.70108"
       height="40.414276"
       id="page70"
       margin="0 445.67545 0 0"
       bleed="0"
       inkscape:export-filename="uba.png"
       inkscape:export-xdpi="137"
       inkscape:export-ydpi="137" /></sodipodi:namedview><defs
     id="defs1" /><g
     inkscape:label="Layer 1"
     inkscape:groupmode="layer"
     id="layer1"
     transform="translate(-366.12992,-106.94507)"><g
       id="g1"
       transform="matrix(0.28270709,0,0,0.28270709,396.57032,111.24711)"><path
         d="M 29.87,52.51 26.5,52.1 c -0.66,-0.08 -0.84,-0.32 -0.77,-0.92 h -0.31 l -0.25,2.06 h 0.31 c 0.08,-0.6 0.31,-0.79 1,-0.7 l 3.3,0.4 c 1.37,0.17 2.16,0.65 2,1.86 -0.11,0.9 -0.67,1.32 -2.36,1.09 l -3.31,-0.4 C 25.45,55.4 25.27,55.17 25.35,54.57 h -0.31 l -0.37,3 h 0.31 c 0.07,-0.6 0.3,-0.78 1,-0.7 l 3.58,0.43 c 1.45,0.19 2.4,-0.54 2.6,-2.2 0.2,-1.66 -0.59,-2.37 -2.22,-2.58"
         transform="translate(-21.72,-5.02)"
         id="path1" /><path
         d="m 27.34,44.72 -0.3,-0.08 -0.54,2.15 0.31,0.08 c 0.28,-0.79 0.73,-0.75 1.51,-0.55 l 3.08,0.76 -5.4,1.72 -0.52,2.08 0.3,0.07 a 1.69,1.69 0 0 1 0.87,-0.77 l 4.23,1 c 0.84,0.21 1.08,0.43 1,1.25 l 0.3,0.08 0.58,-2.32 -0.31,-0.07 c -0.41,0.81 -0.63,0.85 -1.63,0.61 l -3.52,-0.88 6,-2 0.19,-0.74 -5.06,-1.21 c -0.81,-0.21 -1.14,-0.37 -1.09,-1.18"
         transform="translate(-21.72,-5.02)"
         id="path2" /><path
         d="M 33.26,44.22 29,42.66 c -0.62,-0.23 -0.75,-0.5 -0.54,-1.07 l -0.3,-0.1 -1,2.83 0.29,0.1 c 0.21,-0.56 0.48,-0.69 1.1,-0.46 l 4.29,1.56 c 0.62,0.23 0.75,0.49 0.54,1.06 l 0.3,0.11 1,-2.84 -0.3,-0.1 c -0.21,0.57 -0.48,0.69 -1.1,0.47"
         transform="translate(-21.72,-5.02)"
         id="path3" /><path
         d="m 41.22,30.15 -1.09,-0.27 a 2.13,2.13 0 0 0 -1,-0.1 1.7544515,1.7544515 0 1 0 -3,-1.82 L 33.9,30.81 34.15,31 c 0.37,-0.48 0.66,-0.51 1.18,-0.1 L 39,33.71 c 0.52,0.4 0.56,0.7 0.18,1.18 L 39.43,35.08 41.29,32.7 41,32.51 c -0.38,0.48 -0.67,0.52 -1.19,0.11 l -1.67,-1.3 c 0.22,-0.28 0.5,-0.48 1.77,-0.13 l 1.24,0.34 a 8.71,8.71 0 0 0 0.85,0.2 l 1.28,-1.63 -0.24,-0.2 c -0.49,0.53 -1.13,0.4 -1.83,0.25 m -3.32,0.76 -0.1,0.12 -1.61,-1.25 c -0.42,-0.33 -0.59,-0.49 -0.25,-0.93 0.56,-0.71 1.13,-0.89 1.88,-0.3 0.75,0.59 0.93,1.26 0.08,2.36"
         transform="translate(-21.72,-5.02)"
         id="path4" /><path
         d="m 42,25.27 -0.47,0.22 c -0.52,0.25 -1.18,0.61 -1.73,0.07 a 1,1 0 0 1 0,-1.48 3,3 0 0 1 2.71,-0.27 l 0.14,-0.31 -1.84,-1.05 a 1,1 0 0 1 -0.21,0.7 0.94,0.94 0 0 1 -0.32,0.19 2.58,2.58 0 0 0 -0.79,0.52 1.89,1.89 0 0 0 0.08,2.75 c 1.14,1.14 2.47,0.47 3.55,0 0.52,-0.25 1.16,-0.56 1.71,0 a 1.25,1.25 0 0 1 0,1.73 c -0.73,0.72 -2.05,0.56 -3,0.27 l -0.15,0.32 1.94,1.16 c 0.17,-0.58 0.21,-0.64 0.31,-0.74 a 1,1 0 0 1 0.38,-0.23 3.25,3.25 0 0 0 0.9,-0.61 2.11,2.11 0 0 0 -0.1,-3 c -1,-1 -2.09,-0.66 -3.09,-0.19"
         transform="translate(-21.72,-5.02)"
         id="path5" /><path
         d="m 47.33,24.66 -3,-3.45 c -0.43,-0.49 -0.41,-0.79 0.05,-1.19 l -0.21,-0.23 -2.27,2 0.2,0.23 c 0.46,-0.4 0.76,-0.38 1.19,0.12 l 3,3.44 c 0.44,0.51 0.41,0.8 0,1.19 l 0.2,0.24 2.28,-2 -0.21,-0.23 c -0.46,0.4 -0.75,0.38 -1.18,-0.12"
         transform="translate(-21.72,-5.02)"
         id="path6" /><path
         d="m 48.56,16.82 a 3.38,3.38 0 0 0 -1.31,0.63 l -2.37,1.73 0.18,0.25 c 0.49,-0.36 0.78,-0.31 1.17,0.22 l 2.68,3.69 c 0.39,0.54 0.34,0.83 -0.15,1.19 l 0.19,0.25 2.37,-1.72 a 3.68,3.68 0 0 0 1,-1.07 A 3.33,3.33 0 0 0 52,18.37 3.36,3.36 0 0 0 48.55,16.82 m 2.55,5.93 c -0.6,0.44 -0.72,0.27 -1.14,-0.3 l -2.58,-3.56 c -0.35,-0.48 -0.52,-0.71 0,-1.1 0.92,-0.67 1.91,-0.65 3.28,1.24 1.53,2.1 1.28,3.1 0.43,3.72"
         transform="translate(-21.72,-5.02)"
         id="path7" /><path
         d="m 65,11.83 a 0.85,0.85 0 1 0 1,0.6 0.85,0.85 0 0 0 -1,-0.6"
         transform="translate(-21.72,-5.02)"
         id="path8" /><path
         d="M 72.3,8.39 A 3.33,3.33 0 0 0 70.85,8.31 L 67.94,8.67 68,9 c 0.6,-0.07 0.84,0.1 0.92,0.76 l 0.55,4.53 c 0.09,0.66 -0.1,0.9 -0.7,1 v 0.32 l 2.9,-0.36 a 3.51,3.51 0 0 0 1.44,-0.42 3.33,3.33 0 0 0 1.44,-3.35 3.39,3.39 0 0 0 -2.27,-3 m -0.64,6.43 C 70.9,15 70.88,14.8 70.79,14.09 L 70.25,9.74 c -0.07,-0.59 -0.1,-0.88 0.54,-1 1.14,-0.14 2,0.36 2.28,2.67 0.31,2.58 -0.39,3.33 -1.43,3.46"
         transform="translate(-21.72,-5.02)"
         id="path9" /><path
         d="m 80.5,13.06 -0.22,-0.14 a 3.48,3.48 0 0 1 -2.64,1.52 c -0.6,0 -0.65,-0.36 -0.65,-0.91 v -2 h 0.19 a 1.27,1.27 0 0 1 1.48,1.17 H 79 V 10 h -0.33 c -0.29,1 -0.66,1.12 -1.5,1.12 H 77 V 9.24 c 0,-0.7 0,-1 0.75,-1 a 3.15,3.15 0 0 1 2.4,1.52 L 80.41,9.64 79.88,7.87 H 74.79 V 8.2 c 0.61,0 0.82,0.21 0.82,0.87 v 4.57 c 0,0.66 -0.21,0.86 -0.82,0.86 v 0.31 h 5.08 z"
         transform="translate(-21.72,-5.02)"
         id="path10" /><path
         d="m 82.51,12.05 a 0.86,0.86 0 0 0 0.92,-0.77 0.87,0.87 0 0 0 -0.77,-0.93 0.85330241,0.85330241 0 0 0 -0.15,1.7"
         transform="translate(-21.72,-5.02)"
         id="path11" /><path
         d="m 92.72,11.05 -1.11,3.42 c -0.45,1.4 0.08,2.46 1.67,3 1.59,0.54 2.44,-0.12 3,-1.69 l 1,-3.23 c 0.21,-0.63 0.47,-0.76 1,-0.57 l 0.09,-0.3 -2,-0.64 -0.1,0.3 c 0.58,0.18 0.72,0.45 0.51,1.08 l -1,3.16 c -0.43,1.31 -1,2 -2.21,1.62 -0.86,-0.28 -1.18,-0.91 -0.63,-2.53 l 1,-3.17 c 0.2,-0.63 0.46,-0.77 1,-0.58 l 0.1,-0.29 -2.87,-0.94 -0.09,0.3 c 0.57,0.19 0.7,0.45 0.5,1.08"
         transform="translate(-21.72,-5.02)"
         id="path12" /><path
         d="m 101.57,18.64 a 3.47,3.47 0 0 1 -3,0.27 c -0.54,-0.25 -0.43,-0.6 -0.2,-1.1 l 0.82,-1.81 0.16,0.08 a 1.28,1.28 0 0 1 0.86,1.69 l 0.29,0.14 1.16,-2.48 -0.3,-0.14 a 1.26,1.26 0 0 1 -1.83,0.38 l -0.15,-0.07 0.77,-1.67 c 0.3,-0.64 0.42,-0.89 1.1,-0.58 a 3.13,3.13 0 0 1 1.53,2.4 h 0.29 l 0.27,-1.83 -4.61,-2.15 -0.13,0.29 c 0.55,0.26 0.65,0.53 0.37,1.14 l -1.92,4.13 c -0.28,0.6 -0.57,0.7 -1.11,0.44 L 95.8,18 l 4.61,2.15 1.31,-1.33 z"
         transform="translate(-21.72,-5.02)"
         id="path13" /><path
         d="m 109.67,18.34 0.17,-0.27 -1.84,-1.17 -0.17,0.27 c 0.67,0.51 0.48,0.93 0,1.61 l -1.67,2.68 V 15.8 l -1.81,-1.13 -0.18,0.26 a 1.71,1.71 0 0 1 0.48,1.07 l -2.31,3.68 c -0.46,0.74 -0.74,0.9 -1.5,0.6 l -0.17,0.26 2,1.26 0.16,-0.26 c -0.64,-0.64 -0.61,-0.87 -0.07,-1.74 l 1.93,-3.08 v 6.36 l 0.65,0.4 2.87,-4.48 c 0.44,-0.7 0.7,-1 1.46,-0.67"
         transform="translate(-21.72,-5.02)"
         id="path14" /><path
         d="m 112.78,24.9 c 1.35,-1.6 1.39,-3.49 -0.06,-4.7 -1.45,-1.21 -3.41,-0.65 -4.7,0.89 -1.29,1.54 -1.39,3.48 0,4.66 1.39,1.18 3.52,0.62 4.74,-0.85 m -4.53,0.54 c -0.7,-0.58 -0.58,-1.65 0.94,-3.47 1.52,-1.82 2.59,-2.08 3.33,-1.46 0.74,0.62 0.66,1.64 -0.9,3.5 -0.83,1 -2.2,2.42 -3.37,1.43"
         transform="translate(-21.72,-5.02)"
         id="path15" /><path
         d="m 114.18,24.29 c -1.18,1.1 -0.56,2.45 -0.1,3.55 0.23,0.52 0.52,1.18 0,1.7 a 1.22,1.22 0 0 1 -1.72,-0.07 c -0.7,-0.74 -0.49,-2.06 -0.17,-3 l -0.31,-0.16 -1.23,1.89 c 0.57,0.2 0.64,0.24 0.73,0.35 a 1.36,1.36 0 0 1 0.22,0.39 3.32,3.32 0 0 0 0.57,0.91 2.09,2.09 0 0 0 3,0 c 1,-0.95 0.73,-2.06 0.3,-3.07 l -0.2,-0.49 c -0.23,-0.52 -0.57,-1.19 0,-1.72 a 1,1 0 0 1 1.48,0.06 c 0.58,0.62 0.44,1.9 0.17,2.72 l 0.31,0.15 1.11,-1.8 a 1.06,1.06 0 0 1 -0.7,-0.24 0.9,0.9 0 0 1 -0.17,-0.32 2.54,2.54 0 0 0 -0.49,-0.8 1.88,1.88 0 0 0 -2.75,0"
         transform="translate(-21.72,-5.02)"
         id="path16" /><path
         d="m 117.58,30.1 a 0.87,0.87 0 0 0 -0.17,1.19 0.85,0.85 0 0 0 1.36,-1 0.86,0.86 0 0 0 -1.19,-0.17"
         transform="translate(-21.72,-5.02)"
         id="path17" /><path
         d="m 129.07,52.88 c -1.61,0.16 -1.93,1.61 -2.22,2.77 -0.13,0.55 -0.29,1.25 -1.06,1.33 a 1.22,1.22 0 0 1 -1.33,-1.1 c -0.11,-1 0.85,-1.94 1.69,-2.52 L 126,53 l -2.11,0.78 c 0.34,0.49 0.36,0.56 0.38,0.71 a 1.35,1.35 0 0 1 -0.07,0.44 3.24,3.24 0 0 0 -0.1,1.07 2.09,2.09 0 0 0 2.4,1.82 c 1.39,-0.14 1.82,-1.2 2.09,-2.27 l 0.13,-0.52 c 0.13,-0.55 0.26,-1.29 1,-1.37 a 1,1 0 0 1 1.14,0.93 c 0.09,0.85 -0.79,1.79 -1.5,2.28 l 0.15,0.3 2,-0.77 a 1,1 0 0 1 -0.42,-0.6 0.91,0.91 0 0 1 0.06,-0.36 2.34,2.34 0 0 0 0.09,-0.95 1.87,1.87 0 0 0 -2.18,-1.65"
         transform="translate(-21.72,-5.02)"
         id="path18" /><path
         d="m 124.51,74.76 c 0,0.46 0.4,0.26 0.13,-1.1 a 4,4 0 0 1 0.4,-1.55 c 0.29,-0.33 0.48,-0.7 0.28,-0.9 a 2.56,2.56 0 0 1 -0.11,-1.57 c 0.08,-0.54 0.53,-3.1 0.25,-3.18 0,0 -0.34,-0.09 -0.42,0.61 -0.08,0.7 -0.22,2.67 -0.33,3.11 -0.11,0.44 -0.95,1.3 -1,1.79 -0.05,0.49 0.37,1.18 0.45,1.46 a 4.38,4.38 0 0 1 0.38,1.33"
         transform="translate(-21.72,-5.02)"
         id="path19" /><path
         d="m 130.27,68.57 c -0.23,0.3 -0.72,0.38 -0.89,0.65 -0.17,0.27 0.1,1.61 0,2 a 4.83,4.83 0 0 1 -1,1.34 0.84,0.84 0 0 0 -0.07,1.06 5.91,5.91 0 0 1 -0.29,2.55 c -0.19,0.52 -0.58,1.65 -0.27,1.63 0.31,-0.02 0.93,-3 1.25,-3.44 0.32,-0.44 0.14,-1.76 0.41,-1.43 0.27,0.33 0.29,0.89 0.6,0.87 0.31,-0.02 0,-0.93 -0.08,-1.46 a 2.41,2.41 0 0 1 0.65,-1.74 1.22,1.22 0 0 0 0.27,-1.47 c 0,0 -0.15,-0.25 0.06,-0.86 0.21,-0.61 1.07,-4.2 1.07,-4.2 a 12.44,12.44 0 0 0 -0.9,1.51 20,20 0 0 1 -0.79,2.94"
         transform="translate(-21.72,-5.02)"
         id="path20" /><path
         d="m 70,64.74 a 1.06,1.06 0 0 0 -0.29,0.37 1.08,1.08 0 0 0 0.79,0.58 1.06,1.06 0 0 0 0.66,0 L 71,65.4 a 1.91,1.91 0 0 1 -0.21,-0.33 2.57,2.57 0 0 1 -0.17,-0.67 1.2,1.2 0 0 0 -0.66,0.34"
         transform="translate(-21.72,-5.02)"
         id="path21" /><path
         d="m 103.89,46 a 7.28,7.28 0 0 1 -3.22,-0.23 c -0.5,-0.2 -0.93,-1.47 -1.16,-2.09 -0.23,-0.62 0.23,-0.48 0.23,-0.48 a 20.63,20.63 0 0 0 3.32,-0.43 c 0.67,-0.36 0.77,-0.56 0.4,-0.53 -0.37,0.03 -1.63,0.23 -1.63,0.23 a 4.69,4.69 0 0 1 -2.62,-0.1 c -0.47,-0.13 -0.44,-0.37 -0.9,-0.83 -0.46,-0.46 -0.4,-0.06 -1.13,0.4 -0.73,0.46 -0.5,0.43 -0.13,0.53 0.37,0.1 0.33,-0.23 0.93,0.36 a 30.5,30.5 0 0 1 2.23,3.76 c 0.82,1.56 2.09,4.56 2.56,5.78 0.47,1.22 1.73,6.88 1.89,7.68 a 45.43,45.43 0 0 1 0.53,6.55 5.32,5.32 0 0 1 -1.49,4.12 3.61,3.61 0 0 0 -0.93,1.26 4.42,4.42 0 0 1 -1.2,1.87 4.24,4.24 0 0 1 -2.33,0.93 21.67,21.67 0 0 0 1.8,-2.4 6.28,6.28 0 0 0 0.23,-2 1.16,1.16 0 0 1 0.23,0.43 1.24,1.24 0 0 0 0.34,0.5 c 1,-0.17 0,-1.59 -0.77,-2.72 a 39,39 0 0 0 -3.42,-3.73 c 1.06,-0.14 1.22,0.17 2.39,0.27 1.17,0.1 1.53,0.89 1.93,0.93 0.4,0.04 0.33,-0.2 -0.8,-0.9 a 8.3,8.3 0 0 0 -3.75,-0.9 c -0.84,0 -2.4,0 -2.4,0 -0.46,-0.11 -0.36,-0.34 0.56,-0.77 a 14.37,14.37 0 0 1 4.19,-0.49 4.65,4.65 0 0 1 2.4,0.67 c 0.26,0.19 0.39,0 0.39,0 -0.1,-0.37 -1.29,-1 -2.92,-1.27 -1.63,-0.27 -3.59,0.5 -3.26,0.23 a 7.82,7.82 0 0 0 1.27,-2.09 c 0.16,-0.5 -0.23,-0.7 -0.5,-0.6 -0.27,0.1 -0.33,0.56 -1.4,1.73 A 4.4,4.4 0 0 1 92.66,63.2 24.56,24.56 0 0 1 88,62.74 c -1,-0.17 -2.42,-0.5 -3.09,-0.56 -0.67,-0.06 -0.69,-0.3 -0.69,-0.3 a 5.48,5.48 0 0 1 0.33,-1.94 14.44,14.44 0 0 1 1.59,-2.56 c 0.77,-1.19 1.37,-1.09 1.86,-1.39 0.49,-0.3 0,-0.34 0,-0.34 a 4.09,4.09 0 0 0 -1.76,0.78 10.51,10.51 0 0 0 -1.24,-2.9 4.37,4.37 0 0 0 2.31,-0.85 c 0.3,-0.27 0.93,-1.8 0.66,-1.74 -0.27,0.06 -0.5,1.74 -2.8,1.86 A 6.25,6.25 0 0 1 81.71,51.5 1.71,1.71 0 0 1 81,50.31 7.16,7.16 0 0 1 81.84,48.64 4,4 0 0 0 82.17,46.12 4.05,4.05 0 0 0 81.36,44.4 c -0.15,-0.16 -0.77,-0.89 -0.88,-1 -0.54,-0.54 -1,-0.31 -1,-0.14 0,0.17 0.46,0.67 0.69,1 0.23,0.33 0.7,0.57 0.5,0.9 -0.2,0.33 -0.66,0.27 -1.3,0.67 -0.64,0.4 -5.28,3.15 -5.28,3.15 a 21.17,21.17 0 0 1 -4.52,1.53 c -1.34,0.6 0.36,0.47 0.69,0.47 h 9.16 c 2.13,-0.49 -7.62,-0.39 -7.3,-0.53 0.32,-0.14 1,-0.31 1.53,-0.53 2.16,-0.94 4.56,-2.21 5.36,-2.53 1.25,-0.5 1.55,-0.45 1.75,-0.25 a 8.44,8.44 0 0 1 -0.2,2.74 c -0.15,0.9 -0.25,1.85 0.35,2.35 a 25.7,25.7 0 0 0 2.24,1.44 4.92,4.92 0 0 1 0.7,4.39 c -0.61,1.49 -2.08,0.95 -3.08,0.7 -0.48,-0.11 -1.36,-0.48 -1.57,-0.49 -2.42,-0.08 -10.43,0.26 -11.25,0.08 -0.82,-0.18 -1,0.36 -0.5,0.36 h 9.77 a 6.34,6.34 0 0 1 3.59,1.19 c 0.45,0.45 1.52,1.06 1.28,1.36 -0.24,0.3 -5.64,0.2 -5.64,0.2 -0.7,-0.1 -1.25,0.1 -0.85,0.3 a 38.63,38.63 0 0 0 4.59,0.1 11.81,11.81 0 0 1 6.95,2.23 16.13,16.13 0 0 1 3.86,4.21 c 0.19,0.2 -0.33,0 -0.21,0.35 a 18.68,18.68 0 0 0 0.93,2.19 c 0.08,0.13 -0.51,0.12 -0.51,0.12 l -13.47,0.43 c -1.05,0 -1.15,-0.5 -1.15,-0.5 l -4.23,-4 c -0.55,-0.65 -0.85,-0.7 -0.85,-0.7 a 2.16,2.16 0 0 1 -2,-0.75 c -0.6,-0.55 -0.55,-0.44 -1,-0.35 -0.45,0.09 -7.18,0.5 -7.18,0.5 -0.65,-0.5 0.4,-0.9 0.7,-1.15 a 10.64,10.64 0 0 0 0.75,-0.94 3.25,3.25 0 0 0 0.79,-1.3 c 0.15,-0.55 1.5,-0.44 1.5,-0.44 0.9,-0.11 3,1.12 3.74,1.68 0.74,0.56 0.91,1.12 1.06,1 a 1.51,1.51 0 0 1 0.55,-0.4 c 0.06,0 0,-0.52 0,-0.52 A 9.52,9.52 0 0 0 67.66,59.3 c -1,-0.75 -1.25,-0.75 -1.15,-0.45 0.1,0.3 0.65,0.6 0.65,0.6 0,0 -0.6,0.15 -1.14,0.25 -0.54,0.1 -1.25,0.36 -1.05,0.7 0.2,0.34 0,0.75 -0.85,0.85 -0.85,0.1 -1,0.5 -1,0.8 a 15.81,15.81 0 0 1 -1.15,1.74 5.46,5.46 0 0 1 -1.2,1 c -0.3,0.2 -0.29,0.65 -0.29,1 0,0.35 0.6,0.59 0.6,0.59 -2.37,2.38 -2.45,6.23 -2.36,7.28 0.09,1.05 1.38,8.34 1.38,8.34 0.63,4 0.58,8.86 0.68,9.31 0.1,0.45 1.28,0.51 2.13,0.51 a 1.44,1.44 0 0 1 1.44,1 c 0.2,0.55 0,0.48 0.6,0.69 a 2.2,2.2 0 0 0 1.55,-0.25 c 2.49,-0.44 3,0.56 4,0.75 1,0.19 1.5,-0.25 1.85,0.15 0.12,0.14 0.53,0.38 1,0.82 0.86,0.91 -0.21,1.16 -0.21,1.16 -0.93,0.37 -4.42,0.29 -6.61,0.37 -1.13,0 -11.07,-0.08 -12.12,0.19 -1.05,0.27 0.55,0.46 0.55,0.46 0.33,0 13.1,0.1 18,0 a 12,12 0 0 1 1.91,0.09 1,1 0 0 1 0.54,0.35 c 0.45,0.5 -0.1,1.66 -0.38,2.5 -0.54,1.57 -0.5,2.27 -1.53,2.81 a 4.13,4.13 0 0 1 -2.31,0.54 c -0.9,0 -1.4,0.8 -1.25,1.75 0.15,0.95 1.38,1.51 1.38,1.51 7.58,2.73 16.62,-0.69 16.62,-0.69 0.8,-0.4 0.56,-0.34 0.56,-0.34 -0.56,0 -0.66,-0.18 -0.9,-0.55 -0.57,-0.85 1.21,-1.53 1,-1.89 -0.21,-0.36 -1.41,1.65 -1.86,1 -0.94,-1.23 1.49,-1.66 1.49,-2.9 0,-0.26 0.24,-0.54 -0.44,-2.07 -0.54,-1.09 -1.09,-2.17 -1.27,-2.61 a 10.62,10.62 0 0 1 -1.61,-4.25 c -0.3,-2.1 0.56,-5.31 1,-5 A 8.57,8.57 0 0 0 89.74,89 c 1.63,0.7 1.49,1.36 1.56,2.4 a 18.84,18.84 0 0 1 -0.59,3.29 4.89,4.89 0 0 0 0,3.22 13.85,13.85 0 0 1 0.93,3.16 c 0.16,1.53 -1.53,3.45 -1.53,3.45 -0.4,0.52 -0.3,0.58 -0.19,0.57 a 2.53,2.53 0 0 0 0.52,-0.15 c 1,-0.49 1.83,-2.41 2.1,-3.32 a 2.35,2.35 0 0 0 -0.06,-1.56 9.21,9.21 0 0 1 -0.93,-2.86 13.41,13.41 0 0 1 0.14,-2.73 c 0.6,-2.24 1,-3.87 0.48,-4.81 -0.68,-1.2 -3.07,-1.58 -4.22,-2 a 7.73,7.73 0 0 1 -3.33,-2.55 15.4,15.4 0 0 1 -2,-3.65 c -0.51,-1.22 -1.38,-2.77 -0.93,-3.61 0.45,-0.84 1.23,-0.35 2,-0.35 9,0 15,-0.16 17.37,-0.42 3.81,-0.42 2.89,-3.65 4.71,-4.64 1,-0.53 1.29,-2.85 1.38,-4.17 a 12.18,12.18 0 0 0 0.12,1.25 5.53,5.53 0 0 1 -0.26,2.59 20.76,20.76 0 0 1 -1.84,2.6 c -0.5,0.69 -1.4,3.14 -2,3.34 a 1.66,1.66 0 0 0 -1.1,0.8 3.19,3.19 0 0 0 0.25,1.79 c 0.25,0.8 0.58,1.1 1,1.23 0.42,0.13 1.79,1.27 2.92,0.73 1.13,-0.54 3.19,-3.19 3.19,-3.19 a 79.8,79.8 0 0 1 -3.86,11 c -0.61,1.53 -1.11,2.58 -0.38,4 a 3.62,3.62 0 0 0 0.52,0.75 c 0.06,0.06 0.25,0 0.18,-0.16 a 2.5,2.5 0 0 1 -0.4,-0.82 c -0.28,-1.25 0.13,-2 0.87,-3.64 l 0.07,-0.15 0.08,-0.19 A 108.14,108.14 0 0 0 110.55,79 c 0.14,-0.6 0.2,-1.06 -0.93,-0.93 -1.13,0.13 -1.73,0 -1.66,0.33 0.07,0.33 0.73,0.4 0.6,0.73 A 10.83,10.83 0 0 1 106.37,82 c -0.73,0.47 -0.93,0.4 -1.73,-0.06 a 7.32,7.32 0 0 1 -1.53,-1 c -0.33,-0.34 -0.39,-1.34 -0.6,-1.73 -0.21,-0.39 0.27,-0.47 0.27,-0.47 0.46,-0.06 0.66,1.06 0.86,1.46 a 2,2 0 0 0 1.73,0.53 c 0.39,-0.13 1.33,-0.93 1.39,-1.32 0.06,-0.39 -0.39,-1.47 0.07,-2.2 0.46,-0.73 3.29,-2.2 4.28,-2.66 0.99,-0.46 1.37,-2.25 1.37,-2.25 0.86,-3.2 1,-10 -0.07,-16.29 a 73.83,73.83 0 0 0 -2.19,-8.11 14.67,14.67 0 0 0 -1.36,-3 c -0.23,-0.27 -1.19,0.44 -1.19,0.44 a 11.65,11.65 0 0 1 -3.78,0.73 M 65.73,60.24 c 0.23,-0.06 1.06,-0.18 1.06,-0.18 1,0 1.29,0.52 1.29,0.52 a 7.43,7.43 0 0 1 1.7,2.89 c 0.18,0.65 0.12,0.65 -0.7,-0.35 a 12.27,12.27 0 0 0 -3,-2.41 C 65.43,60.36 65.49,60.3 65.73,60.24 m 18.63,26.05 c 0.46,0.4 0.45,0.42 0.2,1 A 8,8 0 0 0 83.94,90.1 29.4,29.4 0 0 1 82.79,84 5.23,5.23 0 0 0 84.36,86.26 M 94,75.94 c -5.38,0.42 -13.69,1.19 -16.78,-1.6 a 15.56,15.56 0 0 1 -2.1,-2 5.62,5.62 0 0 0 -1.89,-1.7 c -0.35,-0.1 -0.45,0.1 0.15,0.6 0.6,0.5 1.89,1.9 1.74,2.25 -0.15,0.35 -0.5,-0.25 -1.25,-0.65 a 4.19,4.19 0 0 0 -3.08,-0.15 c 0,0 -0.6,0.55 -0.06,0.6 0.54,0.05 2.1,-0.75 5.79,2.54 3.69,3.29 4.64,4.64 5,6.94 0.36,2.3 1.69,10.47 3.33,13.35 1.64,2.88 2.75,4.26 2,5.35 -0.75,1.09 -3.5,1.93 -5.35,4.11 -1.15,1.36 -2.89,2.06 -3.68,1.82 0,0 -0.6,-0.2 0.1,-0.65 0,0 0.34,-0.21 0,-0.41 0,0 -0.16,0 -0.6,0.45 -0.44,0.45 -0.9,0.85 -1.4,0.4 -0.5,-0.45 0.05,-0.6 0.4,-0.8 0.35,-0.2 0.3,-0.45 -0.15,-0.25 -0.45,0.2 -1,0.9 -1.69,0.7 -0.69,-0.2 -0.2,-0.5 0.09,-0.7 0.29,-0.2 0,-0.4 -0.4,-0.1 -0.4,0.3 -0.64,0.85 -1.34,0.7 -0.7,-0.15 -0.75,-0.6 -0.2,-0.9 0.55,-0.3 0.9,-0.4 0.8,-0.64 -0.1,-0.24 -0.55,0.14 -1.2,0.44 -0.65,0.3 -1.1,0.55 -1.59,-0.25 -0.49,-0.8 0.25,-1.39 1,-1.34 a 8.91,8.91 0 0 0 4.54,-1.8 c 1,-1 1.8,-3 5.93,-3.89 0,0 1.55,-0.1 1.6,-0.4 0.05,-0.3 -0.25,-0.4 -1.35,-0.4 a 9.07,9.07 0 0 0 -6.81,3.53 16.49,16.49 0 0 1 0.74,-2.45 c 0.56,-1.3 4.39,-2.89 4.39,-3.48 0,-0.59 -2.59,0.11 -2.82,-0.45 -0.65,-1.65 -1,-2.35 -1.57,-3.68 -0.05,-0.14 -0.49,0 -1.61,-0.25 A 18.06,18.06 0 0 0 72.82,90.2 c -0.08,0.15 0.41,0.68 1.1,1.85 a 19.45,19.45 0 0 1 1,1.79 c 0.17,0.38 -1.58,0 -1.9,-0.58 -1.27,-2 -1.82,-3.19 -3.15,-5.21 0,0 -0.29,-0.48 0.91,0.08 0.55,0.26 4.43,2.34 7,1.26 1.58,-0.68 1.85,-2.05 1.71,-2.33 -0.14,-0.28 0,0.17 -0.28,0.7 -0.35,0.76 -1.56,1.9 -3.95,1.11 -0.9,-0.29 -1.77,-2.1 -2.64,-2.56 a 15.89,15.89 0 0 1 -4.64,-2 38,38 0 0 1 -3.62,-2.41 c -0.49,-0.35 -1.19,-0.1 -0.49,0.85 0.7,0.95 6.24,8.42 6.44,9.13 0.2,0.71 -0.06,1.34 -1.16,0.69 a 2.5,2.5 0 0 0 -2,-0.26 c -1,0.4 -2.09,1 -2.3,0 -0.21,-1 0,-3 -0.59,-4 0,0 -0.65,-0.7 -0.4,0.45 a 6.56,6.56 0 0 1 0.24,2.09 c 0,0.35 -0.09,0.4 -0.74,0.5 -0.65,0.1 -1.4,0 -1.6,-0.45 -0.2,-0.45 0,-6.43 -1.09,-10.77 C 59.58,75.79 58.41,69 61.7,66.66 a 5.87,5.87 0 0 1 2.4,-0.84 c 1.15,0 4.63,-0.3 4.63,-0.3 0,0 0.9,1.19 1.65,1.19 0.75,0 1.29,0 1.5,0.2 0.21,0.2 4.18,4.48 4.53,4.84 0.35,0.36 0.9,0.39 1.7,0.3 0.8,-0.09 12.59,-0.36 13.49,-0.45 0.9,-0.09 1.88,0 1.69,-0.2 a 11.77,11.77 0 0 1 -1.36,-2.87 c -0.11,-0.29 0.45,-0.09 0.31,-0.32 A 26.38,26.38 0 0 0 90.56,66 c -0.6,-0.69 0.61,-0.4 1.9,0.5 a 27,27 0 0 1 2.7,2.5 c 0.19,0.39 0.44,0.29 0.24,-0.15 -0.2,-0.44 -2.09,-2.58 -6.48,-4.85 0,0 5.34,0 7.43,1.6 2.09,1.6 4.49,3.88 3.44,6.78 0,0 -0.22,3.12 -5.8,3.54 m 15.42,-23.69 a 18.25,18.25 0 0 1 1.25,4.19 c 0,0.4 0.55,9.07 0.65,12.16 0.1,3.09 -0.36,4.54 -0.81,5.34 -0.45,0.8 -3.34,2.19 -3.88,2.54 a 16.31,16.31 0 0 0 -2,2.45 c -0.5,0.59 -1,0.49 -1.05,0 -0.05,-0.49 1.05,-1.65 1.05,-1.65 a 19.43,19.43 0 0 1 2.64,-4.14 5.69,5.69 0 0 0 0.7,-4.29 c -0.2,-1.1 -1.65,-8.62 -1.9,-9.62 -0.25,-1 -0.3,-4.49 -0.59,-5.33 -0.29,-0.84 -1.35,-1.7 -2,-2.7 a 13.07,13.07 0 0 1 -1.75,-4.13 c -0.09,-1 1.25,-0.7 1.25,-0.7 1.84,0.11 4.64,0 4.64,0 0.6,1.35 1.1,4.44 1.8,5.83"
         transform="translate(-21.72,-5.02)"
         id="path22" /><path
         d="m 93.06,27.29 a 5.08,5.08 0 0 1 -1,-2 c -0.14,-0.06 -0.37,1.07 -0.4,1.36 -0.03,0.29 -0.26,1.13 -1,1 C 89.92,27.52 88.9,26.3 88.9,26.3 A 4.93,4.93 0 0 0 86.25,24 6.42,6.42 0 0 1 83.59,21.91 26.16,26.16 0 0 0 81.66,19.42 l -1.43,-1.37 c -0.3,-0.19 -0.43,-0.22 -0.3,0 0.13,0.22 1.4,1.95 1.4,1.95 0.86,1 2.33,3.19 2.93,3.69 a 4.36,4.36 0 0 0 1.52,0.73 l -0.2,0.34 c -0.23,0.33 0,0.53 0.17,0.53 0.17,0 0.67,-0.4 0.67,-0.4 l 0.52,0.36 a 2.55,2.55 0 0 1 -0.66,1 c -0.53,0.53 -0.8,0.2 -1.13,0 -0.33,-0.2 -0.2,0.17 -0.2,0.17 a 1.42,1.42 0 0 0 1.27,0.36 13.35,13.35 0 0 0 1.39,-1.09 l 1.5,2.45 c 1,1.7 2.46,1.7 3.52,1.93 0.81,0.18 3.72,0.82 5.46,1.29 a 6.56,6.56 0 0 1 2.23,1.31 31.4,31.4 0 0 1 2.41,3.52 c 0.77,1.26 2.6,4.72 2.66,4.95 0.06,0.23 -0.5,0.6 -0.31,0.67 0.19,0.07 0.67,-0.11 1.31,-0.67 a 1.22,1.22 0 0 0 0.16,-1.43 14.5,14.5 0 0 0 -1.13,-2.56 22.5,22.5 0 0 1 -1.69,-4.55 6.47,6.47 0 0 1 0.19,-3.13 3.25,3.25 0 0 0 0.15,-0.4 1.62,1.62 0 0 1 0.86,-0.83 2.64,2.64 0 0 1 1.39,0 c 0.07,0 0.1,-0.15 0,-0.17 a 2.22,2.22 0 0 0 -1.51,0 1.9,1.9 0 0 0 -1,0.67 6,6 0 0 0 -0.88,3.7 17.75,17.75 0 0 0 1.06,5.16 c 0,0 -2.76,-4.49 -3.75,-5.88 a 7.26,7.26 0 0 0 -4.19,-2.57 5.24,5.24 0 0 1 -3,-1.79"
         transform="translate(-21.72,-5.02)"
         id="path23" /><path
         d="m 81.79,14.9 a 14.77,14.77 0 0 1 3.53,-0.6 6.93,6.93 0 0 1 3.22,1.26 c 0.53,0.37 1.62,0.86 2.34,1.26 a 4,4 0 0 1 1.12,1.28 15.86,15.86 0 0 1 1,2.21 c 0.06,0.44 0.1,1.73 0.26,1.73 0.16,0 0.31,-0.46 0.24,-0.76 -0.07,-0.3 0,-0.47 0.46,-0.43 0.46,0.04 0.67,0.46 1.27,0.39 0.6,-0.07 0.46,-1 0.19,-1.16 -0.27,-0.16 -0.8,-0.46 -1.34,-0.78 a 7,7 0 0 1 -1.26,-1.2 c -0.25,-0.36 -0.51,-0.77 -0.75,-1.15 a 7.68,7.68 0 0 0 -1.36,-1.47 1.74,1.74 0 0 0 0.48,-0.91 C 91.48,13.33 90.63,12.74 89.77,12.3 A 1.77,1.77 0 0 0 91.7,11.11 C 91.89,10.29 91.61,9.46 89.51,8.97 l -3,-0.69 -0.07,0.31 c 0.6,0.14 0.75,0.39 0.61,1 l -0.92,4 -0.75,-0.08 a 5.47,5.47 0 0 0 -1.78,0.21 c -0.83,0.35 -2,0.9 -2,0.9 -0.67,0.42 -0.27,0.39 0.19,0.29 m 6.59,-5.15 a 0.78,0.78 0 0 1 0.21,-0.47 0.78,0.78 0 0 1 0.62,0 1.15,1.15 0 0 1 1,1.57 c -0.22,1 -0.77,1.23 -1.8,1 l -0.47,-0.11 z m -1,4.33 0.45,-1.95 0.47,0.11 c 1.51,0.35 1.61,1 1.42,1.86 a 2,2 0 0 1 -0.5,1 l -1.89,-0.8 z"
         transform="translate(-21.72,-5.02)"
         id="path24" /><path
         d="m 59.74,11.25 a 3.72,3.72 0 0 0 -1.43,0.31 l -2.71,1.1 0.11,0.29 c 0.56,-0.23 0.84,-0.12 1.09,0.5 l 1.71,4.23 c 0.15,0.39 0.16,0.64 0,0.83 -0.6,0.25 -0.9,-0.12 -1.37,-0.6 l -4.14,-4.2 -0.86,1 0.95,5.1 c 0.15,0.81 0.23,1.3 -0.33,1.89 l 0.15,0.27 2,-1.08 -0.16,-0.27 a 0.72,0.72 0 0 1 -1,-0.25 3,3 0 0 1 -0.24,-0.78 L 53.38,19 l 1.88,-1 0.81,0.83 a 2.86,2.86 0 0 1 0.35,0.43 c 0.14,0.26 0.09,0.42 -0.38,0.7 l 0.15,0.27 2,-1.08 2.72,-1.15 a 3.56,3.56 0 0 0 1.28,-0.77 3.36,3.36 0 0 0 0.52,-3.61 3.4,3.4 0 0 0 -3,-2.35 m -6.4,7.23 -0.6,-3.14 2.21,2.25 z m 7.47,-0.86 c -0.69,0.27 -0.77,0.08 -1,-0.58 L 58.1,13 c -0.22,-0.55 -0.33,-0.82 0.28,-1.06 1.06,-0.43 2,-0.17 2.88,2 1,2.42 0.49,3.33 -0.48,3.73"
         transform="translate(-21.72,-5.02)"
         id="path25" /><path
         d="m 37.93,33.94 a 3.48,3.48 0 0 1 0,3 c -0.31,0.51 -0.65,0.36 -1.13,0.08 L 35,36 35.1,35.85 a 1.27,1.27 0 0 1 1.77,-0.67 l 0.17,-0.28 -2.34,-1.41 -0.18,0.28 a 1.26,1.26 0 0 1 0.19,1.86 l -0.09,0.15 -1.58,-1 c -0.6,-0.36 -0.84,-0.51 -0.46,-1.15 a 3.11,3.11 0 0 1 2.55,-1.27 v -0.29 l -1.79,-0.46 -2.59,4.37 -0.75,1.76 0.28,0.14 a 0.65,0.65 0 0 1 0.92,-0.32 2.25,2.25 0 0 1 0.52,0.4 l 2.71,2.56 -4.23,-0.63 A 1.36,1.36 0 0 1 29.79,39.8 c -0.2,-0.1 -0.29,-0.22 -0.07,-0.78 l -0.28,-0.13 -1.23,2.52 0.28,0.14 c 0.36,-0.56 1.06,-0.38 1.68,-0.29 l 5.56,0.81 0.31,-0.64 L 32,37.7 c -1,-0.9 -1,-1.15 -0.85,-1.68 0.27,-0.35 0.55,-0.36 1,-0.06 l 3.91,2.35 c 0.57,0.34 0.64,0.63 0.33,1.15 l 0.27,0.16 2.62,-4.36 -1.19,-1.44 z"
         transform="translate(-21.72,-5.02)"
         id="path26" /><path
         d="m 116.19,33.89 -0.27,0.17 1.19,1.9 0.26,-0.17 a 0.71,0.71 0 0 1 0.19,-1 2.74,2.74 0 0 1 0.77,-0.28 l 0.6,-0.15 1.14,1.81 -0.78,0.86 a 2.41,2.41 0 0 1 -0.41,0.37 c -0.24,0.15 -0.42,0.11 -0.72,-0.34 l -0.27,0.17 1.37,2.19 1.33,2.71 0.28,-0.13 c -0.27,-0.55 -0.17,-0.83 0.42,-1.12 l 4.1,-2 c 0.6,-0.29 0.88,-0.19 1.15,0.36 l 0.28,-0.14 -1.33,-2.71 -0.28,0.14 c 0.27,0.54 0.18,0.82 -0.42,1.11 l -4.1,2 c -0.47,0.23 -0.75,0.22 -1,-0.07 -0.39,-0.65 0,-1 0.46,-1.5 l 4,-4.33 -1,-0.82 -5.05,1.22 c -0.8,0.19 -1.29,0.3 -1.91,-0.24 m 6.31,-0.4 -2.13,2.33 -1,-1.57 z"
         transform="translate(-21.72,-5.02)"
         id="path27" /><path
         d="M 126.32,41.06 122,42.62 c -0.63,0.23 -0.9,0.1 -1.1,-0.47 l -0.3,0.11 1,2.84 0.4,-0.1 c -0.21,-0.57 -0.08,-0.84 0.54,-1.07 l 2,-0.72 c 0.12,0.33 0.14,0.68 -0.84,1.57 l -0.94,0.87 a 7.15,7.15 0 0 0 -0.62,0.61 l 0.54,1.52 1.15,4.95 1.85,0.22 0.08,-0.25 a 3.46,3.46 0 0 1 -2.08,-2.23 c -0.13,-0.58 0.22,-0.72 0.75,-0.84 l 1.94,-0.45 v 0.19 a 1.26,1.26 0 0 1 -0.81,1.7 l 0.07,0.32 2.67,-0.61 -0.07,-0.32 c -1,-0.06 -1.24,-0.39 -1.43,-1.21 v -0.16 l 1.8,-0.42 c 0.68,-0.16 1,-0.22 1.13,0.51 a 3.16,3.16 0 0 1 -0.94,2.68 l 0.17,0.23 1.61,-0.92 -1.15,-4.94 -0.3,0.07 c 0.14,0.59 0,0.84 -0.66,1 l -4.45,1 c -0.46,0.11 -0.72,0.06 -0.87,-0.2 -0.19,-0.7 0.26,-1.16 0.76,-1.68 l 0.81,-0.78 a 2.06,2.06 0 0 0 0.6,-0.79 1.77,1.77 0 0 0 2.15,0.94 1.79,1.79 0 0 0 1,-2.49 l -1.24,-3.41 -0.29,0.11 c 0.22,0.57 0.09,0.83 -0.53,1.06 m 1.43,1.57 c 0.32,0.85 0.16,1.42 -0.74,1.75 -0.9,0.33 -1.56,0.12 -2,-1.19 V 43.04 L 127,42.35 c 0.51,-0.19 0.74,-0.25 0.92,0.28"
         transform="translate(-21.72,-5.02)"
         id="path28" /><path
         d="m 91.84,105.83 c 0,0 0.14,0.08 0.19,0.12 0.05,0.04 0.49,0.25 1.22,1.52 0.73,1.27 2.57,4 2.57,4 0,0 0.22,0.32 0.44,0.27 0.22,-0.05 0.16,-0.41 0.16,-0.41 l 0.17,-2.53 a 1.84,1.84 0 0 1 1,0 3.76,3.76 0 0 1 2.23,1.55 c 0,0 0.14,0.15 0.23,0.14 a 0.66,0.66 0 0 0 0.31,-0.08 L 101,110 c 0,0 0.1,-0.18 -0.13,-0.15 -0.23,0.03 -0.56,-0.39 -0.89,-0.68 A 5,5 0 0 0 97.86,108 2.15,2.15 0 0 0 99,105.9 c -0.21,-1.2 -0.88,-1.87 -1.94,-1.86 a 7,7 0 0 0 -1.08,0.14 c -0.22,0 -0.2,0.16 -0.2,0.27 0,0.11 0,5.27 0,5.27 l -2.19,-3.45 c 0,0 -0.39,-0.52 -0.08,-0.85 0.07,0 0.1,-0.06 0.08,-0.11 -0.02,-0.05 -0.09,-0.07 -0.09,-0.07 a 13.56,13.56 0 0 0 -1.54,0.42 c -0.09,0 -0.15,0.1 -0.1,0.17 M 96.7,105 c 0.68,0 0.88,0 1.14,0.33 a 1.32,1.32 0 0 1 -0.09,1.62 1.84,1.84 0 0 1 -1,0.54 z"
         transform="translate(-21.72,-5.02)"
         id="path29" /><path
         d="m 113.81,93.7 2.19,1.91 c 1.24,1 1.66,1.56 1.6,1.82 -0.06,0.26 0.1,0.28 0.23,0.1 0.13,-0.18 0.72,-0.84 1.43,-1.79 a 1.89,1.89 0 0 0 0.12,-2 7.57,7.57 0 0 0 -4,-3 1.29,1.29 0 0 0 -1.35,0.27 c -0.26,0.27 -1.38,1.54 -1.38,1.54 -0.23,0.26 -0.12,0.27 0.12,0.33 a 3.7,3.7 0 0 1 1,0.81 m 0.77,-1.73 a 0.81,0.81 0 0 1 1.11,0 c 0.54,0.39 2.64,2.32 2.64,2.32 a 0.89,0.89 0 0 1 0.09,1.24 L 118,96 114.13,92.49 Z"
         transform="translate(-21.72,-5.02)"
         id="path30" /><path
         d="m 91.13,109.84 a 1.56,1.56 0 0 0 0.63,-0.59 1.94,1.94 0 0 0 -0.2,-1.85 1.58,1.58 0 0 0 -1.86,-0.72 c -0.23,0 -2,0.44 -2,0.44 -0.23,0 -0.31,0.17 -0.14,0.24 l 0.28,0.15 a 1.15,1.15 0 0 1 0.39,0.73 c 0.19,1.09 0.66,3.79 0.82,4.82 a 0.84,0.84 0 0 1 -0.08,0.69 c -0.06,0.08 0,0.15 0.09,0.15 0.09,0 3,-0.4 3.73,-1 a 1.78,1.78 0 0 0 0,-2.48 2.26,2.26 0 0 0 -1.65,-0.54 m -2,-2.09 a 0.11,0.11 0 0 1 0.1,-0.14 c 0.31,-0.06 1,-0.29 1.37,0.12 a 1.1,1.1 0 0 1 0.27,1.06 0.84,0.84 0 0 1 -0.59,0.61 l -0.75,0.17 z m 2.38,4.5 a 10.31,10.31 0 0 1 -1.32,0.35 l -0.32,-1.89 0.94,-0.16 a 1.2,1.2 0 0 1 1,0.41 0.82,0.82 0 0 1 -0.32,1.29"
         transform="translate(-21.72,-5.02)"
         id="path31" /><path
         d="m 84.51,107.45 a 2.29,2.29 0 0 0 -1.88,0.62 c -1.3,1.49 -0.87,3.39 -0.56,4.61 0.42,1.63 2.33,2.72 3.64,1.85 1.31,-0.87 1.36,-2.94 1,-4.45 a 3.14,3.14 0 0 0 -2.24,-2.63 m 0.33,6.51 a 1.14,1.14 0 0 1 -1.34,-0.65 12.15,12.15 0 0 1 -0.67,-3.39 1.7,1.7 0 0 1 1.08,-1.79 c 1,-0.18 1.56,0.88 1.65,1.38 l 0.37,2.5 c 0,0 0.31,1.66 -1.09,1.95"
         transform="translate(-21.72,-5.02)"
         id="path32" /><path
         d="m 81.31,114.67 a 16.08,16.08 0 0 0 -1,-2.48 2.13,2.13 0 0 0 -0.53,-0.62 1.86,1.86 0 0 0 0.8,-1.76 1.74,1.74 0 0 0 -1.77,-1.63 h -2.44 c 0,0 -0.17,0.1 0,0.17 a 0.67,0.67 0 0 1 0.33,0.71 v 5.15 c 0,0 0.08,0.6 -0.3,0.79 0,0 -0.12,0.18 0.09,0.18 h 1.35 c 0.28,0 0.2,-0.12 0.12,-0.21 a 1.42,1.42 0 0 1 -0.13,-0.74 v -2.48 a 1.35,1.35 0 0 1 1.47,0.73 10.2,10.2 0 0 1 1,2.51 c 0,0.15 -0.14,0.1 -0.13,0.21 0.01,0.11 0.49,0.06 0.63,0 0.46,0 0.84,0.11 0.88,0 0.04,-0.11 -0.13,0 -0.4,-0.54 m -2.23,-4.12 a 2.67,2.67 0 0 1 -1.09,0 v -1.65 a 1.25,1.25 0 0 1 0.82,0 0.72,0.72 0 0 1 0.56,0.54 c 0.07,0.34 0.09,0.9 -0.29,1.13"
         transform="translate(-21.72,-5.02)"
         id="path33" /><path
         d="m 66.57,107.13 c 0,-0.13 -0.09,-0.39 -0.12,-0.55 a 0.49,0.49 0 0 0 -0.29,-0.36 c -0.78,-0.27 -3.3,-1.11 -3.64,-1.35 0,0 -0.2,-0.12 -0.45,0.12 -0.25,0.24 -0.33,0.4 -0.42,0.49 -0.09,0.09 0,0.12 0.08,0.13 a 6.37,6.37 0 0 1 1.35,0.57 c 0,0 0.55,0.22 0.41,0.73 0,0 -1.27,3.72 -1.43,4.08 a 0.88,0.88 0 0 1 -1.58,-0.19 c -0.46,-1.25 -0.4,-2.59 -1.1,-3.17 a 2.13,2.13 0 0 0 1.33,-1.4 2.21,2.21 0 0 0 -0.43,-2 1.77,1.77 0 0 0 -0.41,-0.29 c -0.58,-0.24 -2.19,-0.91 -2.34,-1 -0.15,-0.09 -0.18,0 -0.16,0.19 a 1,1 0 0 1 -0.08,0.64 c -0.09,0.2 -2.07,5.19 -2.28,5.55 a 0.55,0.55 0 0 1 -0.49,0.32 c 0,0 -0.21,0 -0.12,0.14 l 1.46,0.72 c 0.09,0 0.16,-0.06 0.08,-0.21 a 1,1 0 0 1 0.21,-0.85 l 0.92,-1.94 a 0.24,0.24 0 0 1 0.36,-0.14 c 0.15,0.07 1.25,0.58 1.5,1.1 0.41,0.84 0.21,3 1.47,3.59 1.26,0.59 1.91,0.48 2.43,-0.33 a 34.8,34.8 0 0 0 1.65,-4.48 0.63,0.63 0 0 1 0.63,-0.36 10,10 0 0 1 1.28,0.36 0.15,0.15 0 0 0 0.18,-0.14 m -8,-0.5 a 3.31,3.31 0 0 1 -0.94,-0.36 l 0.66,-1.69 c 0.13,-0.34 0.82,0 0.82,0 0.61,0.32 0.51,0.69 0.33,1.2 -0.18,0.51 -0.44,0.92 -0.87,0.84"
         transform="translate(-21.72,-5.02)"
         id="path34" /><path
         d="M 47.36,96.13 A 0.58,0.58 0 0 0 47,96 c -0.09,0 -0.17,0.08 -0.13,0.25 0.04,0.17 0.32,0.34 -0.4,0.75 l -3,2.06 0.74,-4.18 c 0,0 0.1,-0.33 0,-0.47 -0.1,-0.14 -0.32,-0.46 -0.56,-0.29 l -3.46,3.41 c 0,0 -0.79,0.7 -1.29,0.55 0,0 -0.46,-0.23 -0.34,0.11 0,0.11 1.18,1.1 1.3,1.27 0.29,0.35 0.39,0.19 0.37,0 a 0.91,0.91 0 0 1 0.1,-0.5 21.26,21.26 0 0 1 2.54,-2.41 c 0.2,-0.16 0.25,0 0.12,0.47 -0.13,0.47 -0.94,3.58 -1,3.77 -0.06,0.19 0,0.38 0.19,0.36 a 8.58,8.58 0 0 0 1.41,-0.94 l 2,1.42 a 5,5 0 0 1 -0.41,1.23 0.6,0.6 0 0 1 -0.46,0.11 c -0.14,0 -0.27,0 -0.2,0.21 L 46,104.3 c 0,0 0.28,0.16 0.25,-0.17 a 2.35,2.35 0 0 1 0.13,-0.85 c 0.17,-0.63 1.33,-5.49 1.56,-6.2 0,0 0.1,-0.3 0,-0.4 -0.1,-0.1 -0.38,-0.35 -0.58,-0.55 m -1.56,4.28 -1.22,-0.91 1.86,-1.43 z"
         transform="translate(-21.72,-5.02)"
         id="path35" /><path
         d="m 33.85,85.3 a 2.2,2.2 0 0 0 2.6,-0.09 2,2 0 0 0 0.25,-2.14 c -0.15,-0.41 -1.39,-2.67 -1.53,-2.9 -0.14,-0.23 -0.31,-0.06 -0.28,0.18 0.03,0.24 -0.5,0.31 -0.5,0.31 0,0 -4.87,0.26 -5.81,0.33 -0.94,0.07 -1.18,-0.37 -1.18,-0.37 0,0 -0.29,0 -0.26,0.08 l 0.75,1.63 c 0.23,0 1.92,0 1.92,0 0,0 1.21,2 1.23,2.15 a 1.67,1.67 0 0 1 -0.86,0.82 c -0.19,0.06 -0.38,-0.12 -0.42,-0.14 a 0.14,0.14 0 0 0 -0.19,0.06 l 0.8,1.61 a 0.15,0.15 0 0 0 0.19,0 15.58,15.58 0 0 1 2.06,-2.12 c 0.28,0.38 0.35,0.5 0.27,1.46 -0.08,0.96 -1.56,2.31 -1.56,2.31 l 0.75,1.17 c 0,0 0.11,0.06 0.15,-0.08 a 0.59,0.59 0 0 1 0.08,-0.25 c 0.24,-0.4 0.65,-1.16 0.92,-1.55 a 3.79,3.79 0 0 0 0.62,-2.41 m 1.26,-3.09 c 0.9,1 0.9,2.1 -0.09,2.32 a 2.08,2.08 0 0 1 -1.78,-0.62 z m -3.26,1.47 -0.68,-1.34 2.36,-0.28 z"
         transform="translate(-21.72,-5.02)"
         id="path36" /><path
         d="m 78,5 a 56.28,56.28 0 0 0 -56.12,52 40.9,40.9 0 0 0 -0.16,4.15 v 0.52 A 56.28,56.28 0 1 0 78,5 M 24.71,75.52 V 75.46 C 24.53,74.77 24.36,74.07 24.2,73.38 a 0.08,0.08 0 0 1 0.11,0 3.24,3.24 0 0 0 1.75,0.38 c 0.57,-0.08 0.51,-0.29 0.41,-0.78 -0.05,-0.3 -1.55,-0.76 -1.69,-1 a 4.87,4.87 0 0 1 -0.55,-1.65 l -0.14,-0.7 a 4.43,4.43 0 0 0 -0.8,-1.56 c -0.05,-0.4 -0.1,-0.8 -0.14,-1.2 a 5,5 0 0 0 0.66,-0.19 c 0.52,-0.24 0.94,-0.58 0.85,-1.06 a 0.53,0.53 0 0 0 -0.18,-0.24 l -0.16,0.1 -0.53,0.08 c 0,-0.18 -0.08,-0.28 -0.11,-0.46 -0.09,-0.42 -0.5,-1.06 -0.1,-1.3 a 15.3,15.3 0 0 0 0.7,-2.16 2.93,2.93 0 0 1 0.83,1.25 c 0.08,0.27 0.26,0.57 0.31,0.84 0.11,0.55 -0.67,0.8 -0.56,1.35 0.14,0.71 1.38,0.57 1.53,1.27 0.15,0.7 -0.24,1.19 -0.69,1.83 -0.15,0.21 -0.43,0.3 -0.38,0.55 0.26,1.31 2.59,1.45 2.85,2.76 a 2.42,2.42 0 0 1 0,1.28 l -0.95,0.12 a 1.59,1.59 0 0 0 0.85,1.21 c 0.52,0.25 0.61,0.66 0.71,1.17 0.05,0.27 -0.08,0.51 0,0.78 0.13,0.64 0.8,0.87 1,1.56 a 2.27,2.27 0 0 1 0.17,0.83 C 29.26,77.88 27.12,78.27 25.89,77.16 A 3.69,3.69 0 0 1 24.7,75.54 m 4.21,-8.1 A 1.3,1.3 0 0 0 28.08,69 c -0.13,0 -0.25,0.42 -0.38,0.45 -0.13,0.03 -0.7,-0.79 -0.43,-1 0.27,-0.21 0.4,-0.48 0.37,-0.62 -0.11,-0.54 -0.56,-0.13 -0.67,-0.67 l -0.19,-0.94 c -0.08,-0.39 -0.53,-0.48 -0.61,-0.87 0,-0.16 0.08,-0.26 0,-0.42 -0.08,-0.16 -0.14,-0.26 -0.18,-0.43 -0.04,-0.17 -0.17,-0.67 -0.22,-0.86 a 2.23,2.23 0 0 1 0.64,0.5 c 0.12,0.28 0.42,0.3 0.7,0.45 0.49,0.27 0.6,0.64 1,1.05 0.17,0.21 0.56,0.18 0.61,0.44 0.09,0.45 -0.14,0.86 0.19,1.36 m 1.21,0.07 c -0.07,-0.35 -0.39,-0.47 -0.46,-0.82 -0.17,-0.88 0.91,-1.74 1.45,-2.52 0.18,-0.27 0.43,0.24 0.71,0 0.28,-0.24 0.81,-1.41 1.11,-1.63 0.33,0.4 0.13,1 0.41,1.41 a 5.61,5.61 0 0 1 0.83,1.32 c 0.31,0.82 1,0.65 1.15,1.51 0.13,0.67 -0.8,1 -0.67,1.65 0.05,0.23 0.45,0 0.69,0.14 a 1.53,1.53 0 0 1 1,1.15 A 1.3,1.3 0 0 1 36,71 c -0.36,0.39 -1,0.57 -0.85,1.07 a 1.63,1.63 0 0 1 -0.48,1.6 c -0.26,0.28 -0.51,0.32 -0.43,0.69 0,0.08 0.1,0.1 0.11,0.19 0.21,1 -0.63,1.64 -1.57,2.29 -0.71,0.49 -0.4,1.11 -1.08,1.66 l -0.53,0.1 -0.09,-0.47 c -0.21,-1.07 -1.41,-1.35 -1.62,-2.43 -0.07,-0.36 0.17,-0.58 0.1,-0.94 -0.07,-0.36 -0.36,-0.36 -0.41,-0.64 -0.15,-0.75 0.46,-1.2 0.31,-2 -0.15,-0.8 -0.66,-0.83 -0.78,-1.45 -0.12,-0.62 0.37,-0.83 0.26,-1.34 -0.05,-0.27 -0.24,-0.37 -0.28,-0.63 -0.13,-0.61 0.78,-0.82 1.49,-1 0,-0.11 0,-0.2 0,-0.31 M 133,64.67 c -0.19,0.73 -0.74,2.28 -0.33,3.27 0,0.09 0.07,0.18 0.11,0.27 -0.18,1.42 -0.4,2.81 -0.69,4.19 a 12.33,12.33 0 0 0 -0.48,1.29 c -0.18,0.72 -2,2.77 -2.44,3.69 l -0.56,1.4 -2,0.15 c 0,0 0.88,-1.22 0.66,-1.94 -0.22,-0.72 -0.49,-2.84 0.12,-3.61 0.61,-0.77 0.37,-1 0.33,-1.66 -0.04,-0.66 -0.33,-2.21 0.84,-3 1.17,-0.79 -0.21,-2.48 0,-3 0.21,-0.52 2.27,-1.62 2.4,-2.15 0.13,-0.53 1.11,-3.49 1.49,-3.14 a 23.19,23.19 0 0 1 0.49,4.27 M 121.7,74.9 c -0.38,-0.76 0.13,-1.58 0.33,-2.15 a 2.33,2.33 0 0 0 0.16,-2.07 c -0.4,-1 0,-1.42 0.34,-2.06 a 49.55,49.55 0 0 1 4.2,-4.47 c 0.49,-0.29 -0.23,1 0.52,2.16 a 3.79,3.79 0 0 1 0.26,3 c -0.14,0.58 -0.76,2 -0.52,2.49 a 3.48,3.48 0 0 1 -0.41,2.23 c -0.29,0.54 -1.84,2.63 -1.9,2.87 -0.06,0.24 -0.27,1.89 -0.27,1.89 l -1.63,-0.21 0.35,-0.77 c 0.11,-1 -1.06,-2.19 -1.43,-3 m 10.23,-25.06 c 0.78,4.52 1.14,6.83 0.27,8.6 -0.87,1.77 -4.25,4.15 -4.73,4.44 -0.48,0.29 -0.21,-0.27 0.4,-1 0.61,-0.73 2.71,-3.85 2.65,-4.41 -0.06,-0.56 -0.27,-0.28 -0.8,0.41 -0.53,0.69 -2.68,5.85 -5.51,7.8 a 8.86,8.86 0 0 0 -0.93,1.2 c -0.26,0.48 -0.15,-0.45 0,-1.09 0.15,-0.64 0,-4.16 -0.1,-6.82 A 46.81,46.81 0 0 0 120.54,46.01 44,44 0 0 0 107,26.7 35.11,35.11 0 0 0 103.31,23.86 C 101,22.31 98,20.43 97,20.49 c 0,0 -0.31,0.13 0.2,0.47 0.51,0.34 3.71,2.06 5.91,3.64 a 41.09,41.09 0 0 1 6.31,5.4 c 4.48,4.62 5.87,6.83 9.2,13.69 -0.1,-0.09 -0.7,-0.85 -0.81,-0.62 a 17.89,17.89 0 0 1 1.72,2.85 c 0.14,0.45 0.5,1.47 0.63,1.83 a 12.37,12.37 0 0 1 0.28,1.52 c 0.15,1.22 0.3,2.62 -0.23,1.29 A 10.61,10.61 0 0 0 118,47.89 c 0,0 -0.77,-0.63 -0.93,-0.36 -0.16,0.27 1.52,1.1 1.92,1.79 0.4,0.69 1.33,2.13 0.8,2.13 a 8.13,8.13 0 0 0 -1.73,-2 5,5 0 0 0 -2.59,-1.06 1,1 0 0 0 -0.57,0.23 c -0.19,0.2 -0.46,0.17 -0.49,-0.6 -0.03,-0.77 1,-2 1,-2.72 0,0 0,-0.6 0.29,-0.57 0.29,0.03 1.1,0 1.3,0.07 0.2,0.07 0,-0.3 -0.67,-0.33 -0.67,-0.03 -0.89,0 -0.63,-0.27 a 1.2,1.2 0 0 1 0.84,-0.43 c 0.43,0 -0.21,-0.34 -0.57,-0.17 -0.36,0.17 -0.27,0.47 -0.8,0 a 1.1,1.1 0 0 1 -0.1,-1.69 c 0.53,-0.37 0.86,-0.2 0.8,-0.37 -0.06,-0.17 -0.32,-0.1 -0.65,-0.06 0,0 -1.16,0.47 -1.06,1.44 0.1,0.97 0.64,1.74 0.47,2.66 -0.17,0.92 -0.82,1.8 -0.69,2.45 a 2.72,2.72 0 0 0 1.44,1.89 c 1,0.7 0.9,0.4 1.27,2 0.37,1.6 0.94,5.66 1,6.6 a 4.32,4.32 0 0 1 -0.3,3 19.41,19.41 0 0 1 -2.35,2.66 c -0.32,0.28 -0.37,0.63 0,0.56 0.37,-0.07 1.87,-1.75 3,-2.52 0,0 0.62,-0.33 0.52,-1.44 a 28.75,28.75 0 0 0 -0.45,-5.69 c 0,0 -0.89,-5 -1.09,-5.48 0,0 -0.25,-0.43 0.3,-0.1 0.55,0.33 1.67,1.17 1.81,1.87 a 22.12,22.12 0 0 1 1.13,5.31 42.07,42.07 0 0 1 0.27,5.18 l 0.49,0.43 c 0.25,0.19 1.13,0.87 1,1 -0.13,0.13 -0.52,-0.05 -0.65,0 -0.13,0.05 0.18,0.2 0.53,0.55 a 4.72,4.72 0 0 1 0.68,0.8 v 0.67 l -0.13,-0.07 a 7.86,7.86 0 0 0 -1,-0.67 c -0.17,0 0.2,0.42 0.57,0.77 a 2.67,2.67 0 0 1 0.55,0.58 l -0.07,0.44 c -0.35,0.32 -0.8,-0.2 -1.07,-0.4 -0.27,-0.2 -0.42,-0.12 -0.1,0.25 0.32,0.37 1,0.77 0.32,0.87 a 4.68,4.68 0 0 1 -2.7,-0.65 c 0,0 -0.32,-0.14 -0.92,0.28 a 40.15,40.15 0 0 0 -3.19,3.11 c -0.18,0.23 -0.75,1 -0.13,0.73 0.62,-0.27 2.19,-2.17 2.8,-2.17 0.61,0 0.74,0.57 0.55,3.06 0,0 -0.11,0.43 0.07,0.43 0.18,0 0.55,-1.72 0.87,-4.61 0,0 1.58,0.5 1.75,1.07 0.17,0.57 -0.16,3 -0.82,6.31 -0.61,3 -0.88,4.71 -2.38,4.9 A 0.83,0.83 0 0 1 116.72,79 c -0.15,-0.55 0.62,-2.64 0.69,-3 0.07,-0.36 -0.24,-0.3 -0.32,0 a 19.89,19.89 0 0 0 -0.77,3 2.68,2.68 0 0 0 0.43,1 3.26,3.26 0 0 1 0.07,2.52 39.89,39.89 0 0 1 -7.41,9.84 41.28,41.28 0 0 1 -10.73,8.15 c -1.68,0.94 -2.75,1.43 -4.41,2.22 -1.17,0.6 -1.4,0.25 -1.31,0.85 0.09,0.6 2.53,-0.61 3.44,-1.06 0.91,-0.45 2.2,-1.11 3.56,-1.91 a 42.81,42.81 0 0 0 9.92,-7.41 40.49,40.49 0 0 0 8.81,-12 l 1.14,-1.6 a 5.19,5.19 0 0 1 1.93,-0.6 c 1.24,0 6,1.34 8.32,-0.35 0,0 0.11,0 0.38,-0.52 a 55.17,55.17 0 0 1 -104.9,0.39 c 2.47,1.33 7.46,0.48 8.65,0.42 1.19,-0.06 2.66,1.79 2.66,1.79 5.47,12.27 18.13,19.71 20.71,20.93 3.7,1.77 10.24,4.14 10.5,3.56 0.26,-0.58 -2,-1.08 -5.61,-2.4 -1.78,-0.66 -4.65,-1.94 -5.24,-2.27 A 44.07,44.07 0 0 1 46.87,93 43.39,43.39 0 0 1 36.06,75.64 c -0.07,-0.46 -0.44,-0.88 -0.47,-1.26 a 3,3 0 0 1 0.39,-0.55 c 0.42,-0.52 0.3,-1 0.62,-1.52 0.62,-1 1.27,-1.75 1,-2.91 a 1.38,1.38 0 0 0 -0.22,-0.7 c -0.28,-0.36 -0.94,-0.27 -1,-0.7 -0.13,-0.65 0.18,-1.06 0.06,-1.72 -0.12,-0.66 -0.89,-0.79 -1.37,-1.27 -0.64,-0.63 -0.5,-0.91 -0.87,-1.68 -0.11,-0.24 0,-0.85 -0.21,-1 0,-0.43 -0.22,-0.43 -0.23,-1 A 44.11,44.11 0 0 1 45.73,30.78 l 1.32,-1.33 0.32,-0.29 c 5.55,-5.3 13.94,-10.23 26.51,-11.73 0,0 1.35,0 1.36,-0.55 0.01,-0.55 -0.33,-0.85 -1.34,-0.7 0,0 -19.28,-0.08 -32.84,19.31 a 47.1,47.1 0 0 0 -7.67,20.18 c -0.24,1.7 -0.51,4 -0.58,5 a 3.51,3.51 0 0 1 -0.66,1.7 c -0.36,0.4 -0.25,1 -1.16,0.74 -0.69,-0.18 -1,1 -1.37,1.49 -2.15,-2.32 -3.68,-5.67 -4.12,-6.21 -0.44,-0.54 -0.78,-0.94 -0.81,-0.38 -0.03,0.56 2.24,3.9 2.87,4.61 0.63,0.71 0.94,1.24 0.44,1 -0.5,-0.24 -3.43,-2.35 -4.38,-4.08 -0.95,-1.73 0,-7.8 0.25,-8.7 a 1.15,1.15 0 0 0 0,-0.38 55.17,55.17 0 0 1 108,-0.77 0.41,0.41 0 0 0 0,0.11"
         transform="translate(-21.72,-5.02)"
         id="path37" /><path
         d="m 63.28,50.92 c 0.67,0 2.19,0.07 2.26,-0.23 0.07,-0.3 -0.59,-0.33 -2.16,-0.49 -1.57,-0.16 -1.43,-0.9 -1.23,-1.66 0.2,-0.76 1.76,-4.54 1.76,-4.54 a 46.66,46.66 0 0 1 3.56,-6.38 c 0.5,-0.6 4,-5.49 5.12,-6.52 a 6,6 0 0 1 3.59,-1.19 c 0.5,0 1.36,0.83 1.69,0.93 a 18.71,18.71 0 0 0 2.33,0 1.89,1.89 0 0 1 1.53,0.86 32.17,32.17 0 0 1 1.56,3.16 c 0.1,0.44 -0.2,0.5 -0.44,0.3 A 17.32,17.32 0 0 1 81.72,33.1 c -0.47,-0.86 -1,-1.17 -1.16,-1.19 -0.16,-0.02 0.2,0.39 0.4,0.56 a 23,23 0 0 1 1.22,2.12 c 0.14,0.24 0.23,0.84 -0.22,0.9 -0.45,0.06 -1.24,-1.49 -1.44,-1.85 -0.2,-0.36 -1.3,-0.83 -1.3,-0.83 -1.66,-0.6 -1.59,0 -2.55,0.4 a 3.42,3.42 0 0 1 -2.6,0.1 c -0.43,-0.27 -0.69,-0.23 -0.59,0 a 1.91,1.91 0 0 0 1.32,0.8 23.06,23.06 0 0 0 3.63,-0.73 c 0.53,-0.07 1.83,0.83 1.83,0.83 a 5.13,5.13 0 0 0 -1.1,0.13 8.08,8.08 0 0 1 -2.93,0.17 3.09,3.09 0 0 0 -2.32,0.72 9.94,9.94 0 0 0 -2.23,3.26 c -0.43,1.1 -1.39,4.29 -1.5,4.92 -0.11,0.63 -1.29,2.13 -1.18,2.4 0.11,0.27 0.7,-0.5 0.7,-0.5 a 9.83,9.83 0 0 1 3.52,-2.89 20.83,20.83 0 0 0 2.21,-2.42 24.37,24.37 0 0 1 4.16,-4.21 1.67,1.67 0 0 1 1.4,-0.28 c 1,0.74 1.29,0.3 1.49,0.14 0.2,-0.16 0.4,0.17 0.73,0.27 0.33,0.1 0.67,-0.1 0.93,-0.1 a 2.69,2.69 0 0 1 0.9,0.47 c 0.83,0 0.23,-0.87 0.23,-0.87 a 14.07,14.07 0 0 1 -2,-2.75 A 5.73,5.73 0 0 0 81,30.46 c -0.6,-0.3 -2,-0.07 -2.82,-0.17 a 0.81,0.81 0 0 1 -0.63,-1.16 c 0.1,-0.13 0.3,-0.43 0.1,-0.57 -0.2,-0.14 -0.34,-0.5 -0.1,-0.46 0.24,0.04 1,0 1.06,-0.2 0.06,-0.2 0,-0.23 -0.37,-0.23 -0.37,0 -1.06,0 -1.09,-0.27 a 4.76,4.76 0 0 0 -0.16,-0.63 4,4 0 0 0 0.69,-0.14 0.34,0.34 0 0 0 -0.06,-0.6 2.91,2.91 0 0 1 -0.83,0.23 0.76,0.76 0 0 1 -0.67,-0.7 6.44,6.44 0 0 1 0.4,-0.77 9.52,9.52 0 0 0 0.64,-3.39 5.62,5.62 0 0 1 0.43,-2.09 c 0.3,-0.53 0.86,-1.36 0.86,-1.36 a 2.83,2.83 0 0 1 -1.69,-1.36 c -0.34,-0.47 -0.37,0.13 -0.37,0.13 a 1.78,1.78 0 0 0 1.13,1.53 7.53,7.53 0 0 0 -1.13,4.12 5.5,5.5 0 0 1 -0.89,2.63 1.37,1.37 0 0 0 -0.13,1.16 4.7,4.7 0 0 0 0.66,0.7 1.72,1.72 0 0 1 -1,2.32 11.78,11.78 0 0 0 -4.28,3.06 c -0.84,1 -4.56,5.95 -5.9,7.73 a 18.79,18.79 0 0 0 -1.21,1.9 c -1.12,2.1 -3,5.86 -3.53,6.82 a 3.82,3.82 0 0 1 -3.48,1.53 c -1.23,0 -7.7,0 -8.27,0.16 -0.57,0.16 -5.79,0 -5,0.58 0.18,0.14 19.27,-0.07 19.93,0"
         transform="translate(-21.72,-5.02)"
         id="path38" /><path
         d="m 90.27,23.83 a 37.57,37.57 0 0 1 -3.66,-1.45 c -0.86,-0.47 -1.43,-0.64 -1.76,-0.81 0,0 -0.3,0.07 0.3,0.41 0.6,0.34 2.85,1.42 3.36,1.85 0.51,0.43 1.2,1 1.06,1.5 -0.14,0.5 0,1.13 0.53,1 0.53,-0.13 0.73,-1 0.7,-1.62 a 0.9,0.9 0 0 0 -0.53,-0.87"
         transform="translate(-21.72,-5.02)"
         id="path39" /><path
         d="m 88.84,22 c 0.17,-0.11 -0.23,-0.61 -0.5,-0.7 A 5.55,5.55 0 0 1 87,19.91 2.27,2.27 0 0 0 85.27,19.08 3.5,3.5 0 0 1 83,17.92 l -0.77,-0.77 c 0,0 -0.47,-0.33 -0.16,0.24 a 9.76,9.76 0 0 0 1.62,1.73 c 0.67,0.43 2.8,1.76 3.26,2 0.46,0.24 1.73,1 1.9,0.87"
         transform="translate(-21.72,-5.02)"
         id="path40" /><path
         d="m 91.44,22.28 c 0.36,-0.57 -0.31,-2.1 -0.44,-2.53 -0.13,-0.43 -0.63,-1.13 -0.77,-1.5 -0.14,-0.37 -0.36,-0.39 -0.13,0.37 0,0 0.83,1.4 0.27,1.7 -0.56,0.3 -1.13,0.06 -1.66,-0.61 l -0.54,-0.63 c 0,0 -0.23,-0.19 -0.16,0.2 0,0 1.66,2.2 2,2.66 0.34,0.46 1.09,0.9 1.47,0.34"
         transform="translate(-21.72,-5.02)"
         id="path41" /><path
         d="m 93.39,22.51 c 0,0 -0.26,1.14 0.23,1.29 a 10.27,10.27 0 0 0 2.43,0.51 c 0.34,-0.07 0.2,-0.77 0.13,-0.87 -0.07,-0.1 0,-0.43 -0.93,-0.77 -0.93,-0.34 -1.79,-0.76 -1.86,-0.16"
         transform="translate(-21.72,-5.02)"
         id="path42" /><path
         d="m 95.22,25.57 c 0,0 -1.4,-0.47 -1.46,-0.11 a 1.81,1.81 0 0 0 0.9,1.6 c 0.92,0.43 2.22,1 2.59,0.83 0.37,-0.17 -0.5,-1.6 -0.63,-1.73 a 3.41,3.41 0 0 0 -1.4,-0.59"
         transform="translate(-21.72,-5.02)"
         id="path43" /><path
         d="m 91.66,49.61 c 0,0 -1,-0.55 -1.19,-0.1 -0.19,0.45 0.5,0.93 2.39,0.9 5.69,-0.11 4.07,-6.48 3.41,-6.27 0,0 2,6.24 -4.61,5.47"
         transform="translate(-21.72,-5.02)"
         id="path44" /><path
         d="m 92.21,55.1 c -0.4,-0.06 -0.65,0.09 -0.6,0.34 0.05,0.25 1.15,0.05 1.15,0.05 a 6.6,6.6 0 0 1 4.09,1.2 1.11,1.11 0 0 0 1.09,0.3 c 0.35,-0.85 -0.89,-1.3 -0.89,-1.3 C 95.6,54.9 92.21,55.1 92.21,55.1"
         transform="translate(-21.72,-5.02)"
         id="path45" /><path
         d="m 101,44.14 c -0.07,0.34 1.53,0.34 1.53,0.34 a 13.78,13.78 0 0 0 4.92,-1.27 c 0.86,-0.93 0.26,-0.53 0.26,-0.53 A 13.61,13.61 0 0 1 103.36,44 c -1.06,0.13 -2.33,-0.2 -2.39,0.13"
         transform="translate(-21.72,-5.02)"
         id="path46" /><path
         d="m 108.35,77 c -0.53,0.26 0.07,0.33 0.07,0.33 0,0 1.12,-0.2 1.79,-0.27 0.67,-0.07 0.47,-0.73 0.13,-0.66 -0.34,0.07 -2,0.6 -2,0.6"
         transform="translate(-21.72,-5.02)"
         id="path47" /><path
         d="m 88.62,58.13 c 0.2,-0.1 -0.05,-0.64 0.35,-0.64 0.4,0 1,-0.15 0.45,-0.55 -0.21,-0.14 -0.8,0.1 -1,0.35 -0.2,0.25 -0.35,0.4 -0.14,0.55 0.21,0.15 0.14,0.39 0.34,0.29"
         transform="translate(-21.72,-5.02)"
         id="path48" /><path
         d="m 70.87,63.58 c 0.7,-1.86 2.77,-0.37 2.77,-0.37 a 27,27 0 0 1 3.52,4.85 c 0.4,0.8 0.58,0.69 1,0.69 0.42,0 10.55,-0.29 12.08,-0.37 0.59,0 0.25,-0.46 0,-0.46 -0.25,0 -9.89,0.29 -11.11,0.29 -1,0 -1.15,-0.36 -1.15,-0.36 -2.09,-3 -2.71,-4.23 -4,-5.14 -1,-0.69 -2.81,-0.7 -3.23,0.54 0,0.12 0,0.45 0,0.33"
         transform="translate(-21.72,-5.02)"
         id="path49" /><path
         d="m 69.26,81.9 c -1.78,-2.08 -5.17,-6.66 -5.51,-8.11 -0.34,-1.45 -0.92,-3.33 0.41,-5.13 a 7.7,7.7 0 0 0 0.59,-0.64 c 0,-0.07 0,-0.31 -0.23,-0.25 a 1.18,1.18 0 0 0 -0.37,0.19 6.32,6.32 0 0 0 -1.85,3.89 c 0,0 -0.3,1.94 1.7,4.59 2,2.65 2.34,4.28 1.1,3.56 a 6.79,6.79 0 0 1 -3.19,-2.89 3.59,3.59 0 0 0 -0.32,-0.57 c -0.12,-0.14 -0.26,-0.23 -0.24,0.07 a 4.81,4.81 0 0 0 0.74,1.75 7.2,7.2 0 0 0 2.09,2 c 1.83,1.16 5.41,3.7 7.4,4.35 a 13.91,13.91 0 0 0 5,0.87 c 3.85,-0.21 4,-4.9 3.76,-4.88 -0.24,0.02 -0.34,3.68 -2.85,4.1 A 7.41,7.41 0 0 1 74.18,84.71 7.9,7.9 0 0 1 69.26,81.9"
         transform="translate(-21.72,-5.02)"
         id="path50" /><path
         d="m 82.65,101 c -0.35,-0.2 -0.7,0.15 0.3,0.39 a 1.87,1.87 0 0 0 2,-0.49 c 0.2,-0.35 0.2,-0.85 -0.7,-0.2 a 1.61,1.61 0 0 1 -1.59,0.3"
         transform="translate(-21.72,-5.02)"
         id="path51" /><path
         d="m 41,92.75 a 1.82,1.82 0 0 1 1,1.37 c 0,0 0,0.23 0.19,0.2 a 3.31,3.31 0 0 0 0.68,-0.73 0.35,0.35 0 0 0 0,-0.47 c -0.51,-0.58 -1.76,-2 -2.2,-2.65 -0.1,-0.14 -0.14,-0.39 -0.5,-0.29 -0.1,0 -0.9,0.38 -1,0.46 -0.1,0.08 -0.06,0.2 0.08,0.25 0.14,0.05 1.13,0.43 1.08,1 l -1.42,1.14 c 0,0 -0.36,0.17 -0.73,-0.3 -0.37,-0.47 -1.24,-1.69 -1.24,-1.69 A 0.26,0.26 0 0 0 36.56,90.98 2.66,2.66 0 0 1 35.19,91.63 1.33,1.33 0 0 1 34,90.06 c 0.15,-0.69 1.29,-1.57 2.15,-2 a 1.52,1.52 0 0 1 1.18,-0.06 1.42,1.42 0 0 1 0.93,1.4 1.43,1.43 0 0 1 -0.25,0.76 c 0,0 -0.07,0.06 0.17,0.18 l 1,-0.79 c 0.09,-0.07 0.07,-0.15 0,-0.23 -0.07,-0.08 -0.21,-0.06 -0.2,-0.26 0,0 0,-1.55 -1.19,-1.92 a 4.14,4.14 0 0 0 -4.22,1.67 4.39,4.39 0 0 0 -0.44,0.87 2.43,2.43 0 0 0 0.29,2.19 2.48,2.48 0 0 0 3.15,0.47 l 1,1.27 a 0.54,0.54 0 0 1 0,0.65 2.52,2.52 0 0 1 -1,0.64 L 36.09,94.84 C 36,94.81 36,95 36,95 a 18,18 0 0 1 1.09,1.43 c 0.13,0.2 0.31,0 0.27,-0.23 a 0.51,0.51 0 0 1 0.16,-0.48 l 3.56,-3"
         transform="translate(-21.72,-5.02)"
         id="path52" /><path
         d="m 54.19,101.27 c 0.18,-0.12 0.09,-0.23 0,-0.28 -0.36,-0.23 -1.06,-0.73 -1.2,-0.83 -0.14,-0.1 -0.33,-0.06 -0.26,0.09 a 0.94,0.94 0 0 1 0.05,0.28 c 0,0.33 -0.33,0.66 -0.33,0.66 l -2.93,2.59 c 0,0 0.89,-3.27 1.12,-4.47 a 0.69,0.69 0 0 0 -0.25,-0.77 c -0.34,-0.29 -0.8,-0.76 -1,-0.77 -0.2,-0.01 -0.12,0.25 -0.12,0.25 0.36,0.61 0.2,1.06 0.05,2 -0.09,0.59 -1,4.5 -1.27,5.64 a 0.3,0.3 0 0 0 0.43,0.37 c 0.13,-0.1 5,-4.29 5,-4.29 a 2.67,2.67 0 0 1 0.73,-0.44"
         transform="translate(-21.72,-5.02)"
         id="path53" /><path
         d="m 55.6,102.82 a 0.58,0.58 0 0 1 0.65,-0.36 c 0.06,0 0.19,-0.16 0.06,-0.25 -0.13,-0.09 -1,-0.52 -1.27,-0.71 -0.27,-0.19 -0.33,0 -0.31,0.06 a 0.6,0.6 0 0 1 0,0.63 l -2.7,5.1 c 0,0 -0.27,0.49 -0.65,0.56 -0.06,0 -0.2,0 -0.2,0.07 0,0.07 0,0.1 0.16,0.21 0.16,0.11 1.28,0.68 1.42,0.77 0.14,0.09 0.24,-0.05 0.13,-0.19 a 1,1 0 0 1 0.09,-0.81 c 0.08,-0.17 2.59,-5.08 2.59,-5.08"
         transform="translate(-21.72,-5.02)"
         id="path54" /><path
         d="m 70,107.31 c -0.55,-0.21 -0.87,0.62 -0.87,0.62 l -2,4 -1.15,-2.6 c 0,0 -0.15,-0.33 -0.3,-0.38 -0.15,-0.05 -0.37,0.06 -0.38,0.25 a 4.33,4.33 0 0 0 0.31,0.77 c 0.45,1.13 1.42,3.9 1.45,4 a 0.21,0.21 0 0 0 0.19,0.18 c 0.08,0 0.21,-0.1 0.29,-0.27 0.53,-1.07 2.43,-5 2.67,-5.53 0.24,-0.53 0.3,-0.82 -0.26,-1"
         transform="translate(-21.72,-5.02)"
         id="path55" /><path
         d="m 99.94,103.74 c 0,-0.26 -0.5,-0.3 0,-0.64 a 0.7,0.7 0 0 1 0.94,0.08 c 0.34,0.57 1,1.88 1,1.88 a 4.71,4.71 0 0 0 -0.53,0.2 c -0.12,0.06 -0.31,0.29 -0.29,0.42 a 0.63,0.63 0 0 0 0.34,0.54 0.55,0.55 0 0 0 0.47,0 4.13,4.13 0 0 0 0.44,-0.31 l 0.93,1.44 a 3.18,3.18 0 0 1 -1.46,0.78 c -0.32,0 -0.32,0.22 -0.19,0.33 0.13,0.11 0.41,0.48 0.57,0.68 0.16,0.2 0.14,0.08 0.26,0 0.57,-0.27 2.35,-1.22 2.47,-1.31 0.12,-0.09 0,-0.16 0,-0.16 a 4.21,4.21 0 0 1 -0.59,-0.65 37.93,37.93 0 0 1 -2.5,-4.28 4.52,4.52 0 0 1 1.21,-0.69 0.09,0.09 0 0 0 0,-0.16 c -0.14,-0.17 -0.42,-0.49 -0.55,-0.66 -0.13,-0.17 -0.59,0 -0.59,0 -0.35,0.21 -1.77,1.07 -2.42,1.39 a 1.49,1.49 0 0 0 -0.53,0.46 0.72,0.72 0 0 0 0.06,0.61 c 0.32,0.64 0.88,0.37 0.86,0.06"
         transform="translate(-21.72,-5.02)"
         id="path56" /><path
         d="m 105.08,102.72 c 1.62,0.25 2.33,0.63 2.42,1.54 0.09,0.91 -0.26,1.06 -0.57,1.15 -0.31,0.09 -0.41,0 -0.06,0.58 l 0.24,0.39 c 0,0 0.26,0.52 0.42,0 0.07,-0.23 1.19,-0.82 1.14,-2 a 2.26,2.26 0 0 0 -1.56,-2.13 c -0.64,-0.16 -2.4,0 -2.69,-1.16 a 0.6,0.6 0 0 1 0.34,-0.69 0.71,0.71 0 0 1 0.38,0 c 0,0 0.15,0 0,-0.19 -0.15,-0.19 -0.39,-0.44 -0.52,-0.61 -0.13,-0.17 -0.12,-0.1 -0.23,0 a 2.7,2.7 0 0 0 -1,1.59 c 0,0.57 0,1.23 1.68,1.47"
         transform="translate(-21.72,-5.02)"
         id="path57" /><path
         d="m 105.9,100.61 0.1,0.14 c 0.07,0.08 0.16,0.12 0.2,0 a 3.84,3.84 0 0 1 1,-1.29 41.38,41.38 0 0 1 2.93,3.3 c 0.5,0.72 0.53,0.76 0.46,1 -0.07,0.24 0,0.22 0.15,0.14 0.15,-0.08 1.06,-0.86 1.06,-0.86 0,0 0.19,-0.18 0,-0.19 -0.19,-0.01 -0.23,0 -0.92,-0.63 -0.69,-0.63 -3,-3.39 -3,-3.39 a 2.3,2.3 0 0 1 1.51,-0.65 0.11,0.11 0 0 0 0.14,-0.09 c 0,0 0,-0.15 -0.11,-0.21 a 6.23,6.23 0 0 0 -0.55,-0.44 c -0.23,-0.17 -0.51,-0.4 -0.86,-0.1 l -2.39,2 c 0,0 -0.21,0.13 0,0.6 0.1,0.26 0.32,0.72 0.32,0.72"
         transform="translate(-21.72,-5.02)"
         id="path58" /><path
         d="m 109,97 a 6.7,6.7 0 0 1 1.47,0.69 c 0.22,0.14 4.52,2.63 4.52,2.63 0,0 0.42,0.25 0.48,-0.12 A 40.53,40.53 0 0 0 113,95.49 9.1,9.1 0 0 1 112.22,93.8 c 0,-0.26 0,-0.39 -0.35,-0.06 -0.35,0.33 -0.78,0.67 -0.88,0.8 -0.1,0.13 0,0.21 0.17,0.19 0.17,-0.02 0.32,-0.11 0.71,0.63 l 1.6,3.07 c 0,0 0.13,0.23 -0.42,-0.11 -0.27,-0.17 -2.73,-1.58 -3,-1.8 -0.27,-0.22 -0.22,-0.69 -0.5,-0.51 l -0.71,0.66 c 0,0 -0.17,0.22 0.14,0.3"
         transform="translate(-21.72,-5.02)"
         id="path59" /><path
         d="m 115.81,89.11 a 2.76,2.76 0 0 1 0.7,0.32 c 0.23,0.18 3.21,2 4.17,2.84 a 2,2 0 0 1 0.57,0.72 c 0,0.06 0.06,0.28 0.23,0.16 l 0.69,-1 c 0.12,-0.17 0.06,-0.27 -0.12,-0.32 a 3,3 0 0 1 -0.9,-0.46 L 117,88.57 a 1.41,1.41 0 0 1 -0.45,-0.5 c 0,-0.11 -0.16,0 -0.16,0 l -0.65,0.89 c 0,0 -0.11,0.14 0.06,0.19"
         transform="translate(-21.72,-5.02)"
         id="path60" /><path
         d="m 117.05,87.47 c 0,0 0.21,-0.16 0.81,0 l 6.06,1.1 a 0.68,0.68 0 0 0 0.44,0 c 0.08,0 0.09,-0.14 0,-0.29 -0.09,-0.15 -3,-2.9 -3,-2.9 0,0 3.27,0.29 3.81,0.31 0.37,0 0.36,-0.22 0.25,-0.34 L 122.5,82.1 c 0,0 4.19,0.3 4.69,0.26 a 0.78,0.78 0 0 0 0.63,-0.43 c 0.14,-0.34 0.32,-0.78 0.35,-0.83 0.03,-0.05 -0.17,-0.42 -0.34,-0.21 -0.17,0.21 -0.85,0.27 -1.79,0.19 -0.94,-0.08 -4.47,-0.56 -4.82,-0.59 a 1,1 0 0 0 -1,0.53 c -0.09,0.19 -0.14,0.37 -0.21,0.54 -0.07,0.17 -0.07,0.37 0,0.45 a 0.23,0.23 0 0 0 0.18,0.07 c 0.28,0 0.12,-0.51 0.63,0 0.51,0.51 2.06,2.2 2.06,2.2 l -3.45,-0.46 a 3.3,3.3 0 0 0 -0.42,0 0.46,0.46 0 0 0 -0.27,0.74 c 0.27,0.38 2.89,2.42 2.89,2.42 l -3.27,-0.3 c 0,0 -0.57,0 -0.59,-0.45 0,-0.11 -0.1,-0.12 -0.18,0 -0.08,0.12 -0.62,0.94 -0.76,1.15 -0.14,0.21 0.09,0.28 0.25,0.12"
         transform="translate(-21.72,-5.02)"
         id="path61" /><path
         d="m 44.69,34.54 c 0.41,-0.21 2.19,-2 5,-4.05 1.44,-1 12.56,-7.36 20.91,-8 0.31,0 1.27,0 1.51,-0.65 0.11,-0.31 -0.21,-0.57 -0.5,-0.65 0,0 -8.76,-0.33 -22.09,8.51 0,0 -5.1,3.75 -5.41,4.79 0,0 -0.06,0.36 0.57,0"
         transform="translate(-21.72,-5.02)"
         id="path62" /><path
         d="m 63,31.49 c 1.79,-0.54 1.56,-1.56 0.7,-1.56 -3.87,0.9 -9.72,3.35 -17,8.2 0,0 -5.1,3.75 -5.41,4.79 0,0 -0.06,0.36 0.57,0 0.41,-0.2 2.19,-2 5,-4 A 57.5,57.5 0 0 1 63,31.49"
         transform="translate(-21.72,-5.02)"
         id="path63" /><path
         d="M 58.74,39.22 A 69.4,69.4 0 0 0 49,44 c 0,0 -5.27,3.51 -5.63,4.53 0,0 -0.07,0.35 0.57,0.08 0.42,-0.19 2.28,-1.9 5.2,-3.81 a 63.7,63.7 0 0 1 10.51,-4.64 c 1.15,-0.3 1.51,-1.91 -0.94,-0.93"
         transform="translate(-21.72,-5.02)"
         id="path64" /><path
         d="m 100.69,87 c -0.52,-0.41 -0.78,-0.51 -0.47,-2 0.31,-1.49 0.21,-5.82 -0.26,-6.56 -0.47,-0.74 -0.57,-0.25 -0.57,-0.25 a 17.66,17.66 0 0 1 0,6.25 c 0,1.6 -0.78,1.24 -0.78,1.24 A 10.53,10.53 0 0 1 97.1,85.16 c -1,-0.42 -0.89,-1.82 -0.89,-1.82 a 15.18,15.18 0 0 0 -0.78,-5.68 c -0.73,-0.46 -0.1,1.73 -0.1,1.73 0.47,1.61 -0.27,5 -0.06,5.67 0.21,0.67 1.88,1.43 3.6,1.8 0.31,0.85 3,1.72 5.23,3 a 0.47,0.47 0 0 0 0.65,0 c -0.57,-0.79 -3.53,-2.4 -4.06,-2.82"
         transform="translate(-21.72,-5.02)"
         id="path65" /><path
         d="m 77.61,22.45 c 0,0 0.74,0.16 0.82,0.44 0.08,0.28 0.4,1.18 0.6,1 0.2,-0.18 0,-0.56 0.23,-0.64 0.23,-0.08 0.67,0.35 0.87,0.24 0.2,-0.11 -0.47,-0.71 -0.82,-1 a 8.71,8.71 0 0 0 -1.41,-0.7 c -0.24,0 0,0.31 0,0.31 a 0.36,0.36 0 0 0 -0.31,0.34"
         transform="translate(-21.72,-5.02)"
         id="path66-3" /><path
         d="m 75.62,108.12 a 1,1 0 0 1 -0.45,-0.08 2.34,2.34 0 0 0 -1,-0.46 c -1.48,-0.16 -2.16,0.89 -1.9,2.24 0.26,1.35 0.17,2.78 -0.77,3.35 a 1.79,1.79 0 0 1 -1.54,0.16 1.23,1.23 0 0 1 -0.32,-0.18 c -0.15,-0.11 -0.19,0 -0.19,0.2 0,0.2 0,0.62 0,0.82 a 0.18,0.18 0 0 0 0.08,0.19 2.76,2.76 0 0 0 2.59,-0.17 3,3 0 0 0 1.41,-2.53 7.39,7.39 0 0 0 -0.16,-1 c -0.15,-0.63 -0.3,-1.48 0.11,-1.9 0.41,-0.42 1.33,0 1.44,0.13 a 2.88,2.88 0 0 1 0.25,0.26 0.11,0.11 0 0 0 0.2,0 l 0.36,-0.79 a 0.1,0.1 0 0 0 -0.09,-0.16"
         transform="translate(-21.72,-5.02)"
         id="path67-0" /><path
         d="m 31.08,73.28 c 0.06,0.34 0.67,0.28 0.74,0.62 0.13,0.67 -0.64,1 -0.5,1.69 0,0.2 0.31,0.23 0.35,0.44 a 1.63,1.63 0 0 1 -0.2,1.19 l 0.16,-0.06 c 0.46,-0.18 0.38,-0.6 0.5,-1 0.12,-0.4 0.37,-0.69 0.3,-1.14 -0.07,-0.45 -0.21,-0.78 0.14,-1.06 0.35,-0.28 1,-0.24 0.93,-0.63 A 3.21,3.21 0 0 0 32.82,71.9 l 0.12,-1 c 0,-0.06 -0.11,-0.06 -0.12,-0.13 -0.15,-0.77 2,-0.56 1.8,-1.33 -0.2,-0.77 -2,0 -2.18,-0.82 -0.18,-0.82 1.09,-1.35 0.91,-2.26 -0.18,-0.91 -0.65,-1.27 -0.82,-2.14 v 0.23 c -1.22,0.88 -0.73,2.06 -0.77,3.42 0,0.37 -0.55,0.52 -0.48,0.89 0.07,0.37 0.77,0.12 0.84,0.44 0.07,0.32 0.08,0.44 0.14,0.72 a 2,2 0 0 1 -1.15,0.4 1.3,1.3 0 0 0 0,0.21 c 0.07,0.35 0.79,0.19 0.86,0.55 a 2,2 0 0 1 -0.27,1.73 c -0.15,0.24 -0.72,0.17 -0.66,0.45"
         transform="translate(-21.72,-5.02)"
         id="path68-7" /></g></g></svg>
